<?xml version="1.0" encoding="utf-8"?>
<!-- Generator: Adobe Illustrator 21.1.0, SVG Export Plug-In . SVG Version: 6.00 Build 0)  -->
<svg version="1.1" id="Layer_1" xmlns="http://www.w3.org/2000/svg" xmlns:xlink="http://www.w3.org/1999/xlink" x="0px" y="0px"
	 viewBox="0 0 51 51.5" style="enable-background:new 0 0 51 51.5;" xml:space="preserve">
<style type="text/css">
	.st0{clip-path:url(#SVGID_2_);fill:#FFFFFF;}
	.st1{fill:#FFFFFF;}
</style>
<g>
	<g>
		<defs>
			<rect id="SVGID_1_" width="51" height="51.5"/>
		</defs>
		<clipPath id="SVGID_2_">
			<use xlink:href="#SVGID_1_"  style="overflow:visible;"/>
		</clipPath>
		<path class="st0" d="M25.5,0.5C11.4,0.5,0,11.9,0,26c0,14.1,11.5,25.5,25.5,25.5C39.5,51.6,51,40.1,51,26C51,12,39.5,0.5,25.5,0.5
			L25.5,0.5z M25.5,48C13.4,48,3.6,38.1,3.6,26C3.6,14,13.4,4.1,25.5,4.1S47.4,14,47.4,26C47.4,38.1,37.6,48,25.5,48L25.5,48z
			 M25.5,48"/>
	</g>
	<path class="st1" d="M31.4,13.3c-0.3-0.4-0.8-0.5-1.3-0.5c-0.4,0-0.9,0.2-1.3,0.5L17.2,24.9c-0.4,0.3-0.5,0.8-0.5,1.3
		c0,0.5,0.2,0.9,0.5,1.3l11.6,11.6c0.7,0.7,1.8,0.7,2.5,0c0.7-0.7,0.7-1.8,0-2.5L21,26.2l10.3-10.3C32.1,15.2,32.1,14,31.4,13.3
		L31.4,13.3z M31.4,13.3"/>
</g>
</svg>
