<?xml version="1.0" encoding="utf-8"?>
<!-- Generator: Adobe Illustrator 21.1.0, SVG Export Plug-In . SVG Version: 6.00 Build 0)  -->
<svg version="1.1" id="Layer_1" xmlns="http://www.w3.org/2000/svg" xmlns:xlink="http://www.w3.org/1999/xlink" x="0px" y="0px"
	 viewBox="0 0 51 51.5" style="enable-background:new 0 0 51 51.5;" xml:space="preserve">
<style type="text/css">
	.st0{clip-path:url(#SVGID_2_);fill:#FFFFFF;}
	.st1{fill:#FFFFFF;}
</style>
<g>
	<g>
		<defs>
			<rect id="SVGID_1_" width="51" height="51.5"/>
		</defs>
		<clipPath id="SVGID_2_">
			<use xlink:href="#SVGID_1_"  style="overflow:visible;"/>
		</clipPath>
		<path class="st0" d="M25.5,51C39.6,51,51,39.6,51,25.5C51,11.4,39.6,0,25.5,0C11.5,0,0,11.4,0,25.5C0,39.5,11.5,51,25.5,51
			L25.5,51z M25.5,3.6c12.1,0,21.9,9.8,21.9,21.9c0,12.1-9.8,21.9-21.9,21.9S3.6,37.6,3.6,25.5C3.6,13.4,13.4,3.6,25.5,3.6L25.5,3.6
			z M25.5,3.6"/>
	</g>
	<path class="st1" d="M19.6,38.2c0.3,0.4,0.8,0.5,1.3,0.5c0.4,0,0.9-0.2,1.3-0.5l11.6-11.6c0.4-0.3,0.5-0.8,0.5-1.3
		c0-0.5-0.2-0.9-0.5-1.3L22.2,12.5c-0.7-0.7-1.8-0.7-2.5,0c-0.7,0.7-0.7,1.8,0,2.5L30,25.3L19.6,35.7C18.9,36.4,18.9,37.5,19.6,38.2
		L19.6,38.2z M19.6,38.2"/>
</g>
</svg>
