<?xml version="1.0" encoding="utf-8"?>
<!-- Generator: Adobe Illustrator 21.1.0, SVG Export Plug-In . SVG Version: 6.00 Build 0)  -->
<svg version="1.1" id="Layer_1" xmlns="http://www.w3.org/2000/svg" xmlns:xlink="http://www.w3.org/1999/xlink" x="0px" y="0px"
	 width="357px" height="200px" viewBox="0 0 357 200" style="enable-background:new 0 0 357 200;" xml:space="preserve">
<style type="text/css">
	.st0{fill:#F58D6C;}
	.st1{fill:#FFB287;}
	.st2{fill:#FFFFFF;}
	.st3{fill:#90AFAF;}
	.st4{fill:#BA4200;}
	.st5{fill:#8E2F00;}
	.st6{fill:#374C58;}
	.st7{fill:#2A3C44;}
	.st8{fill:#102333;}
	.st9{fill:#819DA5;}
	.st10{fill:#C8D6D6;}
	.st11{fill:#D4E8E7;}
	.st12{fill:#1F3242;}
	.st13{fill:none;stroke:#102333;stroke-width:2.895;stroke-miterlimit:10;}
	.st14{fill:#602812;}
	.st15{fill:#89351B;}
	.st16{fill:none;stroke:#602812;stroke-width:0.8836;stroke-miterlimit:10;}
	.st17{fill:none;stroke:#602812;stroke-width:1.1834;stroke-miterlimit:10;}
	.st18{fill:none;stroke:#DFEDED;stroke-width:3.1975;stroke-miterlimit:10;}
	.st19{fill:none;stroke:#102333;stroke-width:1.1768;stroke-miterlimit:10;}
</style>
<g>
	<path class="st0" d="M234.2,103.6c-18.1-2.9-22.8,12.1-42.9,15.8c0,0-24.9-0.3-21.1,7.6c1,2,4.1,3.7,6.6,4.3
		c-5.4,0.5-9.4,1.2-9.4,1.2c-28.4-16.7-34.9-9-34.9-9l35.5,18c0,0,47.2,0.2,48.1,0.2c0.9,0,16.2-20.6,16.2-20.6l91.6,37.1l7.4-23
		C331.1,135.1,239.6,104.4,234.2,103.6z"/>
	<path class="st1" d="M126.3,123.2c4.3-2.8,15.5-3.9,34.9,12.1c0,0,15.9-1.8,30.1,5.7c0,0,39-34.8,49-35c10-0.2,90.9,29,90.9,29
		l5.1,29.3l-27.2,4.8L248.1,133c0,0-39.8,24.6-45.4,28.1c-7.2,4.4-29-11.4-43.3-14.4c-4.9-1-26.3-15-33.1-19.5
		C125,126.2,124.9,124.1,126.3,123.2z"/>
	<polygon class="st2" points="252.1,144.7 268.8,103.2 339.3,130.8 342.9,165.4 307.4,169.1 	"/>
	<polygon class="st3" points="252.1,144.7 276,106 342.9,165.4 307.4,169.1 	"/>
	<polygon class="st4" points="258,150.8 276.8,104.2 355,135.1 355,193.9 	"/>
	
		<ellipse transform="matrix(0.9945 -0.1052 0.1052 0.9945 -14.0287 29.1767)" class="st5" cx="269.6" cy="147.6" rx="3.3" ry="3.3"/>
	
		<ellipse transform="matrix(0.9945 -0.1052 0.1052 0.9945 -14.4787 30.2608)" class="st5" cx="279.6" cy="152.4" rx="3.3" ry="3.3"/>
	<path class="st0" d="M111.9,47.2c0,0,31.1,6.6,42.4-10l17.4,0.3c0,0,12.7,24.4,22.5,20.3c4.2-1.8-1.6-6.4-15.9-27.6
		c0,0-17.7-10.3-44.1-8.6L111.9,47.2z"/>
	<path class="st1" d="M0.1,93l57.3-46.5c1.5-1.2,2.9-2.5,4.2-3.9c2.8-3,6.5-5.4,10.6-7c18.7-7.4,66.2-25.2,72.2-25.9
		c3-0.3,25.7,19.5,31.4,25.2c1,1,1.8,2.2,2.1,3.6c1.9,6.6,7.8,27.7,6.3,29.4c-1.8,2-10.3,3.6-19.4-26.4l-22.1-5.6l-5.3,10.4
		c0,0-20.9,24.4-52,14.5L0.1,160.8V93z"/>
	<path class="st0" d="M59.4,45c0,0,10.5,13.2,25,16.6l-6.1,7.6L57.1,47.8L59.4,45z"/>
	<polygon class="st2" points="93.2,83.2 59,44.8 0.1,93.5 0.1,139.6 42.9,131 	"/>
	<polygon class="st3" points="93.2,83.2 52.3,50.6 0.1,140.6 42.9,131 	"/>
	<polygon class="st6" points="90,91.6 51.7,48.5 0.1,90 0.1,175.5 	"/>
	<ellipse transform="matrix(0.9716 -0.2365 0.2365 0.9716 -19.7599 21.0546)" class="st7" cx="77.9" cy="92.9" rx="2.6" ry="2.6"/>
	<ellipse transform="matrix(0.9716 -0.2365 0.2365 0.9716 -21.386 19.7884)" class="st7" cx="71.8" cy="99" rx="2.6" ry="2.6"/>
	<path class="st0" d="M139.3,46.4l-4.1-4.7c-0.3-0.2-0.4-1.5,0.7-1.2c2.4,0.7,2.5,3.9,6.7-4.3L139.3,46.4z"/>
	<g>
		<path class="st8" d="M180.8,83.2l2.2,2.6c2.6,3,7.3,3.5,10.6,1l2.1-1.5c3.3-2.4,3.9-6.9,1.3-9.9l-2.2-2.6c-2.6-3-7.3-3.5-10.6-1
			l-2.1,1.5C178.8,75.8,178.3,80.2,180.8,83.2z M184.3,73.7c2.2-1.6,4.4,1,2.2,2.6C184.4,77.9,182.1,75.3,184.3,73.7z"/>
		<polygon class="st9" points="191.9,77.1 203,89.9 204.4,89 205.2,90 204.7,92 205,92.3 206.4,91.4 207.2,92.3 206.8,94.4 
			207,94.7 208.4,93.7 209.2,94.7 208.8,96.7 209.4,97.4 208.7,102.8 203.1,102.1 185.6,81.8 		"/>
		<polygon class="st10" points="208,95.8 208.6,96.5 207.9,101.8 202.3,101.2 196.1,94 194.5,92.2 184.8,80.9 191.1,76.2 
			200.1,86.6 201.6,88.4 202.2,89 204.4,89 203.9,91.1 204.2,91.4 206.4,91.4 205.9,93.4 206.2,93.7 208.4,93.7 		"/>
		<path class="st11" d="M201.6,88.4c-1.8,1.9-3.7,3.8-5.5,5.6l-1.5-1.8c1.9-1.9,3.7-3.7,5.5-5.6L201.6,88.4z"/>
		<polygon class="st9" points="206,100.4 203.1,99.5 186.7,80.4 188,79.4 		"/>
		<polygon class="st9" points="207.1,99.5 206.9,96.8 190.4,77.6 189.1,78.6 		"/>
		<path class="st12" d="M195.9,74.1l-2.2-2.6c-2.6-3-7.3-3.5-10.6-1l-2.1,1.5c-3.2,2.4-3.8,6.6-1.5,9.6c0.1,0.1,0.2,0.2,0.2,0.3
			l2.2,2.6c1.3,1.5,3.1,2.3,4.9,2.5c2,0.2,4-0.3,5.7-1.5l2.1-1.5C197.9,81.5,198.5,77.1,195.9,74.1z M186.2,76
			c-2.2,1.6-4.8-1.5-2.6-3.1C185.8,71.3,188.4,74.4,186.2,76z M186.9,87c-1.9-0.2-3.7-1.1-4.9-2.5l-2.2-2.6
			c-0.1-0.1-0.2-0.2-0.2-0.3c0.1-1.4,0.4-3.2,0.4-3.3c0-0.2-0.1-2-0.1-2C182.1,77.2,185.2,80.5,186.9,87z"/>
		<path class="st13" d="M186.6,76.3c1.1-0.8,1.3-2.4,0.4-3.4c-0.9-1-2.5-1.2-3.7-0.4"/>
		<path class="st14" d="M175.8,76.6c-4.6,0.2-8.2,4.2-8,8.4c0.1,4.3,4,7.5,8.6,7.3c4.6-0.2,8.2-3.8,8.1-8.1
			C184.2,80,180.4,76.4,175.8,76.6z M175.8,81.8c-3.3,0.1-3.4-3.8-0.1-4C178.9,77.7,179,81.6,175.8,81.8z"/>
		<path class="st9" d="M178.4,107.5c-0.5-0.3-0.5-1,0-1.3l1.8-1.3l0-0.9l-1.9-1.1c-0.5-0.3-0.5-1,0-1.3l1.8-1.3l-0.5-14.6
			c0-1.2-1.1-2.2-2.5-2.1l-2.1,0.1c-1.3,0.1-2.3,1.1-2.3,2.3l0.8,23.4c0,0.5,0.2,1,0.6,1.4l1.1,1.1c1,0.9,2.6,0.9,3.6-0.2l1-1.2
			c0.4-0.4,0.6-0.9,0.6-1.5l0-0.5L178.4,107.5z"/>
		<path class="st10" d="M179.5,84.7l0.1,2.1l0.1,3.9l0.1,3.9l0.1,3.3l0,1.4l-1.8,1.3c-0.5,0.3-0.5,1,0,1.3l1.9,1.1l0,0.9l-1.8,1.3
			c-0.5,0.3-0.5,1,0,1.3l1.9,1.1l0,0.5c0,0.5-0.2,1.1-0.5,1.5l-1,1.2c-0.9,1-2.6,1.1-3.6,0.2l-1.1-1.1c-0.4-0.4-0.6-0.9-0.6-1.4
			l-0.1-3.8l-0.1-3.2l-0.3-10.2l-0.1-3.6l-0.1-2.5c0-1.2,1-2.3,2.3-2.3l2.1-0.1C178.4,82.5,179.5,83.5,179.5,84.7z"/>
		<path class="st11" d="M179.9,94.6l0.1,3.3c-2.2,2.3-4.4,4.5-6.7,6.7l-0.1-3.2C175.5,99.1,177.7,96.8,179.9,94.6z"/>
		<path class="st9" d="M179.6,86.8l0.1,3.9c-3,1.5-6.2,0.6-6.9,0.4l-0.1-3.6c0.6-0.1,1.6-0.2,3-0.6
			C178.1,86.2,178.5,86.6,179.6,86.8z"/>
		<polygon class="st9" points="176.1,109.7 174.7,107.9 173.8,84.6 175.1,84.5 		"/>
		<path class="st15" d="M175.8,75.3c-2.2,0.1-4.2,1-5.7,2.4c-0.5,0.5-1,1.1-1.4,1.7c-0.7,1.2-1.1,2.6-1.1,4c0.1,4.3,4,7.5,8.6,7.3
			c4.6-0.2,8.2-3.8,8.1-8.1C184.2,78.4,180.4,75.1,175.8,75.3z M175.8,81.4c-1.1,0-1.9-0.5-2.2-1.2c-0.2-0.5-0.3-1-0.3-1.5
			c0.1-1,0.9-1.9,2.3-2C178.9,76.6,179,81.3,175.8,81.4z"/>
		<path class="st14" d="M173.6,80.3c-1.2,0-3.1-0.1-4.8-0.9c0.4-0.6,0.8-1.2,1.4-1.7c0.9,0.4,2.2,0.9,2.3,1c0.1,0,0.5,0.1,0.8,0.1
			C173.2,79.3,173.3,79.8,173.6,80.3z"/>
		<path class="st16" d="M180.3,89.8c-1.2,0.6-2.6,1-4,1c-1.6,0.1-3.1-0.2-4.3-0.8"/>
		<path class="st17" d="M175.9,81.6c-1.5,0.2-2.7-0.8-2.9-2.2c-0.1-1.3,0.9-2.6,2.4-2.7"/>
		<path class="st18" d="M183.6,75.9c3.9-3.6,4.3-9.4,0.9-13.4c-3.7-4.3-10.6-5-15.3-1.5c-4.7,3.5-5.6,9.9-1.8,14.2
			c2.7,3.1,6.9,4.3,10.8,3.5"/>
		<path class="st13" d="M183.4,72.5c-1.1,0.8-1.3,2.4-0.4,3.4c0.9,1,2.5,1.2,3.7,0.4"/>
		<path class="st19" d="M188.2,87.3c1.5-0.2,3-0.8,4.4-1.8l2.1-1.5c1.3-0.9,2.2-2.1,2.7-3.3"/>
		<path class="st17" d="M175.4,76.8c1.5-0.2,2.7,0.8,2.9,2.2c0.1,1.3-0.9,2.6-2.4,2.7"/>
	</g>
	<path class="st1" d="M79.4,60.1c0,0,18.2,4.6,39,3.3c11.7-0.7,23.4,0.9,34.4,4.5c2.7,0.9,5.4,1.7,7.6,2.5
		c9.8,3.2,16.6,10.6,19.8,3.2c3.3-7.4-12.1-15.4-25-18.6c-12.8-3.2-21.7-21.9-21.7-21.9L79.4,60.1z"/>
</g>
</svg>
