<?xml version="1.0" encoding="utf-8"?>
<!-- Generator: Adobe Illustrator 21.1.0, SVG Export Plug-In . SVG Version: 6.00 Build 0)  -->
<svg version="1.1" id="Layer_1" xmlns="http://www.w3.org/2000/svg" xmlns:xlink="http://www.w3.org/1999/xlink" x="0px" y="0px"
	 width="326px" height="288px" viewBox="0 0 326 288" style="enable-background:new 0 0 326 288;" xml:space="preserve">
<style type="text/css">
	.st0{opacity:0.36;}
	.st1{fill:#EDE2D9;}
	.st2{opacity:0.66;fill:#B7AC9A;}
	.st3{fill:#FFFFFF;}
	.st4{fill:none;stroke:#B9C9BC;stroke-width:7;stroke-miterlimit:10;}
	.st5{fill:#4893C1;}
	.st6{fill:#5294DB;}
	.st7{fill:#001D4F;}
	.st8{opacity:0.4;fill:#6D645B;}
	.st9{fill:#E67E4B;}
	.st10{fill:#FFA97D;}
	.st11{fill:#EA8F68;}
	.st12{fill:#FFC692;}
	.st13{fill:#DE7540;}
	.st14{opacity:0.4;fill:#869E9A;}
	.st15{fill:#4F455E;}
	.st16{fill:#302C3D;}
	.st17{fill:#546982;}
	.st18{fill:#384559;}
</style>
<polygon class="st0" points="257,261.4 267.9,260.2 257,162.2 257,16.5 240.9,16.5 240.4,12.3 202.4,16.5 67.6,16.5 67.6,31.4 
	52.1,33.2 67.6,172.6 67.6,265.9 77.9,265.9 79.6,281.1 216.2,265.9 257,265.9 "/>
<path class="st0" d="M234.3,133.4l1.4,5.8l-11.2,2.9l0.9,3.3l-5.6,1.7c-2.7,0.8-5.5,0.4-7.9-1L186.2,130c-3.5-2.2-7.8-2.6-11.6-1.3
	l-14,4.9l-9.8-2.1c-3-0.6-6.2,0-8.7,1.9l-22.6,16.7c-1.7,1.2-3.8,1.5-5.8,0.8l-9-3.2l0.7-2.9l-11.2-2.9l1.4-5.8L4,113.4v54v13.5v0.8
	l75.8,18.8l0.2-0.7l0,0l2.1-8.5l10.8,2.8l1.6-6.1l21.1,8.7c0,0,0,0,0,0l1,0.4l0,0l0,0l0,0l0,0l0,0l9.4-9.7l-9.6,10
	c-5.3,5.5-0.8,14.8,6.8,13.7c1.3-0.2,2.7-0.6,4.3-1.3c0,0,1.4,11.6,13.6,10.7c0,0,1.7,11.7,15.2,8.9v0l0,0c0,0,0.1,0.2,0.4,0.6
	c0,0,0.1,0.1,0.1,0.1c1,1.2,3.3,3.5,7.6,3.4c0,0,0,0,0,0c0.6,0,1.2-0.1,1.8-0.2c0.1,0,0.1,0,0.2,0c2-0.4,4.4-1.2,7.1-2.9l2.6,2.6
	c3.5,3.5,8.9,3.7,12.1,0.4l0.1-0.1c3.2-3.3,3-8.8-0.5-12.3l0.6,0.6c3.1,3.1,8.2,3.1,11.3-0.1l1.4-1.4c1.9-1.9,2.6-4.5,2.2-7
	c2.6,0.2,5.2-0.7,7.2-2.7l0.1-0.1c2.8-2.9,3.4-7.3,1.6-10.8c2.6,0.6,5.4-0.2,7.3-2.2c1.7-1.7,2.4-4.1,2.3-6.3l14.5-4.5l1.2,4.7
	l10.8-2.8l2.1,8.5l0,0l0.2,0.7l65.7-16.3v-0.8v-13.5v-54L234.3,133.4z"/>
<rect x="64.6" y="15" transform="matrix(0.9939 -0.1102 0.1102 0.9939 -14.4305 18.4155)" class="st1" width="189.5" height="249.4"/>
<polygon class="st2" points="139.2,16.5 66.9,24.5 66.9,165.7 78,265.9 153,265.9 256.4,254.4 256.4,155.2 241,16.5 "/>
<rect x="66.9" y="9.5" class="st3" width="189.5" height="249.4"/>
<line class="st4" x1="99.2" y1="74.5" x2="223.9" y2="74.5"/>
<line class="st4" x1="88.8" y1="95.3" x2="234.3" y2="95.3"/>
<line class="st4" x1="88.8" y1="84.9" x2="234.3" y2="84.9"/>
<line class="st4" x1="88.8" y1="115" x2="234.3" y2="115"/>
<line class="st4" x1="88.8" y1="104.6" x2="234.3" y2="104.6"/>
<line class="st4" x1="199.4" y1="227" x2="233.9" y2="227"/>
<line class="st4" x1="199.4" y1="216.6" x2="233.9" y2="216.6"/>
<g>
	<path class="st5" d="M138.3,224.8c-4.5,13.4-19.1,20.6-32.5,16.1c-13.4-4.5-20.6-19.1-16.1-32.5s19.1-20.6,32.5-16.1
		C135.6,196.9,142.8,211.4,138.3,224.8z M90.7,208.8c-4.3,12.8,2.6,26.8,15.4,31.1c12.8,4.3,26.8-2.6,31.1-15.4
		c4.3-12.8-2.6-26.8-15.4-31.1C109,189,95,195.9,90.7,208.8z"/>
</g>
<g>
	<path class="st5" d="M135,223.7c-1.4,4.2-4,7.9-7.6,10.5l-0.7-1c3.3-2.5,5.8-6,7.2-10c1.4-4.2,1.5-8.6,0.2-12.8l1.1-0.3
		C136.6,214.7,136.5,219.3,135,223.7z"/>
</g>
<g>
	<path class="st5" d="M93.9,222.6l-1.1,0.3c-1.3-4.4-1.2-9.1,0.2-13.5c1.4-4.2,4-7.9,7.6-10.5l0.7,1c-3.3,2.5-5.8,6-7.2,10
		C92.7,214,92.6,218.5,93.9,222.6z"/>
</g>
<g>
	<path class="st5" d="M131.8,222.4c-3.3,9.7-13.8,14.9-23.4,11.6c-9.7-3.3-14.9-13.8-11.6-23.4c3.3-9.7,13.8-14.9,23.4-11.6
		C129.9,202.3,135.1,212.8,131.8,222.4z M97.9,211c-3.1,9,1.8,18.9,10.8,21.9c9,3.1,18.9-1.8,21.9-10.8c3.1-9-1.8-18.9-10.8-21.9
		C110.8,197.1,101,201.9,97.9,211z"/>
</g>
<line class="st4" x1="88.9" y1="124.2" x2="234.4" y2="124.2"/>
<line class="st4" x1="88.9" y1="143.9" x2="234.4" y2="143.9"/>
<line class="st4" x1="88.9" y1="133.5" x2="234.4" y2="133.5"/>
<g>
	<path class="st6" d="M99.4,37.7c3.6,0,7.4,1.9,8.1,6.5c-1.5,0-2.8,0-4.3,0c-0.6-1.7-1.9-2.5-3.8-2.5c-2.6,0-4.3,1.9-4.3,4.8
		c0,2.5,1.7,4.7,4.3,4.8c1.9,0,3.4-0.9,3.8-2.8c1.5,0,2.8,0,4.3,0c-0.6,4.9-4.5,6.8-8.2,6.8c-4.4,0-8.8-2.9-8.8-8.8
		C90.6,40.6,95,37.7,99.4,37.7z"/>
	<path class="st6" d="M109.9,46.5c0-11.9,17.7-11.9,17.7,0C127.6,58.4,109.9,58.4,109.9,46.5z M123.1,46.5c0-6.2-8.6-6.2-8.6,0
		C114.4,52.8,123.1,52.8,123.1,46.5z"/>
	<path class="st6" d="M135.4,46.6v8.5c-1.5,0-3,0-4.6,0V37.8h1.6l8.7,8.5v-8.4c1.5,0,3,0,4.5,0v17.2h-1.6L135.4,46.6z"/>
	<path class="st6" d="M148.4,41.8c0-1.3,0-2.6,0-3.9h12.8c0,1.3,0,2.6,0,3.9H157v13.3c-1.5,0-2.9,0-4.4,0V41.8H148.4z"/>
	<path class="st6" d="M178.4,54.5v0.6h-4.9l-3-5.1h-2.3v5.1c-1.5,0-3,0-4.4,0c0-5.7,0-11.5,0-17.2c2.5,0,5,0,7.6,0
		c6.8,0,8,8.2,3.6,11.1L178.4,54.5z M171.4,41.8c-1,0-2.1,0-3.1,0c0,1.4,0,2.9,0,4.3h3.1C173.8,46.1,173.9,41.8,171.4,41.8z"/>
	<path class="st6" d="M191.8,52.9H185l-1,2.2h-4.3v-0.6l7.7-16.8h1.9l7.8,16.8v0.6h-4.3L191.8,52.9z M188.4,44.7l-1.9,4.5h3.9
		L188.4,44.7z"/>
	<path class="st6" d="M206.8,37.7c3.6,0,7.4,1.9,8.1,6.5c-1.5,0-2.8,0-4.3,0c-0.6-1.7-1.9-2.5-3.8-2.5c-2.6,0-4.3,1.9-4.3,4.8
		c0,2.5,1.7,4.7,4.3,4.8c1.9,0,3.4-0.9,3.8-2.8c1.5,0,2.8,0,4.3,0c-0.6,4.9-4.5,6.8-8.2,6.8c-4.4,0-8.8-2.9-8.8-8.8
		C198,40.6,202.4,37.7,206.8,37.7z"/>
	<path class="st6" d="M216.6,41.8c0-1.3,0-2.6,0-3.9h12.8c0,1.3,0,2.6,0,3.9h-4.2v13.3c-1.5,0-2.9,0-4.4,0V41.8H216.6z"/>
</g>
<circle class="st5" cx="114" cy="216.6" r="14.5"/>
<g>
	<path class="st7" d="M240.6,219.1c-3,2.5-6.1,4.9-9.7,6.4c-0.8,0.4-1.7,0.7-2.6,0.8c-1.3,0.2-2.1,0-2.6-1.2c-0.6-1.3,0-2.6-0.2-4.1
		c0-0.2-0.1-0.6-0.4-0.6c-1-0.1-2,1.1-2.8,1.7c-0.6,0.5-1.1,1-1.6,1.5c0.4-1.5,0.4-3.1-0.2-4.4c-0.1-0.1-0.2-0.3-0.4-0.2
		c-2.3,1.3-4.1,3.6-5.9,5.6c-0.4,0.5-0.8,0.9-1.2,1.4c0-0.2-0.1-0.3-0.1-0.5c0.5-0.4,1-0.9,1.3-1.3c0.9-1.3,1.5-3.4,0.7-4.9
		c-1.1-2.2-3.6-0.8-4.9,0.5c-0.4,0.4-0.1,1.9,0.4,1.4c0.5-0.5,1.9-1.8,2.8-1.5c0.4,0.6,0.7,1.3,1.1,1.9c-0.1,0.3-0.2,0.6-0.3,0.8
		c-0.3,0.6-0.7,1-1.2,1.4c-0.3,0.3-0.8,0.6-1.3,0.8c-0.2,0-0.3,0.1-0.5,0.1c0,0-0.1,0-0.1,0.1c-0.1,0-0.3,0.1-0.4,0
		c-1.5-0.1-1.1-2.3-0.7-3.4c0.1-0.2-0.1-1.7-0.5-1.1c-0.5,0.7-1,1.4-1.6,2.1c-0.7,0.8-2,2.3-3.1,2.6c-0.5,0.1-1.1,0.1-1.2-0.7
		c0-0.2,0.3-0.9,0.4-1.1c0.4-1,0.9-1.9,1.1-2.9c0.1-0.3,0.1-1.1-0.3-1.2c-1.3-0.2-2.9,0.8-4.1,1.1c-1,0.3-1.9,0.7-2.9,1
		c0-0.4,0.1-0.8,0.1-1.2c0.1-3.2-0.9-6.9,0.2-10c0.6-1.7,1.9-2.5,3.5-3.1c0.8-0.3,3.4-1,4.5-0.3c0.1,0.3,0.2,0.5,0.4,0.4
		c0.1,0,0.1,0,0.2,0c0.6-0.1,0.4-1.2,0.2-1.5c-0.9-1.3-3.6-0.7-4.8-0.4c-1.7,0.5-3.4,1.3-4.3,2.9c-2.1,4.1-0.4,9-0.9,13.4
		c-0.4,0.2-0.7,0.3-1.1,0.5c-2.7,1.4-5.4,3-7.7,5.1c-1.3,1.2-2.8,3.1-2.3,5.1c0.6,2,2.8,1.6,4.3,0.9c4.1-1.6,6.6-5.9,7.4-10.2
		c1-0.4,2-0.8,3-1.1c0.9-0.3,2.3-1,3.4-1.2c-0.8,1.8-2.1,4.5-0.9,5.9c1.3,1.4,3.9-1.1,5.5-3.1c-0.1,1,0,2.1,0.8,2.6
		c0.7,0.5,1.7,0.4,2.5,0c0.4,0,0.5,0.2,0.6,0.6c-1.2,1.5-2.4,3-3.5,4.6c-1.5,2.1-3,4.2-3.9,6.7c-0.4,0.9-1.1,2.5-0.5,3.4
		c1.3,2.4,6.7-7.6,7.1-8.8c0.3-0.6,1.1-2.9,1.5-4.9c0.7-0.9,1.5-1.7,2.2-2.6c1.3-1.4,2.5-2.8,4-4c1.5-1.3,0.9,0.8,0.7,1.8
		c-0.3,1-0.6,2.1-1.2,3c-0.3,0.4,0,1.9,0.4,1.4c0.8-1.2,1.7-2.2,2.7-3.2c0.7-0.6,1.9-2.1,3-2.4c0,1.4-0.7,2.8,0,4.2
		c0.8,1.7,2.6,1.9,4.2,1.5c4.6-1.1,8.6-4.4,12.1-7.4C241.4,220.2,241.2,218.7,240.6,219.1z M196.4,224.1c-0.8,2.8-2.5,5.6-5,7.2
		c-0.9,0.6-2.5,1.5-3.6,1.3c-2.5-0.3,0-2.9,0.7-3.6c2.2-2,4.9-3.6,7.5-4.9c0.2-0.1,0.4-0.2,0.5-0.3C196.4,224,196.4,224,196.4,224.1
		z M210.8,232.4c-0.8,1.9-1.9,3.7-3,5.4c-0.6,0.9-1.3,1.8-2,2.5c-0.6,0.7-0.8,0.9-0.5,0c0.6-1.9,1.7-3.6,2.7-5.3
		c1.2-1.8,2.5-3.5,3.8-5.2C211.5,230.9,211,232,210.8,232.4z"/>
	<path class="st7" d="M204.6,215.7c-0.5,1-0.1,1.9,0.6,2.6c0.5,0.4,0.7-0.9,0.3-1.2c-0.1-0.1-0.4-0.3-0.5-0.5c0,0,0.1-0.1,0.2-0.1
		c0.1-0.1,0.3-0.3,0.4-0.4c0.4-0.3,0.9-0.7,1.4-0.8c0.5-0.1,0.4-1.5,0-1.4C206.2,214.2,205.1,214.9,204.6,215.7z"/>
</g>
<path class="st8" d="M256.4,128.6l-22,5.5l1.4,5.8l-11.2,2.9l0.9,3.3l-5.6,1.7c-2.7,0.8-5.5,0.4-7.9-1l-25.8-16.1
	c-3.5-2.2-7.8-2.6-11.6-1.3l-14,4.9l-9.8-2.1c-3-0.6-6.2,0-8.7,1.9l-22.6,16.7c-1.7,1.2-3.8,1.5-5.8,0.8l-9-3.2l0.7-2.9l-11.2-2.9
	l1.4-5.8l-28.8-7.1V198l12.8,3.2l0.2-0.7l0,0l2.1-8.5l10.8,2.8l1.6-6.1l21.1,8.7c0,0,0,0,0,0l1,0.4l0,0l0,0l0,0l9.4-9.7l-9.6,10
	c-5.3,5.5-0.8,14.8,6.8,13.7c1.3-0.2,2.7-0.6,4.3-1.3c0,0,1.4,11.6,13.6,10.7c0,0,1.7,11.7,15.2,8.9v0c0,0,0.1,0.2,0.4,0.6
	c0,0,0.1,0.1,0.1,0.1c1,1.2,3.3,3.5,7.6,3.4c0,0,0,0,0,0c0.6,0,1.2-0.1,1.8-0.2c0.1,0,0.1,0,0.2,0c2-0.4,4.4-1.2,7.1-2.9l2.6,2.6
	c3.5,3.5,8.9,3.7,12.1,0.4l0.1-0.1c3.2-3.3,3-8.8-0.5-12.3l0.6,0.6c3.1,3.1,8.2,3.1,11.3-0.1l1.4-1.4c1.9-1.9,2.6-4.5,2.2-7
	c2.6,0.2,5.2-0.7,7.2-2.7l0.1-0.1c2.8-2.9,3.4-7.3,1.6-10.8c2.6,0.6,5.4-0.2,7.3-2.2c1.7-1.7,2.4-4.1,2.3-6.3l14.5-4.5l1.2,4.7
	l10.8-2.8l2.1,8.5l0,0l0.2,0.7l10.5-3.3L256.4,128.6z"/>
<path class="st9" d="M158.7,144.7L114,191.2c-5.3,5.5-0.8,14.8,6.8,13.7c1.3-0.2,2.7-0.6,4.3-1.3c0,0,1.4,11.6,13.6,10.7
	c0,0,1.7,11.7,15.2,8.9c0,0,6.6,12.1,25.1-5c9.2-8.4,39.4-33,39.4-33L158.7,144.7z"/>
<path class="st10" d="M286.8,117.8l-66.9,20.5c-2.7,0.8-5.5,0.4-7.9-1l-25.8-16.1c-3.5-2.2-7.8-2.6-11.6-1.3l-28.8,10l15.2,12.2
	l-44.7,46.5c-5.3,5.5-0.8,14.8,6.8,13.7c1.3-0.2,2.7-0.6,4.3-1.3c0,0,1.4,11.6,13.6,10.7c0,0,1.7,11.7,15.2,8.9c0,0,6.6,12.1,25.1-5
	c9.2-8.4,39.4-33,39.4-33l77.7-24.3L286.8,117.8z"/>
<path class="st11" d="M195.5,159.3c6.1-2.9,5.1-8.1,2.6-10.1l-18.7-14.9c-2-1.6-4.4-2.7-6.9-3.3l-18.7-4l-7.6,2.6l15.2,12.2
	l-12.3,12.8c1.8-0.1,10.9-0.7,18.3-4.2C167.4,150.4,182.3,165.5,195.5,159.3z"/>
<path class="st12" d="M201.3,146.2l-18.7-14.9c-2-1.6-4.4-2.7-6.9-3.3l-25-5.4c-3-0.6-6.2,0-8.7,1.9l-22.6,16.7
	c-1.7,1.2-3.8,1.5-5.8,0.8l-34-12.2l-3.3,41.8l40.1,16.5l35.5-36.6c0,0,10.3-0.4,18.7-4.2c0,0,14.9,15,28.1,8.9
	C204.8,153.5,203.8,148.2,201.3,146.2z"/>
<path class="st13" d="M194.8,155.7c-10.6,0.1-23.1-12.6-23.4-12.6c0,0-9.1,8.6-25.7,4.7c0,0-2.7,9.8-18.1,27.4
	c-2.9,3.3-7.5,4.4-11.6,2.8c-1.5-0.6-3.2-1.2-5.1-1.9c-4.4-1.5-7.3-5.7-7.1-10.4l0.9-26.8c-11.8-4.1-27.7,24.8-27.3,19.3l-1.1,13.5
	l39.1,16.1c0,0,0,0,0,0l1,0.4l0,0l0,0l6.5-6.7l29-29.9c0,0,10.3-0.4,18.7-4.2c-0.1,0,14.7,15,28.1,8.9c2.3-1.1,3.6-2.5,4.2-4
	C202,153.9,199.2,155.7,194.8,155.7z"/>
<path class="st9" d="M168.2,220.6c-11.3-11-8.8-17.8-8.8-17.8l59.7-28.3l0.1,0c4.7-1,8-5.3,7.7-10.1l-1.5-27.7l72.7,20.3l0.4,1.3
	l-77.7,24.3c0,0-30.3,24.5-39.4,33c-18.6,17.1-25.1,5-25.1,5S161.3,226.1,168.2,220.6z"/>
<g>
	<path class="st9" d="M126.9,203.3c9.4-8.8,18.9-17.7,28.3-26.5c0.8-0.8-0.4-2-1.2-1.2c-9.4,8.8-18.9,17.7-28.3,26.5
		C124.9,202.9,126.1,204.1,126.9,203.3L126.9,203.3z"/>
</g>
<g>
	<path class="st9" d="M140.6,214c9.1-8.8,18.2-17.6,27.2-26.4c0.8-0.8-0.4-2-1.2-1.2c-9.1,8.8-18.2,17.6-27.2,26.4
		C138.5,213.6,139.8,214.8,140.6,214L140.6,214z"/>
</g>
<g>
	<path class="st9" d="M155.7,222.9c8-7.8,16.1-15.5,24.1-23.3c0.8-0.8-0.4-2-1.2-1.2c-8,7.8-16.1,15.5-24.1,23.3
		C153.7,222.5,154.9,223.7,155.7,222.9L155.7,222.9z"/>
</g>
<path class="st13" d="M161.6,198.1l0.1-0.1c3.2-3.3,8.6-3.1,12.1,0.4l-0.6-0.6c-3.1-3.1-3.2-8.3-0.1-11.4l1.4-1.4
	c1.9-1.9,4.4-2.7,6.8-2.3c-0.2-2.6,0.6-5.3,2.6-7.3l0.1-0.1c3.5-3.6,9.2-3.6,12.8-0.1l1.7,1.7c-0.3-2.4,0.4-4.9,2.2-6.8
	c3.1-3.2,8.1-3.2,11.3-0.1l7.3,7.4c3.1,3.1,3.2,8.3,0.1,11.4c-2,2-4.8,2.8-7.3,2.2c1.8,3.5,1.3,7.8-1.6,10.8l-0.1,0.1
	c-2,2-4.6,2.9-7.2,2.7c0.4,2.5-0.3,5.1-2.2,7l-1.4,1.4c-3.1,3.2-8.1,3.2-11.3,0.1l-7.5-7.6l6.9,6.9c3.5,3.5,3.7,9,0.5,12.3l-0.1,0.1
	c-3.2,3.3-8.6,3.1-12.1-0.4l-13.8-13.9C158.6,206.9,158.4,201.4,161.6,198.1z"/>
<polygon class="st3" points="302.6,165.7 237.2,182.5 224.5,133.3 307.9,111.8 "/>
<rect x="32.1" y="106.9" transform="matrix(0.2498 -0.9683 0.9683 0.2498 -101.9927 168.1386)" class="st3" width="50.8" height="86"/>
<g>
	<path class="st13" d="M188.8,211.9c-5-5.1-10.1-10.1-15.1-15.2c-0.8-0.8-2,0.4-1.2,1.2c5,5.1,10.1,10.1,15.1,15.2
		C188.4,214,189.6,212.7,188.8,211.9L188.8,211.9z"/>
</g>
<polygon class="st14" points="27.4,168.4 92.8,185.3 94.3,133.2 12.1,152.7 "/>
<polygon class="st15" points="4,104.6 4,172.1 79.9,191 95.7,127.3 "/>
<polygon class="st14" points="302.7,165.7 237.3,182.5 235.8,130.4 292.6,143.9 "/>
<polygon class="st16" points="4,158.6 4,172.9 79.8,191.7 83.1,178.2 "/>
<polygon class="st17" points="316,104.4 234.3,124.6 250.1,188.3 316,171.9 "/>
<polygon class="st18" points="316,158.4 247,175.5 250.3,189 316,172.7 "/>
<g>
	<path class="st12" d="M162,208.4c4.2,4.1,8.4,8.1,12.6,12.2c2.9,2.8,8.2,3.1,11,0c2.8-3.1,3.1-8,0-11c-4.2-4.1-8.4-8.1-12.6-12.2
		c-2.9-2.8-8.2-3.1-11,0C159.2,200.4,158.9,205.4,162,208.4L162,208.4z"/>
</g>
<g>
	<path class="st12" d="M172.9,195.4c4.3,3.9,8.7,7.8,13,11.8c2.9,2.6,7.8,3.1,10.7,0c2.7-2.9,3.1-7.8,0-10.7
		c-4.3-3.9-8.7-7.8-13-11.8c-2.9-2.6-7.8-3.1-10.7,0C170.2,187.6,169.8,192.6,172.9,195.4L172.9,195.4z"/>
</g>
<g>
	<path class="st12" d="M185.3,184.6c4.3,3.9,8.7,7.8,13,11.8c3,2.7,8.1,3.2,11,0c2.7-3,3.2-8.1,0-11c-4.3-3.9-8.7-7.8-13-11.8
		c-3-2.7-8.1-3.2-11,0C182.6,176.5,182.1,181.7,185.3,184.6L185.3,184.6z"/>
</g>
<g>
	<path class="st12" d="M202.2,176.5c3.2,2.9,6.4,5.7,9.6,8.6c2.2,2,5.9,2.4,8.1,0c2-2.2,2.4-6,0-8.1c-3.2-2.9-6.4-5.7-9.6-8.6
		c-2.2-2-5.9-2.4-8.1,0C200.2,170.6,199.8,174.3,202.2,176.5L202.2,176.5z"/>
</g>
<g>
	<path class="st3" d="M109.5,225.3c-2-1.1-3.5-2.6-4.5-4.7c-0.7-1.4-2.8-0.2-2.1,1.2c1.2,2.4,3.1,4.3,5.4,5.6
		C109.7,228.2,110.9,226.1,109.5,225.3L109.5,225.3z"/>
</g>
<g>
	<path class="st3" d="M117.1,225.9c-1,0.3-2,0.5-3.1,0.5c-1.6,0-1.6,2.5,0,2.5c1.3,0,2.5-0.2,3.8-0.6
		C119.2,227.8,118.6,225.4,117.1,225.9L117.1,225.9z"/>
</g>
<g>
	<path class="st3" d="M119.1,208.1c3.5,2.2,5.3,6.2,4.6,10.3c-0.3,1.5,2.1,2.2,2.4,0.7c0.9-5.2-1.2-10.3-5.7-13.1
		C119,205.1,117.7,207.2,119.1,208.1L119.1,208.1z"/>
</g>
<g>
	<path class="st3" d="M110,207.5c1.3-0.5,2.6-0.8,4-0.8c1.6,0,1.6-2.5,0-2.5c-1.6,0-3.2,0.3-4.6,0.9c-0.6,0.3-1,0.8-0.9,1.5
		C108.6,207.2,109.4,207.7,110,207.5L110,207.5z"/>
</g>
<g>
	<path class="st3" d="M104.1,215.5c0.2-1.9,1-3.6,2.1-5.2c1-1.3-1.2-2.5-2.1-1.2c-1.4,1.9-2.2,4.1-2.5,6.4
		C101.5,217.1,103.9,217,104.1,215.5L104.1,215.5z"/>
</g>
</svg>
