<?xml version="1.0" encoding="utf-8"?>
<!-- Generator: Adobe Illustrator 21.1.0, SVG Export Plug-In . SVG Version: 6.00 Build 0)  -->
<svg version="1.1" id="Layer_1" xmlns="http://www.w3.org/2000/svg" xmlns:xlink="http://www.w3.org/1999/xlink" x="0px" y="0px"
	 viewBox="0 0 25 32.1" style="enable-background:new 0 0 25 32.1;" xml:space="preserve">
<style type="text/css">
	.st0{fill:#FFFFFF;}
</style>
<g id="Antananarivo_-_Madagascar">
	<path id="royal_palace_-_rova_2_" class="st0" d="M24.3,4.6L23.6,3h0c-0.2-0.5-0.7-0.8-1.3-0.8c-0.6,0-1.1,0.3-1.3,0.8h0l-0.7,1.6
		C20.2,4.8,19.9,5,19.6,5L20,5.4v5.4h-0.7L12.5,0L5.7,10.7H5V5.4L5.4,5C5.1,5,4.8,4.8,4.7,4.6L4,3h0C3.8,2.5,3.3,2.1,2.7,2.1
		C2.1,2.1,1.6,2.5,1.4,3h0L0.7,4.6C0.6,4.8,0.3,5,0,5l0.4,0.4v26.8h24.3V5.4L25,5C24.7,5,24.4,4.8,24.3,4.6z M2.7,6.6
		C2.9,6.6,3,6.8,3,7c0,0.2-0.2,0.4-0.4,0.4C2.5,7.3,2.3,7.2,2.3,7C2.3,6.8,2.5,6.6,2.7,6.6z M1.8,7.9c0-0.2,0.2-0.4,0.4-0.4
		c0.2,0,0.4,0.2,0.4,0.4v1.8H1.8V7.9z M3,24.3H2.3v-2.1H3V24.3z M3,19.3H2.3v-2.1H3V19.3z M2.7,13.9c-0.3,0-0.5-0.2-0.5-0.5
		c0-0.3,0.2-0.5,0.5-0.5c0.3,0,0.5,0.2,0.5,0.5C3.2,13.7,3,13.9,2.7,13.9z M3.6,9.6H2.9V7.9c0-0.2,0.2-0.4,0.4-0.4
		c0.2,0,0.4,0.2,0.4,0.4V9.6z M12.1,2.1h0.7v0.7h-0.7V2.1z M12.1,5.4h0.7v0.7h-0.7V5.4z M12.1,8.6h0.7v0.9h-0.7V8.6z M5.5,14.6
		c0-0.6,0.5-1.1,1.1-1.1c0.6,0,1.1,0.5,1.1,1.1v3.2H5.5V14.6z M5.5,21.8c0-0.6,0.5-1.1,1.1-1.1c0.6,0,1.1,0.5,1.1,1.1v3.9H5.5V21.8z
		 M7.9,30H5.7v-1.8c0-0.6,0.5-1.1,1.1-1.1c0.6,0,1.1,0.5,1.1,1.1V30z M10.7,30H8.6v-1.8c0-0.6,0.5-1.1,1.1-1.1
		c0.6,0,1.1,0.5,1.1,1.1V30z M10.7,25.7H8.6v-3.9c0-0.6,0.5-1.1,1.1-1.1c0.6,0,1.1,0.5,1.1,1.1V25.7z M10.7,17.9H8.6v-3.2
		c0-0.6,0.5-1.1,1.1-1.1c0.6,0,1.1,0.5,1.1,1.1V17.9z M13.6,31.1h-2.1v-2.9c0-0.6,0.5-1.1,1.1-1.1c0.6,0,1.1,0.5,1.1,1.1V31.1z
		 M13.6,25.7h-2.1v-3.9c0-0.6,0.5-1.1,1.1-1.1c0.6,0,1.1,0.5,1.1,1.1V25.7z M13.6,17.9h-2.1v-3.2c0-0.6,0.5-1.1,1.1-1.1
		c0.6,0,1.1,0.5,1.1,1.1V17.9z M16.4,30h-2.1v-1.8c0-0.6,0.5-1.1,1.1-1.1c0.6,0,1.1,0.5,1.1,1.1V30z M16.4,25.7h-2.1v-3.9
		c0-0.6,0.5-1.1,1.1-1.1c0.6,0,1.1,0.5,1.1,1.1V25.7z M16.4,17.9h-2.1v-3.2c0-0.6,0.5-1.1,1.1-1.1c0.6,0,1.1,0.5,1.1,1.1V17.9z
		 M19.3,30h-2.1v-1.8c0-0.6,0.5-1.1,1.1-1.1c0.6,0,1.1,0.5,1.1,1.1V30z M19.3,25.7h-2.1v-3.9c0-0.6,0.5-1.1,1.1-1.1
		c0.6,0,1.1,0.5,1.1,1.1V25.7z M19.3,17.9h-2.1v-3.2c0-0.6,0.5-1.1,1.1-1.1c0.6,0,1.1,0.5,1.1,1.1V17.9z M22.3,6.6
		c0.2,0,0.4,0.2,0.4,0.4c0,0.2-0.2,0.4-0.4,0.4C22.1,7.3,22,7.2,22,7C22,6.8,22.1,6.6,22.3,6.6z M21.4,7.9c0-0.2,0.2-0.4,0.4-0.4
		c0.2,0,0.4,0.2,0.4,0.4v1.8h-0.7V7.9z M22.7,24.3H22v-2.1h0.7V24.3z M22.7,19.3H22v-2.1h0.7V19.3z M22.3,13.9
		c-0.3,0-0.5-0.2-0.5-0.5c0-0.3,0.2-0.5,0.5-0.5c0.3,0,0.5,0.2,0.5,0.5C22.9,13.7,22.6,13.9,22.3,13.9z M23.2,9.6h-0.7V7.9
		c0-0.2,0.2-0.4,0.4-0.4c0.2,0,0.4,0.2,0.4,0.4V9.6z"/>
</g>
</svg>
