<?xml version="1.0" encoding="utf-8"?>
<!-- Generator: Adobe Illustrator 21.1.0, SVG Export Plug-In . SVG Version: 6.00 Build 0)  -->
<svg version="1.1" id="Layer_1" xmlns="http://www.w3.org/2000/svg" xmlns:xlink="http://www.w3.org/1999/xlink" x="0px" y="0px"
	 viewBox="0 0 24 39.6" style="enable-background:new 0 0 24 39.6;" xml:space="preserve">
<style type="text/css">
	.st0{fill:#FFFFFF;}
</style>
<g>
	<path class="st0" d="M22.2,37.9c-0.7-0.9-2.4-3.2-4.1-6.6h0l-0.6-1.1c-1-2.1-1.8-3.9-2.4-6.5L15,23c0-0.2-0.1-0.4-0.1-0.7
		c-0.5-2.9-0.9-4.9-1.1-7.5l0-0.3c-0.3-3.4-0.5-5.5-0.5-7.3l0-0.3c0-0.8,0-1.3,0-1.6c0.1-0.1,0.2-0.2,0.3-0.3
		c0.1-0.2,0.4-0.4,0.4-0.4V3.9H13V2.8c0-0.4-0.4-0.7-0.8-0.7V0h-0.3v2.1C11.4,2.1,11,2.4,11,2.8v1.1h-0.8v0.6c0,0,0.4,0.2,0.4,0.4
		c0.1,0.1,0.2,0.2,0.3,0.3c0,0.2,0,0.8,0,1.6l0,0.3c-0.1,1.8-0.2,3.9-0.5,7.3l0,0.3c-0.3,2.6-0.6,4.6-1.1,7.5c0,0.2-0.1,0.4-0.1,0.7
		l-0.2,0.8c-0.6,2.6-1.5,4.4-2.4,6.5l-0.6,1.1h0c-1.7,3.3-3.4,5.7-4.1,6.6H0v1.7h24v-1.7H22.2z M10.9,22.5c0.4-3,0.6-5,0.8-7.7h0.7
		c0.2,2.7,0.4,4.7,0.8,7.7c0,0.2,0,0.3,0.1,0.5h-2.4C10.8,22.8,10.8,22.6,10.9,22.5L10.9,22.5z M10.4,25h3.1c0.4,2.2,1,3.6,1.6,5.3
		H8.8C9.4,28.5,10,27.1,10.4,25L10.4,25z M5.1,37.9c0.4-0.5,1-1.5,1.8-3c1.1-1.5,3-2.6,5.2-2.6c2.1,0,4.2,1.3,5.2,2.6
		c0.7,1.5,1.4,2.5,1.8,3H5.1z M5.1,37.9"/>
</g>
</svg>
