<?xml version="1.0" standalone="no"?>
<!DOCTYPE svg PUBLIC "-//W3C//DTD SVG 1.1//EN" "http://www.w3.org/Graphics/SVG/1.1/DTD/svg11.dtd" >
<svg xmlns="http://www.w3.org/2000/svg" xmlns:xlink="http://www.w3.org/1999/xlink" version="1.1">
<metadata></metadata>
<defs>
<font id="anydoreregular" horiz-adv-x="842" >
<font-face units-per-em="2048" ascent="1638" descent="-410" />
<missing-glyph horiz-adv-x="508" />
<glyph unicode="&#xd;" horiz-adv-x="508" />
<glyph horiz-adv-x="0" />
<glyph horiz-adv-x="0" />
<glyph unicode=" "  horiz-adv-x="508" />
<glyph unicode="&#x09;" horiz-adv-x="508" />
<glyph unicode="&#xa0;" horiz-adv-x="508" />
<glyph unicode="!" horiz-adv-x="619" d="M40 121q0 32 12 62.5t42 54.5q37 29 82 29q9 0 18 -1q57 -9 89 -55q26 -36 26 -82q0 -12 -2 -24q-9 -60 -53 -95q-37 -30 -84 -30q-33 0 -59 14.5t-45 41.5q-26 38 -26 85zM108 384q0 14 2 26q4 24 9 50q39 207 97 428q37 141 74 264q33 108 60 190q77 32 150 32 q33 0 59.5 -8t39.5 -25q-43 -121 -82 -243q-46 -143 -86 -287q-30 -109 -56 -220q-17 -72 -30 -137q-18 -81 -59 -108q-37 -23 -89 -23q-56 3 -75 26q-13 15 -14 35z" />
<glyph unicode="&#x22;" horiz-adv-x="697" d="M140 889q0 59 15 129q29 132 96 328q66 28 130 28q28 0 50.5 -7t34.5 -21q-55 -185 -128 -310t-186 -244q-12 44 -12 97zM451 889q0 59 15 129q29 132 96 328q66 27 130 27q28 0 50.5 -6.5t34.5 -20.5q-55 -185 -128 -310t-186 -244q-12 44 -12 97z" />
<glyph unicode="#" horiz-adv-x="1098" d="M30 514q0 13 4 28q12 44 39 80q128 0 214 -3l36 -2l29 90l14 44q-101 -4 -246 -19q-9 13 -9 32q0 13 4 28q11 44 38 80q128 0 215 -3l36 -2q30 89 61 178q58 166 125 320q35 12 92 12q36 -2 51 -25q-74 -163 -136 -341q-27 -76 -53 -152q74 -4 152 -5q32 96 65 191 q58 166 125 320q35 12 82 12q46 -2 62 -25q-74 -163 -136 -341q-27 -77 -53 -154q92 5 218 18q9 -13 9 -32q0 -13 -4 -28q-11 -45 -38 -80q-124 0 -208 4h-17l-29 -90l-14 -42q93 5 221 17q8 -12 8 -31q0 -13 -4 -29q-11 -44 -38 -80q-123 0 -207 4q-10 0 -19 1 q-29 -89 -60 -176q-58 -167 -125 -322q-33 -11 -68 -11q-10 0 -20 1q-40 3 -56 24q74 163 137 341q26 75 51 151q-73 4 -151 5q-32 -95 -65 -189q-58 -167 -125 -322q-33 -11 -68 -11q-10 0 -20 1q-40 3 -55 24q74 163 137 341q27 77 53 155q-100 -4 -245 -19q-9 13 -9 32z M462 609q73 -4 152 -5q17 51 34 103q6 20 13 39q-74 5 -152 6q-17 -51 -34 -103q-6 -20 -13 -40z" />
<glyph unicode="$" horiz-adv-x="843" d="M30 248q0 77 35 151q28 26 108 30h19q69 0 130 -25q-32 -26 -63.5 -96.5t-31.5 -136.5q0 -45 20.5 -76.5t73.5 -31.5q57 0 95 28t57 72.5t19 94.5q0 61 -25 125.5t-64.5 131.5t-85.5 136q-49 74 -94 151t-74 154.5t-29 156.5q0 100 48.5 166t126.5 101t170 40 q24 99 57 175q33 11 68 11q10 0 20 -1q40 -3 56 -24q-34 -74 -59 -172q73 -20 118.5 -62.5t66.5 -100t21 -118.5q0 -77 -36 -151q-28 -26 -108 -30h-19q-69 0 -130 25q32 26 63.5 96t31.5 136q0 46 -20 77.5t-74 31.5q-56 0 -94 -28t-57.5 -72.5t-19.5 -94.5 q0 -58 22.5 -114t58.5 -112.5t78 -115.5q52 -72 100.5 -151t80.5 -168.5t32 -193.5q0 -100 -48.5 -166.5t-126.5 -101t-170 -40.5q-32 -160 -80 -273q-34 -12 -69 -12q-10 0 -19 1q-40 3 -55 24q49 112 82 272q-74 20 -119.5 62.5t-66 99.5t-20.5 119z" />
<glyph unicode="%" horiz-adv-x="1165" d="M100 923q0 70 19 143t47 139q19 29 67 41q8 57 54 92.5t120 35.5q41 0 76.5 -21.5t58 -68.5t25.5 -124q96 42 178 104t123 101q35 12 72 12q8 0 16 -1q40 -3 55 -24q-139 -297 -315 -630q-204 -383 -361 -731q-33 -11 -69 -11q-10 0 -20 1q-39 3 -55 24q140 297 315 629 q178 337 325 650q-53 -47 -122 -92.5t-143 -72.5q-3 -66 -21.5 -136.5t-53 -132t-86.5 -100.5t-122 -39q-65 0 -105 32t-59 80.5t-19 99.5zM287 956q0 -19 3.5 -49t16 -54t39.5 -24q41 0 67 45t40.5 106.5t18.5 116.5q-12 -1 -24 -1q-70 0 -128 44q-15 -48 -24 -90t-9 -94z M313 1250q31 -5 51 -20q-19 -30 -33 -63q49 -36 108 -36q17 0 36 3v18q0 48 -14.5 76t-36 40t-44.5 12q-22 0 -40 -8.5t-27 -21.5zM584 192q0 70 19 143t47 139q19 29 67 41q8 57 54 92.5t120 35.5q42 0 78.5 -23t59 -73t22.5 -132q0 -65 -16.5 -140.5t-51.5 -142 t-88.5 -109.5t-127.5 -43q-65 0 -105 32t-59 80.5t-19 99.5zM771 225q0 -19 3.5 -49t16 -54t39.5 -24q37 0 61.5 37t39.5 91t21.5 108t6.5 87q0 48 -14 76t-36 40t-45 12q-22 0 -40 -8.5t-27 -22.5q31 -4 51 -19q-27 -42 -44 -91q-15 -47 -24 -89t-9 -94z" />
<glyph unicode="&#x26;" horiz-adv-x="1243" d="M30 214q0 86 45.5 160.5t118 144t155.5 138.5l64 54q-45 86 -79 168q-57 135 -57 234q0 106 41.5 174.5t115.5 101.5t171 33q114 0 182.5 -42.5t99.5 -110t31 -141.5q0 -88 -50.5 -162.5t-129.5 -141.5q-46 -40 -97 -79q27 -46 58 -93q63 -97 134 -186q14 21 28 43 q69 109 110 199.5t41 131.5q68 0 108.5 -16t40.5 -63q0 -54 -56 -161q-54 -100 -138 -211q-16 -22 -33 -42q67 -73 130 -128q88 -77 149 -94q0 -46 -28.5 -78t-68 -50.5t-76.5 -23.5q-10 -1 -19 -1q-24 0 -39 8q-51 31 -136 123q-33 35 -68 77l-1 -1q-106 -99 -224.5 -162 t-241.5 -63q-108 0 -169.5 38t-86.5 97.5t-25 124.5zM193 202q0 -46 21 -76.5t52.5 -45.5t64.5 -15q91 0 187 67q90 62 174 154q-15 19 -29 39q-98 130 -185 274q-5 7 -9 14q-18 -14 -36 -29q-67 -54 -121 -113t-86.5 -125.5t-32.5 -143.5zM507 1118q0 -91 54 -214 q7 -17 15 -34q14 15 27 31q53 66 85 141t32 162q0 46 -20 77.5t-73 31.5q-57 0 -82 -28t-31.5 -72.5t-6.5 -94.5z" />
<glyph unicode="'" horiz-adv-x="386" d="M140 889q0 59 15 129q29 132 96 328q66 28 130 28q28 0 50.5 -7t34.5 -21q-55 -185 -128 -310t-186 -244q-12 44 -12 97z" />
<glyph unicode="(" horiz-adv-x="658" d="M95 157q0 113 14.5 228t38.5 231q30 143 82.5 290.5t123 272.5t153.5 203t172 78q45 0 77 -19t38 -48q-19 8 -36 8q-63 0 -119.5 -76t-104.5 -196t-86 -259.5t-64 -270.5q-36 -185 -42 -376q0 -119 24 -194q29 -89 96 -89q-40 -60 -83 -96.5t-87 -36.5q-73 0 -116.5 47 t-62.5 128q-18 77 -18 175z" />
<glyph unicode=")" horiz-adv-x="639" d="M-134 -125q18 -8 35 -8q63 0 119.5 75.5t105 196t86.5 259.5t63 270q37 186 42 334q1 25 1 49q0 115 -24 188q-29 88 -97 88q40 60 83.5 96.5t87.5 36.5q73 0 116 -47t62 -127.5t19 -184.5q0 -103 -15 -218.5t-39 -230.5q-29 -143 -82 -290.5t-123.5 -273t-153 -203.5 t-171.5 -78q-46 0 -78 19.5t-37 48.5z" />
<glyph unicode="*" horiz-adv-x="850" d="M165 877q0 18 13 38q39 44 117.5 68.5t152.5 39.5q-61 28 -125 41q-35 7 -64 7q-25 0 -46 -5q-25 23 -30 70q-2 12 -2 25q0 34 11 67q11 35 34 53q15 12 36 12q10 0 22 -3q53 -23 101 -90t85 -134q4 36 4 71q0 31 -3 61q-8 64 -32 106q14 30 57 49.5t90 19.5 q36 0 60.5 -16t26.5 -52q-6 -58 -54.5 -124t-100.5 -122q66 13 125 40t91 63q33 -4 65 -39t47 -79q6 -20 6 -38q0 -13 -3 -25q-8 -28 -41 -41q-19 -4 -41 -4q-42 0 -94 17q-78 26 -147 58q33 -59 77 -106.5t88 -67.5q1 -7 1 -14q0 -27 -18 -59q-24 -41 -61 -69 q-30 -22 -59 -23h-2q-28 0 -50 27q-29 48 -29 127v5q1 83 10 158q-46 -50 -77.5 -106.5t-36.5 -104.5q-19 -10 -43 -10q-16 0 -33 4q-46 9 -84 37q-30 21 -40 48q-4 10 -4 20z" />
<glyph unicode="+" horiz-adv-x="1111" d="M90 523q0 12 4 28q11 44 39 80q249 0 374 -5h11q1 7 3 14q27 135 78 362q41 19 87 20h4q37 0 53 -18q-68 -241 -97 -380q29 -1 61 -1q132 0 332 10q8 -12 8 -31q0 -13 -4 -29q-11 -44 -38 -80q-242 0 -372 5h-13q-1 -5 -3 -11q-26 -131 -79 -366q-41 -18 -87 -19h-4 q-37 0 -53 18q66 233 97 380q-30 1 -64 1q-134 0 -328 -10q-9 13 -9 32z" />
<glyph unicode="," horiz-adv-x="513" d="M-180 -421q94 60 195 206t106 239q-39 40 -39 96q4 68 41 107.5t96 39.5t95 -45t36 -101q0 -96 -87.5 -217.5t-209.5 -213.5t-233 -111z" />
<glyph unicode="-" horiz-adv-x="827" d="M90 374q0 13 4 28q12 44 39 80q536 0 622 2q8 -12 8 -31q0 -13 -4 -29q-11 -44 -38 -80h-159.5t-206 -0.5t-177.5 -1t-79 -0.5q-9 13 -9 32z" />
<glyph unicode="." horiz-adv-x="514" d="M82 121q0 10 1 21q10 61 53 96q37 29 82 29q9 0 18 -1q57 -9 89 -55q26 -36 26 -82q0 -12 -2 -24q-9 -60 -53 -95q-36 -30 -83 -30q-8 0 -17 1q-56 10 -88 55q-26 38 -26 85z" />
<glyph unicode="/" horiz-adv-x="574" d="M-34 5q204 450 419 947q93 216 180 413q35 12 72 12q8 0 16 -1q40 -3 55 -24q-204 -451 -419 -948q-93 -215 -180 -413q-33 -11 -68 -11q-10 0 -20 1q-40 3 -55 24z" />
<glyph unicode="0" d="M14 403q0 18 1 35q19 336 171 535q142 187 359 187q15 0 31 -1q117 -6 188 -123q61 -99 61 -273q0 -29 -2 -61q-7 -125 -47 -254t-110.5 -235t-161.5 -169q-81 -57 -192 -57q-14 0 -28 1q-73 4 -132 50.5t-88.5 115t-41.5 144.5q-8 56 -8 105zM266 402q0 -50 9 -101 q13 -68 40 -114.5t67 -48.5h8q56 0 103 50q51 54 89 138t60.5 177.5t26.5 170.5q2 36 2 69q0 100 -21 158q-27 77 -84 80h-13q-57 0 -100 -32q-48 -37 -82 -98t-56 -134.5t-33.5 -147.5t-14.5 -133q-1 -17 -1 -34z" />
<glyph unicode="1" horiz-adv-x="748" d="M20 971q61 -18 125 -18q92 0 181 39.5t213 174.5q148 0 149 -62q-269 -895 -288 -1148q-129 0 -210 44q0 133 238 952q-172 -107 -300 -110q-44 0 -74 25q-34 28 -34 103z" />
<glyph unicode="2" d="M-8 27q0 19 4.5 47t18.5 55.5t42.5 46t77.5 18.5q113 108 204.5 213.5t147 224.5t55.5 270q0 37 -9 73t-30 59.5t-58 23.5q-54 0 -92.5 -42t-59.5 -105t-21 -127q0 -41 4 -78q-50 0 -92 11t-66.5 37t-24.5 71q0 94 34 159t90.5 105.5t126 59t139.5 18.5q85 0 154 -38 t109.5 -110.5t40.5 -177.5q0 -116 -46.5 -211t-119.5 -173.5t-157.5 -143.5t-163.5 -118q-26 -18 -51 -36q68 -17 151 -17q54 0 113 7q152 17 256 77q-23 -147 -148 -205q-110 -51 -258 -51q-18 0 -37 1q-171 8 -334 56z" />
<glyph unicode="3" d="M-36 50q0 77 36 151q28 26 107 30h19q69 0 130 -25q-31 -26 -63 -96t-32 -136q0 -56 27 -84.5t64 -28.5q39 0 87.5 29t84 87t35.5 145q0 100 -28.5 159.5t-72.5 93.5t-92 55q0 19 28.5 41.5t65.5 39t62 16.5q92 50 136 142t44 183q0 43 -5.5 91t-30 81.5t-80.5 33.5 q-48 0 -82.5 -34.5t-55.5 -88t-28 -113.5q-3 -30 -3 -58q0 -29 3 -56q-79 6 -124.5 37t-45.5 82q0 106 38 173t96.5 103.5t124 50t121.5 13.5q69 0 135 -25.5t108.5 -85.5t42.5 -162q0 -131 -82 -253t-236 -181q118 -78 164 -159.5t46 -183.5q0 -87 -39 -155t-101.5 -114 t-136 -70t-140.5 -24q-84 0 -158.5 31.5t-121.5 97.5t-47 167z" />
<glyph unicode="4" d="M-93 138v7q0 28 7 60q7 36 27 61.5t56 27.5q115 112 308.5 440.5t214.5 391.5q42 24 96.5 37t85.5 14h13q38 0 65 -10q33 -11 34 -34q-46 -147 -93 -350t-84 -379q-23 -107 -43 -196q136 11 192 89v-8q0 -54 -25 -89q-26 -39 -74.5 -60t-113.5 -29l-17 -78 q-26 -116 -38 -179q-8 -40 -11 -70q-171 3 -220 88l58 234q-105 6 -212 16q-120 11 -226 16zM132 277q123 -29 245 -44l146 627q-306 -508 -391 -583z" />
<glyph unicode="5" d="M-24 35q0 77 38 151q29 26 114 30h20q74 0 138 -25q-33 -26 -66.5 -96t-33.5 -136q0 -46 21.5 -77.5t77.5 -31.5q66 0 108.5 54.5t63 136.5t20.5 165q0 94 -28.5 165.5t-101.5 111.5q-69 37 -209 39l169 636q138 -23 268 -23q164 0 316 36q-26 -130 -78 -176 q-63 -55 -147 -59q-116 0 -234 20l-80 -305q185 -17 278.5 -143t93.5 -305q0 -86 -26.5 -169t-79.5 -148.5t-130.5 -105t-179.5 -39.5q-121 0 -194 42.5t-105.5 110t-32.5 141.5z" />
<glyph unicode="6" d="M23 363q0 28 2 59q12 160 77.5 294t158.5 242t190.5 187t176 129.5t115.5 70.5q14 8 18 11q22 10 48 10q6 0 13 -1l13 -1q41 -7 73 -28q29 -20 29 -46v-3q0 -6 -5 -9q-167 -104 -333.5 -252t-266.5 -350q82 49 161 49q8 0 17 -1l6 -1q79 -7 141 -58t96 -134 q28 -70 28 -152q0 -17 -1 -34q-9 -113 -57.5 -204t-131.5 -141q-71 -43 -164 -43q-15 0 -30 1q-124 9 -211 61t-129 152q-34 80 -34 192zM245 308q0 -47 11 -93q15 -61 47 -102.5t79 -44.5h7q34 0 57 24q26 28 43 71.5t26 92.5t12 90q1 20 1 38q0 82 -29 135q-36 66 -128 75 q-12 1 -26 1q-23 0 -49 -3q-21 -60 -32.5 -114.5t-17.5 -138.5q-1 -16 -1 -31z" />
<glyph unicode="7" d="M70 688q0 52 10 113q14 90 48.5 173t87.5 138t122 55q57 -111 144 -114q199 1 369 93q15 0 25 -7q22 -15 22 -37q0 -4 -1 -8q-3 -28 -31 -38q-73 -73 -186 -362t-183.5 -536t-107.5 -408q-10 -3 -20 -3q-36 0 -81 29q-65 43 -109 108q0 47 59 241.5t156 413.5 q81 183 204 402q-67 -49 -170 -49q-65 0 -129 18q-42 -22 -96 -107t-95 -268q-30 33 -36 105q-2 23 -2 48z" />
<glyph unicode="8" d="M-2 248q0 79 33 146t84.5 121.5t110.5 95t113 67.5q-14 19 -27 38q-34 47 -63 93.5t-47 98.5t-18 116q0 99 36 165.5t94 106.5t127 57.5t136 17.5q80 0 145 -30.5t103.5 -95t38.5 -166.5q0 -133 -81 -250t-225 -171q59 -53 103 -103.5t69 -108t25 -131.5 q0 -104 -60.5 -186.5t-153.5 -130t-191 -47.5q-88 0 -169 33.5t-132 99.5t-51 164zM221 171q0 -53 24 -82t61 -30q91 3 140 88t49 189q0 67 -20.5 130t-62.5 101q-51 -49 -94 -112.5t-70 -136t-27 -147.5zM378 1026q0 -93 27 -160.5t69 -118.5q64 43 101.5 100.5t53.5 120 t16 118.5q0 82 -27.5 128t-68.5 46q-49 0 -88 -35.5t-61 -89.5t-22 -109z" />
<glyph unicode="9" horiz-adv-x="841" d="M-59 -189q0 6 5 10q322 205 517 545q-26 0 -50 2q-114 9 -190 62q-92 64 -132 161q-33 83 -33 163q0 14 1 28q9 105 52 180t107.5 120t140.5 64q56 14 112 14q19 0 37 -2q114 -10 185 -73.5t100 -164.5q23 -75 23 -163q0 -29 -3 -60q-11 -127 -62.5 -245.5t-126.5 -222.5 t-158 -190.5t-158.5 -150.5t-127.5 -102t-64 -45q-22 -9 -48 -9h-10q-7 1 -15 2q-42 7 -73 28q-29 19 -29 44v5zM310 728q0 -56 11 -103q17 -67 66 -105q39 -32 103 -37q15 -2 31 -2q58 133 72 302q2 24 2 49q0 34 -4 70q-7 61 -33 103.5t-78 46.5h-8q-33 0 -59 -24 q-30 -26 -51.5 -69.5t-34 -91.5t-15.5 -89q-2 -26 -2 -50z" />
<glyph unicode=":" horiz-adv-x="497" d="M30 215q0 10 1 21q10 61 53 96q37 29 82 29q9 0 18 -1q57 -9 89 -55q26 -37 26 -85q0 -10 -1 -21q-10 -60 -54 -95q-37 -30 -84 -30q-8 0 -16 1q-56 10 -88 55q-26 38 -26 85zM156 671q0 10 1 21q10 61 53 95q37 30 84 30q8 0 16 -1q56 -10 88 -55q26 -37 26 -85 q0 -10 -1 -21q-10 -61 -53 -95q-37 -30 -84 -30q-8 0 -16 1q-56 10 -88 55q-26 37 -26 85z" />
<glyph unicode=";" horiz-adv-x="510" d="M-180 -421q94 60 155 149t91 178.5t30 148.5q-15 30 -15 65q0 11 1 22q9 56 48 90.5t89 34.5q59 0 95 -45t36 -101q0 -96 -88 -217.5t-209.5 -213.5t-232.5 -111zM207 671q0 10 1 21q10 61 53 95q37 30 84 30q8 0 16 -1q56 -10 88 -55q26 -37 26 -85q0 -10 -1 -21 q-10 -61 -53 -95q-37 -30 -84 -30q-8 0 -16 1q-56 10 -88 55q-26 37 -26 85z" />
<glyph unicode="&#x3c;" horiz-adv-x="1070" d="M30 537q0 13 4 29q11 44 38 80q111 0 243.5 28t262 68t234.5 79t165 63q50 20 55 21q8 -13 8 -31q0 -13 -4 -29q-11 -44 -38 -80q-81 -30 -272 -82.5t-383 -100.5q313 -95 483 -163q73 -28 81 -28q9 -13 9 -33q0 -12 -4 -27q-12 -45 -39 -80q-29 9 -125 43 q-107 39 -248.5 88t-271.5 86.5t-190 37.5q-8 12 -8 31z" />
<glyph unicode="=" horiz-adv-x="1080" d="M30 406q0 12 4 28q11 44 39 80q178 0 386 0.5t356 1t164 0.5q8 -12 8 -31q0 -13 -4 -29q-11 -44 -38 -80q-58 0 -203 -0.5t-304.5 -0.5t-275 -0.5t-123.5 -0.5q-9 13 -9 32zM93 640q0 12 4 28q12 44 39 80h386.5t356 1t163.5 1q8 -12 8 -31q0 -13 -4 -29q-11 -44 -38 -80 q-58 0 -203 -0.5t-304.5 -0.5t-275 -0.5t-123.5 -0.5q-9 13 -9 32z" />
<glyph unicode="&#x3e;" horiz-adv-x="1070" d="M30 282q0 13 4 29q11 44 38 80q81 30 272 82.5t383 100.5q-313 95 -483 163q-73 28 -81 28q-9 13 -9 33q0 12 4 27q12 45 39 80q29 -9 125 -43q107 -39 248.5 -88t271.5 -86.5t190 -37.5q8 -12 8 -31q0 -13 -4 -29q-11 -44 -38 -80q-111 0 -243.5 -28t-262 -68 t-234.5 -79t-165 -63q-50 -20 -55 -21q-8 13 -8 31z" />
<glyph unicode="?" horiz-adv-x="789" d="M110 1072q0 105 38.5 172.5t97.5 105.5t124.5 53t121.5 15q85 0 159.5 -37t120 -110t45.5 -183q0 -91 -37.5 -169t-92 -144.5t-109.5 -123.5q-56 -57 -94.5 -106t-38.5 -91q0 -55 -20.5 -83.5t-51.5 -38.5q-27 -9 -56 -9h-6q-47 2 -68.5 18.5t-21.5 43.5q0 42 22 87.5 t57 94t77 100.5q53 65 103.5 137t84 150.5t33.5 164.5q0 40 -13 83.5t-40 73.5t-69 30q-50 0 -85.5 -36t-56.5 -91t-28 -115q-3 -30 -3 -57q0 -28 3 -53q-48 0 -93 11t-74 36.5t-29 70.5zM154 120q0 11 1 22q10 61 53 96q36 29 81 29q10 0 19 -1q56 -9 88 -55q26 -37 26 -85 q0 -10 -1 -21q-10 -60 -53 -95q-37 -30 -84 -30q-8 0 -16 1q-57 10 -89 55q-25 38 -25 84z" />
<glyph unicode="@" horiz-adv-x="1817" d="M30 8q0 229 48 439t142 387t230.5 307.5t314 203.5t391.5 73q131 0 210 -61t116 -163.5t37 -230.5v-9q0 -124 -28 -255q-28 -136 -78 -264t-115 -230.5t-138 -163.5t-145 -61q-62 0 -95 29.5t-45.5 70.5t-12.5 76q0 63 15 147q-27 -70 -62 -136q-46 -85 -102 -139 q-49 -48 -104 -48q-39 0 -66 13t-44 33q-25 31 -33.5 67.5t-8.5 62.5q0 36 8.5 105.5t26.5 152.5q23 109 62 212q34 89 81 149q27 33 57.5 52t65.5 19q65 0 123.5 -31.5t102.5 -82.5v-2l1 3q1 4 4 13.5t7 20.5q15 45 61.5 62t103.5 17q33 0 59 -8t40 -24q-17 -47 -38 -113 q-27 -83 -54 -177q-28 -100 -45 -191q-16 -79 -16 -135q0 -16 4.5 -31t20.5 -15q39 0 83.5 50.5t86 135t74.5 190.5t51 218q16 98 16 189v29q-2 106 -31.5 190.5t-91.5 135t-164 50.5q-160 0 -294 -60t-242 -164t-189.5 -237.5t-136 -282.5t-82 -300.5t-27.5 -287.5 q0 -109 21 -210t71 -180.5t133 -126.5t208 -47q150 0 289.5 64.5t263.5 175t227.5 253.5t182 302.5t129.5 321.5q0 -113 -37 -244.5t-105.5 -265.5t-166 -256t-219 -218.5t-264 -153t-300.5 -56.5q-181 0 -313 86t-203.5 231.5t-71.5 323.5zM702 203q0 -18 4.5 -34.5 t19.5 -16.5q19 0 44.5 39.5t53.5 101.5q41 90 77 188q49 137 66 194q-48 68 -89 68q-33 0 -63 -59q-35 -71 -61 -177q-18 -73 -30 -142q-22 -130 -22 -162z" />
<glyph unicode="A" horiz-adv-x="1227" d="M-40 204q0 73 24.5 154.5t76.5 159t132 140.5t190.5 101.5t253.5 38.5q10 24 21 51q34 86 79 184t104 186t134.5 145t171.5 57q53 0 83 -17.5t42 -45.5q11 -27 11 -59v-5q-6 -87 -32 -159q-47 -152 -99.5 -339.5t-91 -354t-38.5 -243.5q0 -16 6.5 -31t31.5 -15t64.5 50 t81 120t74.5 136t47 103q0 -19 -20.5 -84t-57.5 -148.5t-87 -163t-109 -132.5t-123 -53q-62 0 -95 29t-45 70.5t-12 76.5q0 80 31 231q28 137 68 294q-85 32 -178 43q-14 -36 -29 -76q-31 -83 -67.5 -174.5t-81 -178.5t-97.5 -158.5t-116 -114t-138 -42.5q-71 0 -117.5 29.5 t-69.5 80t-23 114.5zM103 307q0 -36 9 -65.5t32.5 -47t64.5 -17.5q74 0 132.5 49t104 124.5t80 159.5t59.5 156q14 38 26 68q-128 0 -245.5 -50.5t-190 -163t-72.5 -213.5zM724 786q82 -10 172 -33q89 328 152 526q-57 0 -110.5 -66.5t-106.5 -178t-107 -248.5z" />
<glyph unicode="B" horiz-adv-x="1167" d="M-40 727q0 151 71 278t187.5 220.5t259 145.5t286.5 52q94 0 176.5 -30t133 -95.5t50.5 -172.5q0 -73 -50 -151t-167 -148q49 -7 90.5 -37t67.5 -85.5t26 -141.5q0 -52 -12 -105q94 26 171 104q-23 -56 -71.5 -92.5t-110.5 -53.5q-35 -114 -110.5 -212.5t-178 -160.5 t-215.5 -62q-97 0 -156 42t-85.5 114.5t-26.5 164.5q0 142 42.5 305.5t93.5 303t83 216.5q34 48 120 58q20 3 38 3q60 0 101 -29q-16 -37 -54.5 -138t-81.5 -237t-74.5 -278.5t-31.5 -258.5q0 -66 21 -105t66 -39q50 0 91.5 46.5t71.5 118.5t48 150q-78 24 -128.5 78.5 t-50.5 141.5q0 58 33.5 101.5t85.5 66.5q64 41 111 109.5t47 144.5q0 71 -29 127.5t-89 89.5t-153 33q-111 0 -200.5 -46t-153 -120.5t-97.5 -163.5t-34 -174q0 -75 29 -139t90 -105q-71 -33 -139 -33h-15q-75 4 -126 53t-51 146zM742 615q0 -49 26.5 -85.5t71.5 -58.5 q11 66 11 117q0 46 -17 64.5t-38 18.5q-54 -4 -54 -56z" />
<glyph unicode="C" horiz-adv-x="767" d="M-40 430q0 127 24.5 265t73 266.5t120.5 232.5t167 165.5t213 61.5q100 0 159 -34.5t85 -90.5t27 -123v-8q0 -64 -16 -127q-17 -68 -43 -125q-28 -27 -108 -31h-19q-68 0 -129 25q25 21 50.5 67.5t45 104t27.5 110.5q3 24 3 44q0 25 -5 45q-10 36 -45 36q-75 0 -142 -79 t-118 -207.5t-80.5 -282t-29.5 -302.5q0 -81 18 -150.5t57.5 -112.5t104.5 -43q76 0 143 36.5t124.5 97.5t107.5 136t92 154q-10 -61 -41 -137t-82 -153.5t-120.5 -143.5t-156.5 -106.5t-191 -40.5q-112 0 -181.5 60.5t-102 162.5t-32.5 227z" />
<glyph unicode="D" horiz-adv-x="1230" d="M-40 312q0 115 63 225.5t195 186.5q-6 -2 -21.5 -4t-29.5 -2q-62 0 -104 30t-63.5 80.5t-21.5 112.5q0 85 44 177t135 167q75 62 183.5 99.5t253.5 37.5q209 0 340 -90.5t181 -249.5q30 -95 30 -209q0 -72 -12 -152q163 -69 247 -197q-91 87 -256 147q-74 -327 -316 -527 q-100 -81 -223 -125.5t-264 -44.5q-156 0 -257 84q-49 42 -76.5 106t-27.5 148zM68 335q0 -134 77 -198q67 -57 178 -57q90 0 189.5 46t185.5 139q74 81 125 199q49 113 64 260q-138 32 -289 32q-25 -80 -55 -163q-44 -117 -82 -214q-23 -59 -39 -101q-39 -92 -119 -101 q-8 -1 -15 -1q-70 0 -128 66q7 19 29 72q28 69 68 172q39 103 78 217q-79 -37 -133 -88q-68 -65 -101 -139.5t-33 -140.5zM178 958q0 -64 19.5 -108.5t40.5 -69.5t29 -30q0 -1 1 -2q43 21 93 35q22 70 38 135q24 96 24 159v5q-2 65 -46 65q60 35 120 35q62 0 95 -29.5 t45 -70.5t12 -76q0 -73 -31 -184l-2 -6h10q125 0 264 -29l1 33q0 82 -13 159q-14 92 -53 166.5t-109 119t-180 44.5q-76 0 -138.5 -27t-109.5 -72q-110 -113 -110 -252z" />
<glyph unicode="E" horiz-adv-x="741" d="M-40 254q0 95 51.5 182.5t130.5 154t166 102.5q-37 8 -81 38t-78 88.5t-34 157.5q0 76 24.5 154.5t75 144t129 105.5t187.5 40q129 0 213 -71.5t84 -185.5q0 -60 -18.5 -120.5t-36.5 -97.5q-27 -26 -101 -31h-18q-64 0 -125 25q95 133 95 266q0 44 -17.5 75.5t-59.5 31.5 q-58 0 -107 -63t-79.5 -157t-30.5 -185q0 -78 36 -121q21 -26 59 -26q24 0 55 11q5 1 10 1q19 0 31 -23q15 -30 15 -72q-88 0 -161.5 -56t-118 -138.5t-44.5 -161.5q0 -64 27 -104.5t70 -60.5t91 -20q76 0 138.5 36.5t115.5 97.5t99 136t88 154q-10 -61 -38.5 -137 t-75.5 -153.5t-113 -143.5t-150.5 -106.5t-187.5 -40.5q-85 0 -156.5 34t-115.5 96t-44 144z" />
<glyph unicode="F" horiz-adv-x="736" d="M-143 923q0 80 38.5 166t124 160t214 124t329.5 50q191 0 306 -77q-9 -92 -86 -178q-39 16 -63 27q-21 -74 -28 -126q-25 -190 -82 -443h23q80 0 150 16q111 24 168 75q-44 -76 -144 -109q-91 -30 -210 -39q-50 -203 -136 -365q-56 -102 -129 -163t-166 -61 q-75 0 -125 46q-49 44 -49 124q0 169 190 216q-83 -87 -83 -184q5 -78 55 -78q41 0 67 43t50 116q24 72 45 162q15 67 29 137h-73q-21 11 -29 40q-6 23 -6 48v13q3 32 13 51q57 -27 114 -45v1q50 286 73 418q25 130 71 180q-59 19 -105 19q-79 0 -151 -18t-129 -58 t-90.5 -105t-33.5 -139q0 -70 40.5 -109t96.5 -39q0 -50 -15.5 -78.5t-39.5 -40.5t-48 -12q-80 0 -128 68.5t-48 166.5z" />
<glyph unicode="G" horiz-adv-x="928" d="M-40 503q0 116 29 243t83.5 247t131 216.5t172 154t206.5 57.5q101 0 160 -34.5t85 -90.5q27 -57 27 -127q0 -66 -16 -131q-17 -68 -43 -125q-28 -27 -108 -31h-19q-69 0 -130 25q32 23 59.5 70.5t46 104.5t24.5 110q1 15 1 29q0 33 -8 58q-12 35 -46 35 q-72 0 -134.5 -57t-112.5 -150t-85.5 -204.5t-54.5 -222.5t-19 -204q0 -76 14 -121.5t36 -65.5t45 -20q38 0 75 37t69 92.5t57.5 114t40.5 104.5q7 26 15 45q34 49 120 59q18 2 35 2q61 0 104 -29q-26 -105 -49 -228q-19 -100 -51 -257q60 27 144 66q105 48 190 85 q-77 -48 -175 -103t-169 -93q-31 -142 -71 -276q-26 -87 -61.5 -174t-86.5 -161q-56 -83 -137 -134t-197 -51q-82 0 -135.5 57t-53.5 152q0 136 123 267.5t371 252.5q18 90 35 224l6 46q-34 -59 -80.5 -121t-106.5 -106t-133 -44q-223 5 -223 407zM75 -420q0 -42 16.5 -68 t54.5 -26q56 0 102 52t81 127q36 77 60.5 152t35.5 122q11 45 22 91q-66 -35 -131 -81t-119.5 -102.5t-88 -123.5t-33.5 -143z" />
<glyph unicode="H" horiz-adv-x="1212" d="M-60 93q0 249 249 405q48 30 101 54q104 387 192 675q1 1 1 2q2 7 5 17t3 20t-5.5 17t-20.5 7q-64 0 -125 -47.5t-110 -120.5t-78 -153t-29 -144q0 -66 24.5 -123.5t81.5 -95.5q-3 -1 -5 -2q-22 -11 -42.5 -18t-55.5 -7q-56 0 -91 28t-52 69.5t-17 80.5q0 122 62 240.5 t162 214t218 153t230 57.5q52 0 77 -21t32 -53q4 -18 4 -37q0 -16 -3 -33q-5 -38 -17 -72q-90 -280 -169 -579q92 13 194 13q37 0 75 -2q53 207 113 405.5t94 298.5q76 32 150 32q33 0 59 -8t40 -25q-31 -88 -100.5 -320t-132 -477t-62.5 -346q0 -16 4 -31t20 -15 q25 0 63 50t77 120t70 136t45 103q0 -19 -20.5 -84t-56.5 -148.5t-83 -163t-101.5 -132.5t-109.5 -53q-63 0 -96 29t-45 70.5t-12 76.5q0 70 18.5 166.5t35.5 169.5q-124 32 -232 32q-15 0 -31 -1q-171 -625 -437 -625q-77 0 -119 54.5t-42 140.5zM55 113q1 -86 40 -88 q65 0 169 415q-203 -132 -209 -327z" />
<glyph unicode="I" horiz-adv-x="686" d="M-40 757q0 122 62 240.5t162 214t218 153t230 57.5q52 0 77.5 -21t31.5 -53q4 -18 4 -37q0 -16 -3 -33q-5 -38 -16 -72q-44 -132 -102 -323q-50 -163 -104.5 -417t-54.5 -462q-45 -45 -127 -57q-19 -3 -36 -3q-57 0 -96 28q0 215 85 587q36 156 81 316q57 202 85 291.5 t28 99.5t-5.5 17t-20.5 7q-64 0 -125 -47.5t-109.5 -120.5t-78 -153t-29.5 -144q0 -66 25 -123.5t81 -95.5q-3 -1 -5 -2q-22 -11 -42.5 -18t-55.5 -7q-56 0 -91 28t-52 69.5t-17 80.5z" />
<glyph unicode="J" horiz-adv-x="930" d="M-40 -423q0 136 123 267.5t371 252.5q43 201 78 400q33 184 71.5 366t70.5 287.5t32 115.5t-5.5 17t-19.5 7q-64 0 -125 -47.5t-110 -120.5t-78 -153t-29 -144q0 -66 24.5 -123.5t81.5 -95.5l-6 -2q-21 -11 -42 -18t-55 -7q-56 0 -91.5 28t-52 69.5t-16.5 80.5 q0 122 62 240.5t161.5 214t218 153t230.5 57.5q51 0 76.5 -21t32.5 -53q4 -18 4 -37q0 -16 -3 -33q-6 -38 -17 -72q-63 -195 -106 -382t-81 -381q-23 -114 -48 -234q61 27 141 65q95 44 177 81q-76 -49 -167 -101t-161 -90q-31 -142 -71 -276q-26 -87 -61.5 -174t-86.5 -161 q-56 -83 -137 -134t-196 -51q-83 0 -136.5 57t-53.5 152zM67 -420q0 -42 17 -68t54 -26q56 0 102 52t81 127q36 77 60.5 152t35.5 122q11 45 22 91q-66 -35 -131 -81t-119.5 -102.5t-88 -123.5t-33.5 -143z" />
<glyph unicode="K" horiz-adv-x="1235" d="M-40 757q0 122 62 240.5t162 214t218 153t230 57.5q51 0 76.5 -21t32.5 -53q4 -18 4 -37q0 -16 -3 -33q-5 -38 -17 -72q-4 -12 -9 -28q-35 -106 -96 -300.5t-112.5 -392t-51.5 -294.5q0 -39 15 -39q16 55 53.5 163.5t93.5 245.5q3 8 7 17q-7 33 -12 65q0 34 25.5 62.5 t61.5 49.5l4 2q18 40 39 81q69 140 148 259t163.5 193.5t169.5 74.5q55 0 78.5 -32.5t23.5 -81.5q0 -86 -46 -188t-94 -146q-24 -13 -71 -19q-9 -1 -19 -1q-39 0 -87 20q28 39 44 82q14 35 14 62q0 6 -1 12q-5 31 -39 31q-31 0 -136 -187q-34 -62 -69 -129q13 -52 42 -146 q32 -104 71.5 -216.5t76.5 -193t59 -80.5q25 0 63 50t77 120t70 136t45 103q0 -19 -20.5 -84t-56.5 -148.5t-83.5 -163t-101.5 -132.5t-110 -53q-59 0 -114 67t-101 169.5t-78 216.5q-1 0 -1 1q-93 -224 -138 -416q-34 -19 -75 -28.5t-66 -9.5q-70 0 -111.5 45t-41.5 131 q0 138 44 337t100.5 391.5t97.5 323.5q3 10 6 19q1 1 1 2q2 7 4.5 17t2.5 20t-5.5 17t-19.5 7q-64 0 -125 -47.5t-110 -120.5t-78 -153t-29 -144q0 -66 24.5 -123.5t81.5 -95.5l-6 -2q-21 -11 -41.5 -18t-55.5 -7q-56 0 -91.5 28t-52 69.5t-16.5 80.5z" />
<glyph unicode="L" horiz-adv-x="854" d="M-40 -20q0 28 12.5 73.5t44 84.5t85.5 54q9 2 17 4q34 57 41 150q6 81 6 183v74q0 100 6 203q7 119 31 228.5t75 196t139.5 138t224.5 51.5q89 0 140.5 -35t73.5 -92q21 -54 21 -118v-6q0 -67 -16.5 -134t-42.5 -122q-28 -27 -107 -31h-19q-69 0 -130 25q22 18 47 63.5 t44.5 103.5t26.5 112q2 19 2 36q0 32 -8 55q-13 36 -56 36q-67 0 -106.5 -41.5t-59.5 -113t-26 -163.5t-6 -193q0 -100 -11.5 -206t-47 -206.5t-103.5 -187.5q73 -7 143 -22q43 -9 86 -15.5t85 -6.5q111 0 183.5 55.5t119.5 146.5t79 201q0 -83 -29.5 -183t-84.5 -190.5 t-133 -149t-176 -58.5q-84 0 -155 9t-130 20q-96 18 -166 18q-71 0 -120 -47z" />
<glyph unicode="M" horiz-adv-x="1764" d="M-40 757q0 122 62.5 240.5t162 214t217.5 153t230 57.5q52 0 77.5 -21t31.5 -53q4 -19 4 -40q0 -15 -2 -30q-6 -38 -17 -72q-4 -12 -10 -28q-35 -106 -95.5 -300.5t-112 -392t-51.5 -294.5q0 -39 15 -39q15 55 49 163.5t83.5 245t112.5 277t136 259.5t154 193.5t166 74.5 q38 0 59.5 -13.5t30 -33t8.5 -37.5q0 -65 -136.5 -511t-136.5 -579q0 -39 15 -39q15 55 47.5 155t80 224t106 250t126.5 232.5t142 172.5t151 66q33 0 65 -19t32 -60q0 -103 -115 -472.5t-115 -502.5q0 -16 4.5 -31t20.5 -15q34 0 100.5 83t126 179t79.5 147 q0 -19 -25.5 -84t-69.5 -148.5t-98.5 -163t-114 -132.5t-115.5 -53q-71 0 -106 48.5t-43 128.5q-3 30 -3 62q0 55 8 117q12 99 36.5 202t53.5 195.5t54.5 161t40.5 98.5q-32 0 -93 -110.5t-129.5 -272t-126.5 -324.5t-88 -277q-67 -29 -120 -29h-3q-104 3 -136 100 q-21 64 -21 150q0 46 6 98q16 150 57 310t84 287t64 179q-31 0 -123 -187.5t-186.5 -437.5t-144.5 -461q-34 -19 -74.5 -28.5t-66.5 -9.5q-69 0 -110.5 45t-41.5 131q0 138 44 337t100 391.5t98 323.5q3 10 6 19v2q3 7 5.5 17t2.5 20t-5.5 17t-20.5 7q-63 0 -124.5 -47.5 t-110 -120.5t-78 -153t-29.5 -144q0 -66 25 -123.5t81 -95.5q-2 -1 -5 -2q-21 -11 -42 -18t-56 -7q-55 0 -90.5 28t-52.5 69.5t-17 80.5z" />
<glyph unicode="N" horiz-adv-x="1260" d="M-40 757q0 122 62 240.5t162 214t218 153t230 57.5q52 0 77.5 -21t31.5 -53q4 -19 4 -40q0 -15 -2 -30q-6 -38 -17 -72q-4 -12 -10 -28q-35 -106 -95.5 -300.5t-112 -392t-51.5 -294.5v-4q0 -35 15 -35q15 55 49 163.5t83.5 245t112.5 277t136 259.5t154 193.5t166 74.5 q42 0 62 -12t26.5 -30t6.5 -36q0 -77 -26.5 -189t-64.5 -238q-58 -203 -102.5 -391t-44.5 -271q0 -16 4 -31t20 -15q34 0 100.5 83t126 179t79.5 147q0 -19 -25.5 -84t-69.5 -148.5t-98.5 -163t-114 -132.5t-115.5 -53q-62 0 -95 29t-45 70.5t-12 76.5q0 196 57 455t134 493 q-31 0 -123 -187.5t-186.5 -437.5t-144.5 -461q-34 -19 -74.5 -28.5t-66.5 -9.5q-70 0 -111 45t-41 131q0 138 44 337t100 391.5t98 323.5q3 10 6 19v2q3 7 5.5 17t2.5 20t-5.5 17t-20.5 7q-64 0 -125 -47.5t-109.5 -120.5t-78 -153t-29.5 -144q0 -66 25 -123.5t81 -95.5 q-3 -1 -5 -2q-22 -11 -42.5 -18t-55.5 -7q-56 0 -91 28t-52 69.5t-17 80.5z" />
<glyph unicode="O" horiz-adv-x="994" d="M-40 430q0 140 24 266t58 229.5t66 176.5t50 108q34 19 78 26q34 5 67 5h18q18 49 53.5 89.5t93 65.5t141.5 25q103 0 176 -61.5t112 -165.5t39 -231q0 -102 -17 -213q143 2 338 45q-193 -70 -346 -87q-27 -138 -82.5 -267t-136.5 -233t-185.5 -166t-230.5 -62 q-112 0 -181.5 60.5t-102 162.5t-32.5 227zM220 443q0 -81 18 -150.5t57.5 -112.5t104.5 -43q63 0 117.5 48.5t97.5 129t74 181t47 206.5q-183 14 -284 91t-134 185q-45 -131 -71.5 -265.5t-26.5 -269.5zM427 1065q0 -65 31.5 -127t101.5 -108.5t184 -67.5q8 86 8 164 q0 114 -23 182.5t-59 98.5t-77 30t-79.5 -17.5t-62.5 -55.5t-24 -99z" />
<glyph unicode="P" horiz-adv-x="1148" d="M-40 774q0 81 30 173q36 107 117.5 207t211.5 171q77 40 182.5 65.5t211.5 25.5q154 0 247 -51.5t134.5 -137t41.5 -186.5q0 -166 -70 -313.5t-181.5 -239t-235.5 -91.5q-59 0 -125 21q-5 1 -10 3q-46 -249 -46 -418q-45 -45 -127 -57q-19 -3 -36 -3q-57 0 -96 28 q0 231 98 620t98 535q45 45 127 57q19 3 36 3q57 0 96 -28q0 -76 -98 -492q-21 -89 -37 -171h27q78 0 151.5 68.5t121.5 186t48 264.5q0 78 -26 143.5t-85.5 105t-158.5 39.5q-128 0 -227.5 -59.5t-162.5 -151.5t-85 -194q-10 -47 -10 -91q0 -52 14 -101q25 -90 105 -144 q-3 -1 -6 -3q-21 -11 -42 -17.5t-55 -6.5q-81 0 -126 59t-51 153q-1 14 -1 28z" />
<glyph unicode="Q" horiz-adv-x="1061" d="M-40 -304q0 54 25 105.5t69 85t102 33.5q64 21 118 61q-94 6 -155 60q-70 60 -102.5 162t-32.5 227q0 135 22.5 256t54.5 221t63.5 174.5t53.5 118.5l4 10q34 21 78 27q32 5 61 5q12 0 24 -1q18 49 53.5 89.5t93 65.5t142.5 25q102 0 175 -61.5t112 -165.5t39 -231 q0 -123 -25.5 -259t-78 -264.5t-131.5 -232t-185 -165.5q-79 -46 -173 -58q-37 -34 -75 -68q77 -8 151 -21q49 -8 95 -14.5t86 -6.5q104 0 182.5 46t136 120.5t98 163.5t68.5 177t47 161q3 10 5 19q0 -55 -17.5 -140t-51.5 -182.5t-83.5 -193t-114 -174.5t-142.5 -127 t-169 -48q-81 0 -155 8.5t-139 19.5q-106 18 -186 18h-23q-35 -25 -63.5 -42t-43.5 -17q-5 0 -9 4t-4 9zM245 443q0 -81 18 -150.5t57.5 -112.5t104.5 -43q76 0 134 58.5t99 150.5t67.5 199t38.5 208t12 173q0 114 -22.5 182.5t-59 98.5t-77.5 30t-79 -17.5t-62.5 -55.5 t-24.5 -99q0 -124 45.5 -207.5t114.5 -129.5q-112 35 -177.5 101.5t-91.5 148.5q-45 -131 -71 -265.5t-26 -269.5z" />
<glyph unicode="R" horiz-adv-x="1124" d="M-40 773q0 81 31 174q35 107 116.5 207t211.5 171q77 40 182.5 65.5t211.5 25.5q154 0 247 -51.5t134.5 -137t41.5 -186.5q0 -135 -40.5 -236.5t-90.5 -155.5q-50 -59 -141 -115q-43 -27 -93 -41q14 -103 52 -228q58 -191 122 -191q39 0 120.5 160.5t114 228t44.5 98.5 q0 -19 -20.5 -84t-104 -258t-137.5 -246t-110 -53q-139 0 -203 185.5t-88 373.5q1 2 3 3q-19 2 -37 5q-70 -284 -119 -484q-45 -45 -127 -57q-19 -3 -36 -3q-57 0 -96 28q89 223 187 611q69 277 70 436q0 63 -11 108q45 55 163 60q57 0 96 -28q0 -155 -93 -531 q-9 -37 -18 -72h13q78 0 161 63t121.5 156t38.5 240q0 78 -26 143.5t-85.5 105t-158.5 39.5q-128 0 -227.5 -59.5t-162.5 -151.5t-85 -194q-10 -47 -10 -91q0 -52 14 -101q26 -90 105 -144q-3 -1 -6 -3q-21 -11 -42 -17.5t-55 -6.5q-80 0 -125.5 59t-51.5 153q-1 13 -1 27z " />
<glyph unicode="S" horiz-adv-x="773" d="M-40 214q0 126 98 247.5t268 175.5q-41 67 -95 149q-102 154 -102 315q0 134 96.5 225.5t260.5 91.5q101 0 164 -41.5t92 -108t29 -140.5q0 -42 -9.5 -80t-28.5 -66q-30 -31 -110 -35q-71 0 -125 50q30 37 50 80q26 57 26 130q0 45 -26.5 75.5t-78.5 30.5t-88 -43.5 t-36 -127.5q0 -131 107 -295q61 -86 116 -190q199 -18 365 -146q-203 83 -341 85q6 -16 14 -40q14 -42 26.5 -102.5t12.5 -130.5q0 -175 -107.5 -297t-296.5 -122q-107 0 -194 83t-87 227zM139 221q0 -75 27.5 -142t103.5 -67q59 0 103 74.5t44 184.5q0 127 -17 192 q-15 58 -40 109q-85 -28 -133 -89t-68 -131t-20 -131z" />
<glyph unicode="T" horiz-adv-x="858" d="M-40 923q0 80 38.5 166t124 160t224 120.5t338.5 46.5q229 0 360 -72q0 -27 -11.5 -72.5t-32 -83.5t-47.5 -48q-47 43 -126 90t-175 64q-71 13 -142 13q-26 0 -51 -2q-96 -5 -177 -41t-131 -108t-50 -189q0 -70 40 -109t97 -39q0 -50 -15.5 -78.5t-39.5 -40.5t-49 -12 q-79 0 -127 68.5t-48 166.5zM263 -29q0 231 98 645t98 560q45 55 163 60q57 0 96 -28q0 -76 -98 -517t-98 -688q-45 -45 -127 -57q-19 -3 -36 -3q-57 0 -96 28z" />
<glyph unicode="U" horiz-adv-x="1192" d="M-40 757q0 122 62.5 240.5t162 214t217.5 153t230 57.5q39 0 65.5 -15.5t42.5 -34.5t23 -31q-32 -88 -101.5 -320t-132 -477t-62.5 -346q0 -16 4.5 -31t20.5 -15q32 0 91 103t129.5 259t138.5 324t119.5 304.5t72.5 199.5q76 32 150 32q33 0 59 -8t40 -25 q-32 -88 -101.5 -320t-131.5 -477t-62 -346q0 -16 4 -31t20 -15q25 0 63 50t77 120t70 136t45 103q0 -19 -20.5 -84t-56.5 -148.5t-83.5 -163t-101.5 -132.5t-110 -53q-62 0 -95 29t-45 70.5t-12 76.5q0 63 20 171t51 239q-45 -114 -97 -218.5t-109.5 -187t-118.5 -131.5 t-123 -49t-95 29t-45 70.5t-12 76.5q0 110 55 342.5t120.5 462t105.5 352.5q-95 0 -184 -76.5t-146 -189.5t-57 -222q0 -66 25 -123.5t81 -95.5q-3 -1 -5 -2q-21 -11 -42 -18t-56 -7q-55 0 -90.5 28t-52.5 69.5t-17 80.5z" />
<glyph unicode="V" horiz-adv-x="1160" d="M-40 757q0 122 62 240.5t161.5 214t218 153t230.5 57.5q38 0 65 -15.5t43 -34.5t22 -31q-29 -88 -67.5 -320t-68.5 -477t-30 -346q0 -16 4.5 -31t19.5 -15q46 0 144.5 189t174.5 431q-71 38 -101.5 108.5t-30.5 153.5q0 98 31.5 193.5t80 159t98.5 63.5q58 0 89.5 -35 t42.5 -90q11 -50 11 -107v-9q-3 -167 -92 -436q46 -7 93 -7q93 0 193 29q-86 -59 -221 -59q-36 0 -76 4q-47 -137 -109 -269q-63 -135 -136 -245.5t-151.5 -178t-156.5 -67.5q-63 0 -96 29t-45 70.5t-12 76.5q0 110 22.5 342.5t57.5 462t72 352.5q-95 0 -183.5 -76.5 t-145.5 -189.5t-57 -222q0 -66 24.5 -123.5t81.5 -95.5l-6 -2q-21 -11 -42 -18t-55 -7q-56 0 -91.5 28t-52 69.5t-16.5 80.5zM863 1009q0 -55 20 -106t69 -86q55 189 55 335q0 40 -6 70t-28 30q-35 0 -72.5 -76t-37.5 -167z" />
<glyph unicode="W" horiz-adv-x="1655" d="M-40 757q0 122 62 240.5t162 214t218 153t230 57.5q39 0 65.5 -15.5t42.5 -34.5t22 -31q-29 -88 -67.5 -320t-68.5 -477t-30 -346q0 -16 4.5 -31t20.5 -15q30 0 63 66t66.5 171t65 228t60.5 241q51 219 85 319q46 119 121 119h5q1 0 2 1q5 1 10 1q23 0 47 -11 q30 -12 64 -71q-14 -40 -31 -125q-45 -222 -74.5 -494.5t-29.5 -398.5q0 -16 4.5 -31t20.5 -15q46 0 144.5 189t173.5 431q-70 38 -101 108.5t-31 153.5q0 98 32 193.5t80 159t98 63.5q59 0 90 -35t43 -90q11 -50 11 -107v-9q-4 -167 -92 -436q37 -5 77 -5q93 1 198 27 q-92 -59 -224 -59q-30 0 -63 3q-46 -137 -108 -268q-63 -135 -136 -245.5t-152 -178t-157 -67.5q-53 0 -84 29.5t-45.5 77t-16.5 103.5q-1 24 -1 47q0 31 2 61q5 53 10 94q-23 -76 -52.5 -148.5t-69 -132t-94 -95.5t-128.5 -36q-62 0 -95 29t-45.5 70.5t-12.5 76.5 q0 110 23 342.5t57.5 462t72.5 352.5q-95 0 -184 -76.5t-146 -189.5t-57 -222q0 -66 24.5 -123.5t81.5 -95.5q-3 -1 -5 -2q-22 -11 -42.5 -18t-55.5 -7q-56 0 -91 28t-52 69.5t-17 80.5zM1343 1009q0 -55 20 -106t68 -86q56 189 56 335q0 40 -6 70t-28 30q-35 0 -72.5 -76 t-37.5 -167z" />
<glyph unicode="X" horiz-adv-x="1225" d="M-40 53q0 31 27.5 74.5t76.5 95.5q72 77 175 169q73 65 154 135q23 20 47 40q56 48 113 98q1 92 9 182q11 140 29 254q25 149 45 212q-111 -4 -208 -97q-79 -76 -129 -181q-49 -104 -50 -210q0 -65 24 -121q24 -59 82 -98q-23 -12 -45.5 -19.5t-57.5 -7.5 q-46 0 -78.5 20.5t-51.5 51.5q-30 54 -30 106q0 73 23.5 145.5t64.5 140.5q81 131 204 227q94 74 198 115q94 37 182 37q39 0 66.5 -15t43.5 -34t21 -32q-12 -32 -23 -88q-14 -69 -26 -161q-11 -83 -19 -177q97 93 173.5 182.5t121 172t44.5 152.5q86 0 122.5 -21t36.5 -59 q0 -56 -52.5 -125t-140 -150t-195.5 -173q-57 -49 -117 -101q-3 -66 -3 -129q0 -51 2 -100q5 -124 26 -222q18 -87 51.5 -138.5t85.5 -51.5q19 0 47 31.5t59 81.5q48 79 89.5 164.5t59.5 131.5q0 -24 -32.5 -118.5t-86.5 -202.5q-35 -68 -76 -127t-86 -96t-91 -37 q-98 0 -160.5 61.5t-97.5 164.5q-30 89 -42 197q-9 74 -11 151q-86 -79 -162 -155q-84 -86 -148 -166q-58 -73 -90 -138q-32 -63 -32 -115q-75 0 -114 15q-48 19 -48 58z" />
<glyph unicode="Y" horiz-adv-x="1224" d="M-40 757q0 122 62 240.5t162 214t218 153t230 57.5q39 0 65.5 -15.5t42.5 -34.5t22 -31q-30 -86 -91 -280t-114.5 -400.5t-53.5 -307.5q0 -16 4 -31t20 -15q38 0 96.5 90t123.5 226t126 282t106.5 264.5t63.5 172.5q76 32 150 32q32 0 58.5 -8t40.5 -25 q-106 -301 -171 -565.5t-128 -566.5q85 37 273 120q-30 -46 -284 -174q-30 -137 -69 -267q-26 -87 -61.5 -174t-86.5 -161q-56 -83 -137 -134t-197 -51q-82 0 -135.5 57t-53.5 152q0 136 123 267.5t371 252.5q39 180 69 328q30 144 59 275q-42 -106 -93 -206.5t-109 -181.5 t-121.5 -129t-129.5 -48q-63 0 -96 29t-45 70.5t-12 76.5q0 110 46 303.5t103 386t97 312.5q-95 0 -184 -76.5t-146 -189.5t-57 -222q0 -66 25 -123.5t81 -95.5q-3 -1 -5 -2q-22 -11 -42.5 -18t-55.5 -7q-56 0 -91 28t-52 69.5t-17 80.5zM349 -420q0 -42 16.5 -68t54.5 -26 q56 0 102 52t81 127q36 77 60 152t36 122q11 45 21 91q-65 -35 -130 -81t-119.5 -102.5t-88 -123.5t-33.5 -143z" />
<glyph unicode="Z" horiz-adv-x="881" d="M-40 -20q0 28 13 73.5t44 84.5t85 54q13 3 25 5q40 51 66.5 122t50.5 156q27 99 67.5 207t111 216t187.5 207q-64 -7 -128 -7q-104 0 -207 19h-3q-21 0 -74 -79q-57 -86 -113 -296q-21 43 -21 110q0 90 33.5 201t90 199.5t126.5 121.5q37 -69 115 -105t174 -45 q39 -4 78 -4q55 0 109 8q50 25 92.5 34t98.5 12q0 -38 -27.5 -70.5t-94.5 -51.5q-81 -68 -127.5 -161t-84.5 -202q-47 -142 -129 -293.5t-254 -294.5q67 -8 131 -21q90 -21 177 -22q122 4 194 57.5t114 143.5t74 202q0 -83 -34.5 -183t-93.5 -190.5t-135 -149t-160 -58.5 q-83 0 -154 9t-131 20q-96 18 -166 18t-120 -47z" />
<glyph unicode="[" horiz-adv-x="558" d="M-16 -220l412 1732q15 76 72 76h347q-26 -152 -87 -152h-174l-361 -1580h220q-28 -152 -104 -152h-253q-72 11 -72 72v4z" />
<glyph unicode="\" horiz-adv-x="574" d="M-34 1352q15 21 55 24q8 1 16 1q37 0 72 -12q87 -197 180 -413q215 -497 419 -947q-15 -21 -55 -24q-10 -1 -20 -1q-35 0 -68 11q-87 198 -180 413q-215 497 -419 948z" />
<glyph unicode="]" horiz-adv-x="504" d="M-230 -296q26 152 87 152h174l361 1580h-220q28 152 104 152h253q72 -11 72 -72v-4l-412 -1732q-15 -76 -72 -76h-347z" />
<glyph unicode="^" horiz-adv-x="544" d="M33 549q11 26 42 93q35 75 78.5 173t78 193t39.5 154q11 7 26 7q76 -2 111 -52q-4 -47 -4 -92q0 -55 7 -106q14 -93 36 -168.5t42 -130.5q13 -36 28 -98q-2 -30 -143 -47q0 42 -6.5 117.5t-19 149t-28.5 110.5q-111 -277 -138 -320q-12 -23 -12 -28v-1q-12 -7 -26 -7 q-74 0 -111 53z" />
<glyph unicode="_" horiz-adv-x="1080" d="M30 -247q0 13 4 28q11 44 39 80q178 0 386 0.5t356 1t164 0.5q8 -12 8 -30q0 -13 -4 -30q-11 -44 -38 -80q-58 0 -203 -0.5t-304.5 -0.5t-275 -0.5t-123.5 -0.5q-9 13 -9 32z" />
<glyph unicode="`" horiz-adv-x="390" d="M30 1178q0 25 19.5 45t51.5 20q54 0 100 -44t80.5 -104t54.5 -113t24 -74q-145 36 -237.5 118t-92.5 152z" />
<glyph unicode="a" horiz-adv-x="820" d="M-40 156q0 36 8.5 105t26.5 153q23 109 62 212q34 89 82 149q26 33 56.5 52t65.5 19q65 0 124 -31.5t103 -81.5q1 4 4 13.5t7 20.5q16 45 62 62t103 17q33 0 59 -8t40 -24q-17 -47 -38 -113q-27 -83 -54 -178q-28 -99 -45 -190q-15 -79 -15 -135q0 -16 4 -31t20 -15 q18 0 43.5 28t54.5 72q50 80 94 170.5t63 138.5q0 -25 -35 -125.5t-94 -213.5q-34 -65 -73.5 -119.5t-82.5 -88.5t-87 -34q-62 0 -95 29.5t-45 70.5t-12 76q0 63 14 147q-26 -70 -62 -136q-45 -85 -102 -139q-49 -48 -103 -48q-39 0 -66 13t-44 33q-25 31 -34 67.5t-9 62.5z M206 203q0 -18 4 -34.5t19 -16.5q19 0 45 39.5t54 101.5q40 90 76 188q49 137 66 194q-47 68 -88 68q-34 0 -63 -59q-36 -71 -61 -177q-19 -73 -31 -142q-21 -130 -21 -162z" />
<glyph unicode="b" horiz-adv-x="746" d="M-40 188q0 112 52 340.5t116 451.5t107 329q34 49 120 59q19 2 35 2q63 0 104 -29q-45 -106 -112.5 -329t-122 -448t-60.5 -354q0 -27 4 -52q5 -27 17 -44.5t33 -17.5q28 0 61.5 55t63 137.5t48.5 168.5q-58 35 -86 92q-23 49 -23 100t27 103q22 41 63 67q40 27 96 27 q38 0 71 -12q38 -13 65 -42q21 -24 33 -58q11 -32 11 -74q0 -53 -10 -107q-10 -57 -23 -99q48 3 90 17q78 26 106 90q0 -40 -27.5 -69t-72.5 -46q-48 -19 -107 -24q-30 -93 -83 -186q-67 -119 -179 -194q-46 -29 -100 -45.5t-117 -16.5q-125 0 -171 81q-29 49 -29 127z M383 632q0 -27 9 -57q12 -44 44 -69q5 28 7 54q4 29 4 53q0 10 -2 24t-7 27q-7 20 -26 20q-12 0 -20 -12q-9 -15 -9 -40z" />
<glyph unicode="c" horiz-adv-x="590" d="M-40 257q0 75 32 211q29 119 83 224q42 80 113 122q54 32 128 32q87 0 156 -48q73 -52 73 -145q0 -50 -25 -113q-17 -15 -65 -18q-52 0 -89 15q19 51 30 101q9 42 9 73v11q-1 34 -18 36q-44 -4 -81 -83q-43 -92 -70 -209q-31 -143 -31 -191q0 -65 17 -99q23 -46 64 -46 q42 0 82 19.5t77 53.5q80 74 137 176t78 182q0 -55 -30 -132t-86 -175q-61 -109 -148 -189t-202 -85q-98 0 -169 73q-30 33 -49 88q-16 49 -16 116z" />
<glyph unicode="d" horiz-adv-x="818" d="M-40 156q0 39 10 115t30 166q33 150 96 272q32 62 73.5 99.5t91.5 37.5q65 0 123.5 -31.5t102.5 -81.5q52 196 101.5 363.5t75.5 245.5q77 32 150 32q33 0 59.5 -8t39.5 -25q-19 -53 -57.5 -176.5t-83.5 -280.5q-72 -251 -121 -467q-33 -149 -33 -219q0 -13 3 -26 q3 -20 21 -20q29 0 74 65q56 80 108 184.5t73 159.5q0 -27 -40 -139.5t-106 -231.5q-54 -98 -119 -159q-52 -51 -106 -51q-36 0 -61.5 10.5t-43.5 27.5q-27 29 -37.5 67t-10.5 71q0 70 21 179q-18 -49 -49 -115q-33 -71 -75 -130q-35 -50 -75 -80t-82 -30q-38 0 -64 11.5 t-43 30.5q-27 31 -36.5 69t-9.5 65zM206 203q0 -17 4 -34q3 -17 19 -17q19 0 47 44t58 111q45 97 82 200q41 113 55 166q-48 70 -89 70q-25 0 -47.5 -33t-41.5 -85q-38 -108 -60 -232q-13 -68 -20 -120t-7 -70z" />
<glyph unicode="e" horiz-adv-x="590" d="M-40 257q0 80 35 226q29 111 80 209q29 54 72 92q66 62 169 62q75 0 141 -37q39 -24 63.5 -63t24.5 -93q0 -64 -34 -128q-29 -55 -76 -93q-58 -48 -130 -48q-45 0 -79 36q-21 -105 -21 -145q0 -60 14 -94q24 -51 67 -51q64 0 120 40q54 37 100 96q40 52 73 112 q52 96 81 183q0 -59 -58 -201q-30 -69 -73 -138q-59 -96 -139 -164q-86 -74 -190 -78h-5q-98 0 -170 73q-30 33 -47.5 83.5t-17.5 120.5zM234 458q20 -16 38 -16q35 0 65 44q30 42 46 97q22 84 22 130v4q0 41 -18 41q-20 0 -38.5 -18.5t-35.5 -50.5q-27 -51 -49 -121 q-17 -55 -30 -110z" />
<glyph unicode="f" horiz-adv-x="398" d="M-89 -345q0 133 28 331q34 250 94 532q46 218 98 419q50 197 98 345q19 47 73 69.5t97 22.5q33 0 59.5 -8t39.5 -25q-45 -127 -85 -255q-58 -183 -107 -367q-60 -226 -109 -457q72 14 128 64q52 46 90 104q45 71 67 131q0 -66 -46 -153q-35 -64 -90 -120 q-47 -48 -105 -81q28 -45 57 -133q23 -72 40 -159q21 -106 21 -211v-10q0 -133 -52 -224q-26 -42 -67 -65.5t-101 -23.5q-85 0 -135 38.5t-71.5 101t-21.5 134.5zM89 -469q0 -13 2.5 -30.5t11.5 -31t29 -13.5q36 0 59.5 61t34.5 153q11 93 11 191q0 102 -13.5 189.5 t-39.5 128.5q-5 -21 -15.5 -83.5t-24.5 -145.5q-18 -113 -34 -223q-21 -145 -21 -196z" />
<glyph unicode="g" horiz-adv-x="817" d="M-118 -423q0 156 163 307q120 110 331 213q17 83 41 233q6 35 12 72q-48 -131 -120 -238q-36 -51 -78.5 -82t-90.5 -31q-34 0 -58.5 10t-41.5 26q-31 31 -41.5 71.5t-10.5 68.5q0 47 13.5 136.5t42.5 187.5q38 132 106 222q28 34 60.5 53.5t71.5 19.5q61 0 116.5 -28 t98.5 -74q7 22 13 37q34 49 120 59q18 2 35 2q62 0 104 -28q-34 -98 -64 -250q-14 -67 -28 -141q-20 -104 -43 -214q84 37 176 77q47 21 97 43q-5 -39 -284 -172q-31 -138 -70 -269q-26 -87 -61.5 -174t-86.5 -161q-56 -82 -137 -133.5t-196 -51.5q-82 0 -136 57t-54 152z M-11 -420q0 -42 17 -68t55 -26q55 0 101 52t81 127q37 77 61 152t35 122q11 45 22 91q-72 -38 -143 -89.5t-127 -116.5q-46 -53 -74 -114t-28 -130zM233 274q0 -18 4.5 -34.5t19.5 -16.5q20 0 47.5 41.5t56.5 104.5q40 85 73 173q39 104 49 144q-44 57 -81 57 q-25 0 -47.5 -29t-40.5 -76q-30 -77 -50 -167q-15 -68 -23 -122.5t-8 -74.5z" />
<glyph unicode="h" horiz-adv-x="868" d="M-40 156q0 92 22 225q39 239 110 507q37 141 74 264q33 108 60 190q77 32 150 32q33 0 59.5 -8t39.5 -25q-43 -121 -82 -243q-46 -143 -86 -287q-30 -109 -56 -220q-17 -72 -30 -137q-36 -171 -36 -247q0 -18 6 -36.5t12 -18.5q31 109 71 210q40 104 88 195q46 86 96 154 q47 67 108 109q44 30 99 30q41 0 75 -23q16 -12 25.5 -32.5t9.5 -49.5t-31 -127q-4 -11 -7 -22q-34 -109 -61 -239q-17 -85 -17 -159q0 -16 4 -31t20 -15q27 0 65.5 44.5t78.5 112.5q76 129 111 252q0 -36 -35 -145.5t-96 -223.5q-32 -58 -70 -106t-81 -77t-90 -29 q-37 0 -63 11.5t-44 29.5q-26 29 -35.5 66t-9.5 69q0 97 24 209q33 152 86 281q-41 -31 -88 -119q-49 -92 -96 -209q-71 -181 -104 -308q-32 -17 -65.5 -23.5t-57.5 -6.5q-44 0 -72.5 14t-45.5 37q-21 28 -28 62t-7 63z" />
<glyph unicode="i" horiz-adv-x="414" d="M-40 156q0 87 26 211t60 244t62 203q77 32 150 32q33 0 59.5 -8t39.5 -24q-27 -75 -62 -189t-62.5 -231.5t-27.5 -195.5q0 -16 4 -31t20 -15q34 0 86.5 75t99.5 169.5t69 164.5q0 -21 -18.5 -86t-51.5 -148t-79.5 -162t-102.5 -132t-119 -53t-96 29.5t-45 70.5t-12 76z M196 1118q0 10 1 21q10 60 53 95q37 30 84 30q8 0 16 -1q57 -10 88 -55q26 -38 26 -85q0 -10 -1 -21q-10 -61 -53 -96q-36 -29 -81 -29q-9 0 -19 1q-56 9 -88 55q-26 37 -26 85z" />
<glyph unicode="j" horiz-adv-x="421" d="M-456 -485q0 65 28 117.5t73 96t99 80t108 68.5q35 22 68 43l23 118q47 259 90.5 475t62.5 268q34 49 120 59q19 2 36 2q62 0 103 -28q-51 -146 -97 -356t-86 -416q115 102 191 240t128 279q0 -84 -50.5 -198t-126.5 -219.5t-156 -172.5q-15 -76 -36 -158t-52.5 -158.5 t-79 -138.5t-116 -99t-163.5 -37q-41 0 -79.5 13.5t-63 43t-24.5 78.5zM-338 -447q0 -25 10.5 -46.5t41.5 -21.5q41 0 72 40t54 98t38 116.5t24 99.5l3 15q-12 -9 -26 -19q-48 -34 -98 -76t-84.5 -93t-34.5 -113zM151 1115q0 12 2 24q9 60 53 95q37 30 84 30q8 0 16 -1 q56 -10 88 -55q26 -38 26 -85q0 -10 -1 -21q-10 -61 -53 -96q-37 -29 -82 -29q-9 0 -18 1q-57 9 -89 55q-26 36 -26 82z" />
<glyph unicode="k" horiz-adv-x="827" d="M-40 156q0 133 48.5 359t111.5 451.5t114 375.5q76 32 150 32q33 0 59 -8t40 -25q-48 -136 -117 -366t-124.5 -453t-55.5 -315q2 -55 18 -55q91 322 240 538q28 42 61.5 78.5t73 59t86.5 22.5q42 0 74 -22q22 -16 31 -47q4 -14 4 -32q0 -28 -10 -64q-46 0 -96.5 -14 t-103.5 -50.5t-106 -102.5q21 -56 63 -141.5t87 -155t84 -69.5q54 0 205 409q0 -93 -99 -335t-232 -246q-57 1 -103 54t-79 125.5t-53 134.5q-51 -117 -95 -284q-67 -30 -120 -30q-74 0 -114 43q-42 43 -42 133z" />
<glyph unicode="l" horiz-adv-x="430" d="M-40 156q0 115 59.5 363t128 483.5t103.5 339.5q76 32 150 32q33 0 59 -8t40 -25q-31 -88 -100.5 -320t-132 -477t-62.5 -346q1 -46 24 -46q25 0 63 50t77 120t70 136t45 103q0 -19 -20.5 -84t-56.5 -148.5t-83 -162.5t-101.5 -132.5t-109.5 -53.5q-83 0 -121 60 q-32 51 -32 116z" />
<glyph unicode="m" horiz-adv-x="1276" d="M-40 156q0 98 37 280.5t103 348.5q34 59 155 61q62 0 104 -29q-24 -40 -64 -162t-73.5 -258t-33.5 -205q0 -40 15 -40q15 55 41.5 141t64.5 182t87 181t110 139.5t133 54.5q48 0 79 -25q31 -24 31 -76q0 -38 -49 -192q-85 -278 -85 -358q0 -47 22 -47q16 55 42 141 q22 74 53 154q49 124 98.5 209t110 139.5t132.5 54.5q48 0 83 -28q28 -24 28 -73q0 -32 -34 -138q-83 -271 -83 -413q0 -16 4 -31t20 -15q25 0 63 50t77 120t70 136t45 103q0 -19 -20.5 -84t-56.5 -148.5t-83.5 -162.5t-101.5 -132.5t-110 -53.5q-62 0 -95 29.5t-45 70.5 t-12 76q0 115 32 247t78 243q-48 -39 -99 -155q-23 -52 -45 -107q-26 -69 -50 -144q-44 -135 -68 -230q-67 -30 -120 -30q-73 0 -114.5 45.5t-41.5 130.5q0 111 30.5 247.5t73.5 242.5q-49 -39 -100 -155t-94.5 -251t-67.5 -230q-68 -30 -121 -30q-72 0 -113.5 45t-41.5 131 z" />
<glyph unicode="n" horiz-adv-x="868" d="M-40 156q0 98 37 280.5t103 348.5q34 59 155 61q62 0 104 -29q-59 -100 -116 -295t-61 -307q2 -63 21 -63q16 55 45 141t77 196q40 88 90 167q53 85 116 139.5t134 54.5q43 0 77 -23.5t34 -78.5q0 -39 -40 -167q-78 -260 -78 -383q2 -46 25 -46q25 0 62.5 50t76.5 120 t70.5 136t45.5 103q0 -19 -21 -84t-57 -148.5t-83 -162.5t-101 -132.5t-110 -53.5q-73 0 -113 50q-39 48 -39 126q0 169 110 490q-49 -39 -106 -155q-23 -46 -45 -94q-32 -75 -62 -157q-50 -135 -75 -230q-67 -30 -120 -30q-73 0 -117 48q-39 45 -39 128z" />
<glyph unicode="o" horiz-adv-x="662" d="M-40 257q0 92 25.5 187.5t61.5 182.5q25 38 87 52q21 93 81.5 139t148.5 46q100 0 154 -81.5t54 -233.5q0 -59 -9 -122q59 10 102.5 43t66.5 91q0 -68 -48 -108t-125 -55q-19 -106 -67 -200q-48 -96 -122 -157t-170 -61q-84 0 -137 41.5t-78 105.5t-25 130zM205 300 q0 -24 4.5 -63.5t21 -71t51.5 -31.5q37 0 68 38t54 98q22 59 34 126q-121 14 -211 74q-22 -87 -22 -170zM239 685q41 -6 67 -26q-35 -55 -58 -118q62 -93 194 -113q9 69 9 129q0 71 -25 128t-88 57q-29 0 -52.5 -11.5t-46.5 -45.5z" />
<glyph unicode="p" horiz-adv-x="793" d="M-215 -548q56 267 167 716q101 408 156 663q33 14 84 16h7q48 0 84 -13q35 -13 35 -44q0 -4 -1 -8q-14 -78 -35 -172q55 117 127 178.5t169 61.5q55 0 85.5 -42.5t38.5 -112.5q4 -31 4 -66q0 -43 -6 -90q99 26 180 30q20 0 23 -8q-147 -30 -208 -54q-5 -31 -13 -63 l-7 -28q-31 -113 -86 -213.5t-131 -165.5t-168 -65q-55 0 -85.5 21t-30.5 66q0 29 9 57t23 54q81 149 206 240q21 70 32 128.5t11 86.5q0 27 -8.5 43.5t-30.5 16.5q-43 0 -87.5 -77.5t-86 -201t-77.5 -266.5t-63 -278.5t-42.5 -238t-15.5 -138.5q-34 -49 -120 -59 q-19 -2 -36 -2q-62 0 -103 28zM225 87q0 -9 7 -9q25 0 53.5 40t56 102.5t51.5 133.5q-26 -24 -65 -72.5t-71 -102t-32 -89.5v-3z" />
<glyph unicode="q" horiz-adv-x="777" d="M-40 156q0 88 35 245.5t91 313.5q11 31 31 60.5t55 50t89 20.5q49 0 109.5 -25.5t111.5 -69.5q7 18 13 34q34 49 120 59q18 2 35 2q62 0 104 -29q-50 -85 -88.5 -246t-64.5 -298q-9 -47 -16 -82q117 49 187.5 152t104.5 218q0 -101 -74.5 -225.5t-180.5 -202.5 q56 -82 97 -187t46 -213v-19q0 -97 -47 -180q-51 -80 -134 -88q-11 -1 -22 -1q-72 0 -139 39q-83 46 -113 117q-17 53 -17 118q0 83 18.5 233t50.5 319q-34 -76 -74 -142t-84 -107.5t-91 -41.5q-69 0 -111 44t-42 132zM208 206q1 -19 5.5 -36.5t15.5 -17.5q23 0 57.5 70 t70.5 165.5t65 182t41 125.5q-40 45 -81 48q-32 -2 -48 -27t-25 -53q-63 -182 -101 -431v-26zM497 -366q0 -40 7 -69.5t26 -40.5q4 -2 9 -2q30 0 59 88q35 101 35 249q0 145 -62 269q0 -3 -1 -7q-21 -97 -47 -241t-26 -246z" />
<glyph unicode="r" horiz-adv-x="734" d="M-40 156q0 98 37 280.5t104 348.5q33 49 119 59q18 2 35 2q62 0 105 -29q-28 -45 -66.5 -169t-69.5 -259t-31 -199v-6q0 -32 10 -32q10 36 23 88q16 67 38.5 148t52 162t70 154t90.5 114.5t113 41.5q44 0 77.5 -24.5t33.5 -83.5q0 -26 -12 -67.5t-26 -82.5 q-15 -42 -26 -81.5t-11 -69.5q1 -43 17 -43q19 0 47.5 31.5t52.5 67.5t31 54q0 -33 -26 -86t-70.5 -94.5t-103.5 -44.5h-4q-53 0 -91 27q-39 27 -39 87q0 40 20.5 121t73.5 170q-37 0 -73.5 -55t-68 -134t-59 -169t-48.5 -173.5t-35 -142.5q-9 -37 -14 -57q-67 -30 -120 -30 h-3q-70 0 -111.5 44.5t-41.5 131.5z" />
<glyph unicode="s" horiz-adv-x="471" d="M-50 39q0 136 140 272q-5 18 -11 36q-19 59 -34 120.5t-15 126.5q0 93 34.5 151.5t87 86t104.5 27.5q59 0 103 -30.5t44 -86.5q0 -41 -17.5 -74t-41.5 -33q14 28 14 62q0 24 -11.5 44.5t-39.5 20.5q-22 0 -39 -18.5t-17 -59.5q0 -63 14 -120t31 -111q173 106 305 108 q-134 -34 -293 -146q13 -43 24 -87q12 -53 12 -110q0 -141 -78 -225.5t-187 -84.5q-59 1 -93 36q-34 31 -36 95zM23 68q2 -70 33 -70t49.5 46t18.5 88q0 64 -18 128q-83 -110 -83 -192z" />
<glyph unicode="t" horiz-adv-x="447" d="M-40 156q0 99 61 352q41 172 86 339q-23 -3 -39 -4q-29 17 -33 60q-1 12 -1 23q0 28 9 50q49 -8 95 -14l12 40q68 242 101 340q76 32 150 32q33 0 59 -8t40 -25q-45 -128 -114 -365l-7 -24q83 4 158 19q-13 -43 -84 -67q-44 -16 -95 -26q-53 -187 -97 -368 q-56 -230 -56 -312q0 -16 4 -31t20 -15q34 0 76.5 50t84.5 120t74 136t46 103q0 -22 -21 -88t-58.5 -148.5t-87.5 -161t-109 -131t-121 -52.5q-63 0 -96 29.5t-45 70.5t-12 76z" />
<glyph unicode="u" horiz-adv-x="824" d="M-40 156q0 73 25.5 207t58.5 261.5t60 192.5q30 43 105 43h10q83 -2 138 -38q-14 -47 -30 -101q-34 -108 -67.5 -233t-51.5 -256v-26q1 -54 21 -54q19 0 63 78q42 75 79 165q40 97 76 202q34 101 56 169l16 48q76 32 150 32q32 0 58.5 -8t40.5 -24q-27 -75 -62.5 -189 t-63 -231.5t-27.5 -195.5q0 -16 4.5 -31t20.5 -15q25 0 62.5 50t76.5 120t70 136t45 103q0 -19 -20.5 -84t-56.5 -148.5t-83 -162.5t-101 -132.5t-110 -53.5q-62 0 -95 29.5t-45.5 70.5t-12.5 76q0 60 14 139q-37 -80 -81 -151.5t-92.5 -117.5t-98.5 -46q-69 0 -110.5 44.5 t-41.5 131.5z" />
<glyph unicode="v" horiz-adv-x="689" d="M-15 329q0 142 24.5 280t52.5 208q31 43 115 43q83 -2 139 -38q-87 -283 -98 -488q-3 -54 -3 -99q0 -124 21 -172q119 192 176 378q-59 59 -59 161q2 107 46.5 194.5t129.5 87.5q62 0 94 -30.5t32 -94.5q0 -165 -83 -342q44 1 93 30q77 49 104 114q0 -48 -44 -93.5 t-105 -70.5q-33 -13 -66 -15q-98 -192 -294 -397q-29 -7 -57 -7q-51 0 -93 17t-61 43q-34 49 -49 126t-15 165zM408 590q0 -63 20 -97q7 26 16 70t18 96t9 84q0 29 -10 29q-14 0 -33.5 -57.5t-19.5 -124.5z" />
<glyph unicode="w" horiz-adv-x="1101" d="M-21 324q0 94 14 188.5t35 174.5t42 130q30 43 115 43q83 -2 138 -38q-109 -283 -128 -484q-8 -80 -8 -138q0 -90 18 -129q76 82 127 216t81.5 277.5t46.5 252.5q30 43 125 43q73 -2 128 -38q-6 -21 -26 -102t-42 -190t-37 -215q-13 -93 -13 -159q1 -89 32 -89 q28 0 91 114q60 110 105 258q-51 61 -51 163q0 110 37 189q24 48 58 69q39 24 74 24q62 0 94 -30.5t32 -94.5q0 -164 -82 -341q43 1 92 29q77 49 104 114q0 -48 -44 -93.5t-105 -70.5q-33 -12 -66 -15q-75 -170 -176 -287t-215 -117q-64 0 -106 40t-62 97q-18 53 -18 114 q-19 -55 -51 -112t-70 -97t-74 -40q-81 0 -128 47.5t-67 125.5t-20 171zM820 590q0 -63 21 -97q6 26 15 70t18 96t9 84q-2 29 -10 29q-14 0 -28.5 -36.5t-19.5 -74t-5 -71.5z" />
<glyph unicode="x" horiz-adv-x="587" d="M-91 56q0 17 3 37q2 5 28 34.5t65 71.5l78 84q-38 158 -40 327q1 124 26 179q34 44 115 49q12 1 24 1q64 0 111 -28q-10 -34 -12 -108v-32q0 -81 8 -174q135 168 160 339q11 4 25 4q6 0 12 -1q21 -1 37.5 -9t16.5 -22q-3 -85 -71 -193.5t-169 -213.5q11 -67 27.5 -126 t41.5 -96t58 -37q29 0 63.5 50t68 121t60 137.5t40.5 104.5l2 6q0 -41 -29.5 -136.5t-80 -199t-113.5 -175.5q-62 -71 -130 -71h-2q-78 7 -132 65.5t-88 148.5q-45 -70 -79 -136.5t-45 -109.5q-37 2 -62 41q-17 27 -17 68z" />
<glyph unicode="y" horiz-adv-x="790" d="M-145 -423q0 156 163 307q120 110 331 213q8 41 19 99q10 58 22 134q6 38 13 76q-26 -57 -55 -114q-52 -100 -112 -169t-123 -72q-65 1 -98 30.5t-44 71t-11 74.5q0 110 42 299t82 291q31 43 115 43q83 -2 139 -38l-30 -100q-29 -90 -55.5 -191.5t-43.5 -227.5v-26 q0 -19 5 -36.5t16 -17.5q22 0 63.5 77.5t84.5 177.5q40 95 83 232q11 44 22 71q27 57 155 61q62 0 104 -28q-48 -145 -92 -391q-15 -77 -31 -156l-12 -58q84 37 176 77q47 21 97 43q-5 -39 -284 -172q-31 -138 -70 -269q-26 -87 -61.5 -174t-86.5 -161q-56 -82 -137 -133.5 t-196 -51.5q-82 0 -136 57t-54 152zM-38 -420q0 -42 17 -68t55 -26q55 0 101 52t81 127q37 77 61 152t35 122q11 45 22 91q-72 -38 -143 -89.5t-127 -116.5q-46 -53 -74 -114t-28 -130z" />
<glyph unicode="z" horiz-adv-x="652" d="M-169 -365q0 78 53.5 149.5t140 139.5t189.5 136q-17 57 -73 110q-36 33 -76 35q-21 0 -31 -7q-10 1 -15 11t-5 25q0 50 35 88q48 54 116.5 116.5t132.5 118.5q53 46 87.5 77.5t34.5 38.5q-55 -24 -91 -30q-23 -4 -57 -4q-20 0 -43 1q-45 3 -88 11q-17 -70 -30 -106 q-27 -12 -54 -12q-23 0 -35 12q14 42 37 127q-18 7 -35 14q0 42 16 105t40 95q7 10 18 16t24 6q29 0 42 -18t13 -46q0 -8 -1 -18q88 -39 193 -39q103 2 153 59q36 0 64.5 -34t28.5 -85q0 -37 -66 -110.5t-143.5 -145t-121.5 -109.5l-37 -34q113 -44 178 -145 q180 100 327 146q-148 -78 -304 -187q52 -106 52 -223q0 -111 -43.5 -196.5t-112.5 -144.5t-149 -89.5t-154 -30.5q-58 0 -106 19.5t-76 58.5t-28 99zM-42 -365q0 -38 21 -56t53 -18q45 0 98 34.5t91.5 101t38.5 161.5q0 68 -20 136q-78 -61 -141.5 -121t-102 -119.5 t-38.5 -118.5z" />
<glyph unicode="{" horiz-adv-x="658" d="M83 600q0 43 32 56q137 2 194 251q37 147 95.5 272t141.5 203t172 78q45 0 77 -19t38 -48q-19 8 -36 8q-63 0 -123 -68.5t-104.5 -196t-73 -309.5t-179.5 -228q117 -48 117 -174q-1 -54 -16.5 -157t-16.5 -205q11 -123 140 -123q-76 -133 -220 -133q-139 0 -147 171 q1 70 30 194.5t34 219.5q-1 125 -155 208z" />
<glyph unicode="|" horiz-adv-x="550" d="M162 -245v1772q0 97 60 124q15 8 32 8h20q63 0 88 -84v-1856q0 -63 -84 -88h-24q-92 14 -92 124z" />
<glyph unicode="}" horiz-adv-x="658" d="M-152 -127q19 -8 36 -8q63 0 123 68.5t104.5 196t73 309.5t179.5 228q-117 49 -117 174q1 55 17 157.5t16 205.5q-11 122 -140 122q76 133 220 133q139 0 147 -171q-1 -70 -29.5 -194t-34.5 -219q1 -125 155 -209q0 -43 -32 -56q-137 -1 -194 -250q-37 -148 -95.5 -273 t-141.5 -203t-172 -78q-45 0 -77 19t-38 48z" />
<glyph unicode="~" horiz-adv-x="1003" d="M30 475q24 143 105 194q74 46 175 46h20q113 -4 234 -27q129 -24 238 -25h3q107 0 168 64q-28 -139 -101 -187q-64 -44 -150 -44q-10 0 -21 1q-100 6 -211 31q-132 31 -253 32h-5q-119 0 -202 -85z" />
<glyph unicode="&#xa1;" horiz-adv-x="619" d="M40 -521q43 121 82 243q46 143 86 287q30 109 56 220q17 72 30 137q18 81 59 108q37 23 89 23q56 -3 75 -26q13 -15 14 -35q0 -14 -2 -26q-4 -24 -9 -50q-39 -207 -97 -428q-37 -141 -74 -264q-33 -108 -60 -190q-77 -32 -150 -32q-33 0 -59.5 8t-39.5 25zM330 691 q0 12 2 24q9 60 53 95q37 30 84 30q33 0 59 -14.5t45 -41.5q26 -38 26 -85q0 -32 -12 -62.5t-42 -54.5q-37 -29 -82 -29q-9 0 -18 1q-57 9 -89 55q-26 36 -26 82z" />
<glyph unicode="&#xa2;" d="M140 257q0 75 32 211q29 119 83 224q42 80 113 122q54 32 128 32q10 0 20 -1q29 146 57 283q32 30 103 30q26 0 40 -13q-36 -168 -73 -341q5 -3 9 -6q73 -52 73 -145q0 -50 -25 -113q-17 -15 -65 -18q-52 0 -89 15q19 51 30 101q9 42 9 73v11q-1 34 -18 36 q-44 -4 -81 -83q-43 -92 -70 -209q-31 -143 -31 -191q0 -65 17 -99q23 -46 64 -46q42 0 82 19.5t77 53.5q80 74 137 176t78 182q0 -55 -30 -132t-86 -175q-61 -109 -148 -189q-44 -41 -95 -62q-33 -161 -64 -314q-41 -30 -101 -30q-27 0 -42 13q33 153 66 310 q-77 11 -135 71q-30 33 -49 88q-16 49 -16 116z" />
<glyph unicode="&#xa3;" horiz-adv-x="978" d="M30 -20q0 28 13 73.5t44 84.5t85 54l18 4q30 52 39 133q7 71 7 163v23q-66 -1 -107.5 -1h-45.5q-8 12 -8 31q0 13 4 29q11 44 38 80h120q1 108 11 217t37 207.5t79 175.5t137 121.5t211 44.5q89 0 140.5 -35t73.5 -91.5t21.5 -124t-17 -134.5t-41.5 -122 q-28 -27 -108 -31h-19q-69 0 -130 25q22 18 47 63.5t45 103.5t27 112q2 19 2 36q0 32 -8 55q-14 36 -57 36q-66 0 -105.5 -41.5t-59.5 -113t-26.5 -163.5t-6.5 -193q0 -72 -5 -148q232 1 254 2q9 -13 9 -32q0 -12 -4 -28q-11 -44 -39 -80q-80 0 -239 -1q-29 -170 -138 -313 q73 -7 143 -22q44 -9 86.5 -15.5t84.5 -6.5q110 0 182 55q0 -113 -50.5 -173t-171.5 -60q-84 0 -155 9t-131 20q-95 18 -166 18q-70 0 -120 -47z" />
<glyph unicode="&#xa4;" horiz-adv-x="846" d="M30 344v6q2 15 15 25l146 110q-1 9 -1 18q0 112 57 227q7 14 16 29l-138 183q-8 12 -8 24v5q3 15 15 26q11 7 24 7h5q15 -2 26 -15l122 -163q36 43 83.5 70t105.5 27q21 0 41 -5q74 -26 98 -97l117 88q11 8 23 8h5q16 -3 26 -15q8 -11 8 -22q0 -4 -1 -7q-2 -15 -15 -26 l-146 -110q1 -16 1 -32q0 -58 -14.5 -126.5t-45.5 -130.5l126 -168q7 -11 7 -23v-5q-2 -16 -15 -26q-10 -8 -22 -8q-3 0 -7 1q-15 2 -25 15l-110 145q-31 -36 -71.5 -58t-91.5 -22q-67 0 -111 27.5t-66 75.5l-117 -89q-11 -7 -24 -7h-5q-15 2 -26 15q-7 11 -7 23zM305 503 q0 -24 7.5 -53.5t25 -50t48.5 -20.5q52 0 88 35t58.5 87.5t33 108t10.5 95.5q0 25 -5 58t-21.5 57t-51.5 24q-53 0 -90 -37t-60 -92t-33 -112.5t-10 -99.5z" />
<glyph unicode="&#xa5;" horiz-adv-x="969" d="M30 406q0 13 4 28q12 44 39 80h178q15 47 30 95q-76 -1 -125.5 -1h-53.5q-9 13 -9 32q0 13 4 28q12 44 39 80h164q-64 148 -85 356q-13 132 -13 220q0 51 4 87q39 9 78 9q23 0 46 -3q62 -7 103 -29q40 -20 40 -46v-3q-1 -13 -1 -53v-46q1 -80 6.5 -176.5t17.5 -169.5 t32 -73q44 0 138.5 178t170.5 412q48 0 78 -27q24 -21 24 -41q0 -4 -1 -9q-65 -174 -151.5 -330.5t-183.5 -254.5q140 0 155 1q8 -12 8 -31q0 -13 -4 -29q-11 -44 -38 -80q-71 0 -208 -1q-13 -47 -25 -95q186 1 204 2q8 -12 8 -31q0 -13 -4 -29q-11 -44 -38 -80h-204 q-31 -129 -62 -264q-18 -76 -36 -156q-68 0 -125.5 38t-84.5 96q0 57 62 285q-73 -1 -120.5 -1h-51.5q-9 13 -9 32z" />
<glyph unicode="&#xa6;" horiz-adv-x="550" d="M162 238q0 42 60 54q15 3 32 3h20q63 0 88 -36v-798q0 -27 -84 -38h-24q-92 6 -92 53v762zM162 555v762q0 42 60 54q15 3 32 3h20q63 0 88 -36v-798q0 -27 -84 -38h-24q-92 6 -92 53z" />
<glyph unicode="&#xa7;" horiz-adv-x="1027" d="M30 -343q0 99 40 191q28 26 108 30h19q68 0 129 -25q-46 -50 -72.5 -125.5t-26.5 -148.5q0 -45 21.5 -75.5t63.5 -30.5q92 0 138 60.5t46 160.5q0 69 -36 135.5t-86 138.5q-45 65 -87.5 138.5t-71.5 161t-29 194.5q0 111 60 196t175 123q-48 68 -82 137.5t-34 152.5 q0 174 109 260.5t297 86.5q101 0 164 -41.5t92.5 -108t29.5 -140.5q0 -98 -41 -190q-28 -26 -107 -30h-19q-69 0 -130 25q46 49 72.5 125t26.5 149q0 45 -21.5 75.5t-63.5 30.5q-92 0 -138 -60.5t-46 -160.5q0 -69 36 -135.5t87 -139.5q44 -64 87 -137.5t71.5 -161 t28.5 -195.5q0 -110 -60 -195t-175 -124q48 -67 82 -136.5t34 -152.5q0 -174 -109 -260.5t-297 -86.5q-101 0 -164 41.5t-92 107.5t-29 140zM414 465q0 -112 35 -198.5t85 -158.5q38 40 58 97.5t20 115.5q0 112 -35 198t-84 159q-39 -40 -59 -97.5t-20 -115.5z" />
<glyph unicode="&#xa8;" horiz-adv-x="611" d="M30 1052q0 10 1 20q9 55 49 88q34 28 78 28q68 -3 97 -52q24 -35 24 -79q0 -10 -1 -20q-10 -56 -49 -89q-34 -27 -76 -27q-8 0 -17 2q-52 8 -82 50q-24 35 -24 79zM332 1052q0 9 1 20q9 55 49 88q34 27 78 27q68 -3 97 -51q24 -35 24 -79q0 -10 -1 -20q-10 -56 -49 -89 q-34 -27 -76 -27q-8 0 -17 1q-52 9 -82 51q-24 35 -24 79z" />
<glyph unicode="&#xa9;" horiz-adv-x="1405" d="M30 492q0 282 93 490t266 322t415 114q113 0 215.5 -34.5t182.5 -103.5t126.5 -171t46.5 -237q0 -130 -24.5 -261.5t-80 -248.5t-147.5 -208.5t-226 -144.5t-317 -53q-142 0 -245.5 45.5t-171 122t-100.5 172t-33 196.5zM108 492q0 -113 48 -219q63 -126 175.5 -182.5 t248.5 -56.5q167 0 311 58t246 196q88 126 124 280.5t36 303.5q0 147 -64 252t-176 161t-253 56q-186 0 -318 -69t-215.5 -187.5t-123 -271.5t-39.5 -321zM391 570q0 106 24.5 206.5t74 181t123.5 128t172 47.5q57 0 109.5 -22t86 -65t33.5 -106q0 -50 -25 -113 q-17 -15 -64 -18h-10q-42 0 -80 15q23 33 33.5 76.5t10.5 79.5q0 28 -5.5 46t-16.5 19q-59 -3 -108.5 -72.5t-81 -175.5t-31.5 -210q0 -62 17.5 -99.5t44.5 -54t58 -16.5q38 0 61 21.5t37 53.5t23 65q38 -35 38 -88q0 -11 -2 -23q-11 -67 -72.5 -121t-171.5 -58h-5 q-75 0 -135 32q-63 32 -100.5 99t-37.5 172z" />
<glyph unicode="&#xaa;" horiz-adv-x="503" d="M-47 650q0 12 2 28q6 44 20 80q89 0 193 0.5t178 1t82 0.5q4 -12 4 -31q0 -13 -2 -29q-6 -44 -19 -80q-29 0 -101.5 -0.5t-152.5 -0.5t-137.5 -0.5t-61.5 -0.5q-5 13 -5 32zM-40 1008q0 21 5.5 62.5t17.5 91.5q15 66 41 128q22 53 54 89q17 20 37 31.5t43 11.5 q43 0 82 -19t68 -49q1 2 3 8l4 12q11 27 41.5 37.5t67.5 10.5q22 0 39 -5t27 -15q-12 -28 -25 -67q-18 -50 -36 -107q-19 -60 -30 -114q-10 -48 -10 -81q0 -10 3 -19t13 -9q12 0 29 17t36 43q33 48 62 102.5t41 83.5q0 -15 -23 -75.5t-62 -128.5q-22 -39 -48 -71.5 t-54.5 -53t-57.5 -20.5q-41 0 -63 17.5t-29.5 42.5t-7.5 46q0 37 9 88q-17 -42 -41 -82q-30 -51 -67 -83q-33 -29 -68 -29q-26 0 -44 8t-29 20q-17 18 -22.5 40t-5.5 38zM122 1036q0 -11 2.5 -21t12.5 -10q13 0 30 24t35 61q27 54 51 112q32 83 43 117q-31 41 -58 41 q-22 0 -42 -36q-23 -42 -40 -106q-12 -44 -20 -85q-14 -78 -14 -97z" />
<glyph unicode="&#xab;" horiz-adv-x="1004" d="M30 373q0 12 4 28q11 44 39 80q93 0 171 30t136.5 73.5t93.5 86t42 69.5q16 -34 16 -65q0 -58 -48 -104t-116 -79t-133.5 -53t-103.5 -27q26 -2 69.5 -17.5t89 -43.5t77 -69t31.5 -95q0 -36 -13 -64t-27 -37q-30 43 -83.5 102t-117 106t-118.5 47q-9 13 -9 32zM472 373 q0 12 4 28q11 44 39 80q93 0 171 30t136.5 73.5t93.5 86t42 69.5q16 -34 16 -65q0 -58 -48 -104t-116 -79t-133.5 -53t-103.5 -27q26 -2 69.5 -17.5t89 -43.5t77 -69t31.5 -95q0 -36 -13 -64t-27 -37q-30 43 -83.5 102t-117 106t-118.5 47q-9 13 -9 32z" />
<glyph unicode="&#xac;" horiz-adv-x="1017" d="M30 640q0 12 4 28q12 44 39 80h386t356.5 0.5t163.5 1.5q8 -12 8 -31q0 -13 -4 -29q-38 -181 -67.5 -322t-31.5 -153q-8 -3 -18 -3q-18 0 -42 11q-41 21 -70 55q33 157 70 332q-137 -1 -317.5 -1t-318.5 -0.5t-149 -0.5q-9 13 -9 32z" />
<glyph unicode="&#xad;" horiz-adv-x="827" d="M90 374q0 13 4 28q12 44 39 80q536 0 622 2q8 -12 8 -31q0 -13 -4 -29q-11 -44 -38 -80h-159.5t-206 -0.5t-177.5 -1t-79 -0.5q-9 13 -9 32z" />
<glyph unicode="&#xae;" horiz-adv-x="1404" d="M30 492q0 282 92.5 490t266 322t414.5 114q113 0 216 -34.5t183 -103.5t126 -171t46 -237q0 -130 -24 -261.5t-79.5 -248.5t-147.5 -208.5t-226.5 -144.5t-316.5 -53q-142 0 -245.5 45.5t-171 122t-100.5 172t-33 196.5zM108 492q0 -113 48 -219q63 -126 175.5 -182.5 t248.5 -56.5q167 0 311 58t246 196q88 126 124 280.5t36 303.5q0 147 -64.5 252t-176 161t-253.5 56q-185 0 -317 -69t-216 -187.5t-123 -271.5t-39 -321zM302 441q0 98 37 280.5t104 348.5q34 49 119 59q18 2 35 2q62 0 105 -29q-28 -45 -66.5 -169t-69.5 -259t-31 -200v-5 q0 -32 11 -32q10 36 22 88q17 67 39 148t51.5 162t69 149t89.5 109.5t113 41.5q80 0 123 -48t48 -121q1 -11 1 -23q0 -61 -27 -128q-32 -78 -101.5 -142t-177.5 -93q49 -88 113.5 -134t109.5 -46q0 -26 -10 -57.5t-37.5 -54.5t-78.5 -23q-54 0 -108.5 47.5t-89.5 114.5 t-36 132q1 13 18 29.5t40 30t41 17.5q81 66 117 154q33 83 33 149v8q-3 69 -35 69q-36 0 -71 -50t-67 -129t-59 -169t-48.5 -173.5t-35.5 -142.5q-8 -37 -14 -58q-67 -29 -120 -29h-3q-70 0 -111.5 44t-41.5 132z" />
<glyph unicode="&#xaf;" horiz-adv-x="692" d="M30 1012q2 86 72 139h560q-1 -98 -64 -139h-568z" />
<glyph unicode="&#xb0;" horiz-adv-x="645" d="M30 931q0 40 8 81q22 100 90 177t172 96q20 4 41 4q26 0 52 -6q46 -10 86 -36q86 -59 117 -157q19 -59 19 -119q0 -40 -8 -80q-22 -101 -90.5 -177.5t-171.5 -96.5q-19 -3 -39 -3q-27 0 -54 6q-47 10 -86 35q-87 60 -118 158q-18 58 -18 118zM159 933q0 -46 17 -93 q26 -73 103 -94q14 -2 27 -2q61 0 105 46q54 56 69 128q5 26 5 52q0 46 -16 93q-27 73 -103 94q-14 2 -27 2q-61 0 -105 -46q-54 -57 -70 -128q-5 -26 -5 -52z" />
<glyph unicode="&#xb1;" horiz-adv-x="1111" d="M-3 32q0 13 4 28q11 44 39 80l360 1q61 219 91 359q-30 1 -64 1q-134 0 -328 -10q-9 13 -9 32q0 12 4 28q11 44 39 80q249 0 374 -5h11q1 7 3 14q27 135 78 362q41 19 87 20h4q37 0 53 -18q-68 -241 -97 -380q29 -1 61 -1q132 0 332 10q8 -12 8 -31q0 -13 -4 -29 q-11 -44 -38 -80q-242 0 -372 5h-13q-1 -5 -3 -11q-25 -125 -74 -346l403 1q8 -12 8 -30q0 -13 -4 -30q-11 -44 -38 -80l-906 -2q-9 13 -9 32z" />
<glyph unicode="&#xb2;" horiz-adv-x="600" d="M-5 449q0 27 3.5 45.5t14.5 38.5t35.5 35t53.5 15q65 57 123 119t93 130.5t35 155.5q0 20 -5.5 38.5t-13 27t-19.5 8.5q-22 0 -41.5 -20t-32 -54.5t-12.5 -70.5q0 -24 5 -67q-65 0 -98 8t-54 29t-21 55q0 60 24 103t65.5 70.5t91 39.5t98.5 12q63 0 114 -26t80.5 -74 t29.5 -116q0 -73 -32 -133t-81.5 -109t-105.5 -89q-53 -38 -102 -69q7 1 43 1q33 0 70 4q93 10 203 68q-24 -142 -117 -182q-78 -33 -180 -33h-25q-115 5 -242 40z" />
<glyph unicode="&#xb3;" horiz-adv-x="600" d="M-23 477q0 50 27 101q29 24 91 27l13 1q51 0 128 -30q-41 -32 -60 -70.5t-19 -74.5q0 -27 10.5 -37.5t22.5 -10.5q17 0 42.5 14.5t46 44.5t20.5 78q0 56 -16.5 88t-41.5 50t-68 35q0 32 24 49.5t52.5 29t43.5 11.5q46 23 72.5 73.5t26.5 101.5q0 25 -3.5 51t-14 39.5 t-32.5 13.5q-19 0 -36 -15.5t-29 -45t-17 -64.5q-2 -16 -2 -32t6 -56q-91 7 -128.5 30.5t-37.5 63.5q0 68 27.5 112.5t70 69t89 33.5t86.5 9q50 0 99.5 -17.5t81 -58.5t31.5 -108q0 -83 -57 -161.5t-127 -103.5q49 -29 81.5 -82.5t32.5 -118.5q0 -56 -28 -101t-72.5 -75 t-96.5 -46t-100 -16q-61 0 -115.5 21.5t-89 66t-34.5 110.5z" />
<glyph unicode="&#xb4;" horiz-adv-x="389" d="M30 908q3 21 23.5 74t54.5 113t80 104t100 44q32 0 51.5 -20t19.5 -45q0 -70 -92 -152t-237 -118z" />
<glyph unicode="&#xb5;" horiz-adv-x="824" d="M-256 -583q109 307 188 693.5t112 514t60 192.5q30 43 105 43h10q83 -2 138 -38q-14 -47 -30 -101q-34 -108 -67.5 -233t-51.5 -256v-26q1 -54 21 -54q19 0 63 78q42 75 79 165q40 97 76 202q34 101 56 169l16 48q76 32 150 32q32 0 58.5 -8t40.5 -24q-27 -75 -62.5 -189 t-63 -231.5t-27.5 -195.5q0 -16 4.5 -31t20.5 -15q25 0 62.5 50t76.5 120t70 136t45 103q0 -19 -20.5 -84t-56.5 -148.5t-83 -162.5t-101 -132.5t-110 -53.5q-62 0 -95 29.5t-45.5 70.5t-12.5 76q0 60 14 139q-37 -80 -81 -151.5t-92 -117.5q-37 -34 -74 -43 q-77 -289 -170 -567q-77 -32 -152 -32q-38 0 -71 33z" />
<glyph unicode="&#xb6;" horiz-adv-x="1192" d="M30 -591q85 244 152.5 499.5t129.5 515.5q36 151 74 302q-16 -5 -34 -7q-20 -4 -41 -4q-26 0 -52 6q-46 10 -86 36q-86 59 -117 157q-18 58 -18 118q0 40 8 81q27 120 114 187.5t208 94.5q117 26 244 26h9q199 -4 354.5 -34.5t186.5 -48.5q-81 -238 -146.5 -486.5 t-125.5 -500.5q-57 -240 -118.5 -477t-137.5 -466q-58 -24 -114 -24q-49 0 -74 25q85 245 151.5 498t126.5 507q94 414 215 813q-17 11 -64.5 22.5t-153.5 11.5q-72 -221 -131.5 -450t-114.5 -460q-57 -240 -119 -477t-138 -466q-57 -24 -113 -24q-50 0 -75 25z" />
<glyph unicode="&#xb7;" horiz-adv-x="508" d="M82 709q0 9 1 18q9 52 45 81q31 25 70 25q7 0 15 -1q49 -8 76 -47q22 -30 22 -70q0 -9 -2 -20q-7 -51 -45 -80q-31 -26 -71 -26q-7 0 -14 1q-47 8 -75 47q-22 32 -22 72z" />
<glyph unicode="&#xb8;" horiz-adv-x="527" d="M30 -438q87 0 157 16q56 13 88 43q34 29 34 81q0 49 -27 76q-19 20 -44 29t-50 9q-3 4 -3 12q0 3 1 8q1 14 7 28l110 154q2 2 14.5 4t27.5 2h7q13 0 23 -3q13 -3 13 -12l-99 -128q54 0 91.5 -13t61.5 -33q30 -27 42.5 -59.5t12.5 -60.5q0 -47 -23.5 -87t-62.5 -69 q-87 -61 -192 -61q-51 0 -100.5 15t-88.5 49z" />
<glyph unicode="&#xb9;" horiz-adv-x="538" d="M13 1058q70 -19 107 -19q54 0 106.5 21.5t137.5 106.5q134 0 135 -59q-175 -538 -189 -707q-115 0 -186 36q0 92 138 533q-61 -35 -152 -38q-40 0 -67 22q-30 22 -30 104z" />
<glyph unicode="&#xba;" horiz-adv-x="399" d="M-117 640q0 13 2 28q5 44 19 80q89 0 193 0.5t178 1t82 0.5q4 -12 4 -30q0 -14 -2 -30q-5 -44 -19 -80q-29 0 -101.5 -0.5t-152 -0.5t-137.5 -0.5t-62 -0.5q-4 13 -4 32zM-40 1058q0 56 16.5 113t40.5 109q16 23 58 32q14 55 53.5 82.5t97.5 27.5q66 0 101.5 -48.5 t35.5 -140.5q0 -35 -5 -73q38 6 67 26t44 55q0 -41 -31.5 -65t-82.5 -33q-13 -64 -44 -120q-32 -58 -81 -94.5t-112 -36.5q-56 0 -91 25t-51 63.5t-16 77.5zM122 1084q0 -14 3 -38t13.5 -43t33.5 -19q24 0 44.5 23t35.5 59q15 35 23 76q-80 8 -139 44q-14 -52 -14 -102z M144 1315q27 -4 44 -16q-23 -32 -38 -71q41 -55 128 -67q6 41 6 77q0 43 -16.5 77t-58.5 34q-19 0 -34.5 -6.5t-30.5 -27.5z" />
<glyph unicode="&#xbb;" horiz-adv-x="1004" d="M30 151q0 58 48 104t116 79t133.5 53t103.5 27q-26 2 -69.5 17.5t-89 43.5t-77 69t-31.5 95q0 36 13 64t27 37q30 -43 83.5 -102t117 -106t118.5 -47q9 -13 9 -32q0 -12 -4 -28q-11 -44 -39 -80q-93 0 -171 -30t-136.5 -73.5t-93.5 -86t-42 -69.5q-16 34 -16 65zM472 151 q0 58 48 104t116 79t133.5 53t103.5 27q-26 2 -69.5 17.5t-89 43.5t-77 69t-31.5 95q0 36 13 64t27 37q30 -43 83.5 -102t117 -106t118.5 -47q9 -13 9 -32q0 -12 -4 -28q-11 -44 -39 -80q-93 0 -171 -30t-136.5 -73.5t-93.5 -86t-42 -69.5q-16 34 -16 65z" />
<glyph unicode="&#xbc;" horiz-adv-x="1364" d="M13 1058q70 -19 107 -19q54 0 106.5 21.5t137.5 106.5q134 0 135 -59q-175 -538 -189 -707q-115 0 -186 36q0 92 138 533q-61 -35 -152 -38q-40 0 -67 22q-30 22 -30 104zM289 5q204 450 419 947q93 216 180 413q35 12 72 12q8 0 16 -1q40 -3 55 -24q-204 -451 -419 -948 q-93 -215 -180 -413q-34 -11 -68 -11q-10 0 -20 1q-40 3 -55 24zM704 214v23q0 18 5 39q5 25 23.5 46.5t43.5 23.5q65 58 189.5 253t140.5 239q39 20 78 28.5t62 9.5h9q30 0 52 -8q37 -11 39 -41q-31 -90 -61.5 -211.5t-54.5 -226.5q-15 -64 -22 -92q41 3 119 103v-77 q0 -37 -19 -63q-21 -29 -58 -43.5t-65 -17.5l-8 -33q-17 -69 -24 -107q-5 -23 -9 -59q-152 2 -194 70l33 125q-39 2 -109 8q-77 7 -170 11zM924 326q37 -8 91 -14l54 215q-116 -177 -145 -201z" />
<glyph unicode="&#xbd;" horiz-adv-x="1383" d="M13 1058q70 -19 107 -19q54 0 106.5 21.5t137.5 106.5q134 0 135 -59q-175 -538 -189 -707q-115 0 -186 36q0 92 138 533q-61 -35 -152 -38q-40 0 -67 22q-30 22 -30 104zM293 5q204 450 419 947q93 216 180 413q35 11 72 11h16q40 -3 55 -24q-204 -451 -419 -948 q-93 -215 -180 -413q-34 -11 -68 -11q-10 0 -20 1q-40 3 -55 24zM778 40q0 27 3.5 45.5t14.5 38.5t35.5 35t53.5 15q65 57 123 119t93 130.5t35 155.5q0 20 -5.5 38.5t-13 27t-19.5 8.5q-22 0 -41.5 -20t-32 -54.5t-12.5 -70.5q0 -24 5 -67q-65 0 -98 8t-54 29t-21 55 q0 60 24 103t65.5 70.5t91 39.5t98.5 12q63 0 114 -26t80.5 -74t29.5 -116q0 -73 -32 -133t-81.5 -109t-105.5 -89q-53 -38 -103 -68h44q33 0 70 4q93 10 203 68q-24 -142 -117 -182q-78 -33 -180 -33h-25q-115 5 -242 40z" />
<glyph unicode="&#xbe;" horiz-adv-x="1464" d="M-23 477q0 50 27 101q29 24 91 27l13 1q51 0 128 -30q-41 -32 -60 -70.5t-19 -74.5q0 -27 10.5 -37.5t22.5 -10.5q17 0 42.5 14.5t46 44.5t20.5 78q0 56 -16.5 88t-41.5 50t-68 35q0 32 24 49.5t52.5 29t43.5 11.5q46 23 72.5 73.5t26.5 101.5q0 25 -3.5 51t-14 39.5 t-32.5 13.5q-19 0 -36 -15.5t-29 -45t-17 -64.5q-2 -16 -2 -32t6 -56q-91 7 -128.5 30.5t-37.5 63.5q0 68 27.5 112.5t70 69t89 33.5t86.5 9q50 0 99.5 -17.5t81 -58.5t31.5 -108q0 -83 -57 -161.5t-127 -103.5q49 -29 81.5 -82.5t32.5 -118.5q0 -56 -28 -101t-72.5 -75 t-96.5 -46t-100 -16q-61 0 -115.5 21.5t-89 66t-34.5 110.5zM442 5q204 450 419 947q93 216 180 413q35 11 88 11q40 -3 55 -24q-204 -451 -419 -948q-93 -215 -180 -413q-34 -11 -68 -11q-10 0 -20 1q-40 3 -55 24zM804 214v23q0 19 5 39q5 26 23.5 47.5t43.5 22.5 q66 59 190 254t140 238q39 20 78 29t62 9h9q30 0 52 -7q37 -12 39 -41q-31 -90 -61.5 -211.5t-54.5 -227.5q-15 -64 -21 -92q41 3 118 103v-76q0 -38 -19 -64q-21 -28 -58 -43t-65 -18l-7 -32q-17 -70 -25 -107q-5 -24 -9 -60q-151 3 -194 71l33 124q-39 2 -109 8 q-77 7 -170 11zM1024 327q38 -8 91 -15l54 216q-116 -178 -145 -201z" />
<glyph unicode="&#xbf;" horiz-adv-x="789" d="M110 -268q0 91 37.5 169t92 144.5t109.5 123.5q56 57 94.5 106t38.5 91q0 55 20.5 83.5t51.5 38.5q27 9 56 9h6q47 -2 68.5 -18.5t21.5 -43.5q0 -42 -22 -87.5t-57 -94t-77 -100.5q-53 -65 -103.5 -137t-84 -150.5t-33.5 -164.5q0 -40 13 -83.5t40 -73.5t69 -30 q50 0 85.5 36t56.5 91t28 115q3 30 3 58q0 27 -3 52q48 0 93 -11t74 -36.5t29 -70.5q0 -105 -38.5 -172.5t-97.5 -105.5t-124.5 -53t-121.5 -15q-85 0 -159.5 37t-120 110t-45.5 183zM505 694q0 10 1 21q10 60 53 95q37 30 84 30q8 0 16 -1q57 -10 89 -55q25 -38 25 -84 q0 -11 -1 -22q-10 -61 -53 -96q-36 -29 -81 -29q-9 0 -19 1q-56 9 -88 55q-26 37 -26 85z" />
<glyph unicode="&#xc0;" horiz-adv-x="1227" d="M-40 204q0 73 24.5 154.5t76.5 159t132 140.5t190.5 101.5t253.5 38.5q10 24 21 51q34 86 79 184t104 186t134.5 145t171.5 57q53 0 83 -17.5t42 -45.5q11 -27 11 -59v-5q-6 -87 -32 -159q-47 -152 -99.5 -339.5t-91 -354t-38.5 -243.5q0 -16 6.5 -31t31.5 -15t64.5 50 t81 120t74.5 136t47 103q0 -19 -20.5 -84t-57.5 -148.5t-87 -163t-109 -132.5t-123 -53q-62 0 -95 29t-45 70.5t-12 76.5q0 80 31 231q29 141 71 303q-88 39 -176 45q-16 -41 -34 -87q-31 -83 -67.5 -174.5t-81 -178.5t-97.5 -158.5t-116 -114t-138 -42.5q-71 0 -117.5 29.5 t-69.5 80t-23 114.5zM103 307q0 -36 9 -65.5t32.5 -47t64.5 -17.5q74 0 132.5 49t104 124.5t80 159.5t59.5 156q16 43 29 76q-131 0 -248.5 -54.5t-190 -167t-72.5 -213.5zM724 786q82 -13 170 -40q90 333 154 533q-57 0 -110.5 -66.5t-106.5 -178t-107 -248.5zM898 1760 q0 25 19.5 45t51.5 20q54 0 100 -44t80 -104t54.5 -112.5t23.5 -73.5q-145 35 -237 117t-92 152z" />
<glyph unicode="&#xc1;" horiz-adv-x="1227" d="M-40 204q0 73 24.5 154.5t76.5 159t132 140.5t190.5 101.5t253.5 38.5q10 24 21 51q34 86 79 184t104 186t134.5 145t171.5 57q53 0 83 -17.5t42 -45.5q11 -27 11 -59v-5q-6 -87 -32 -159q-47 -152 -99.5 -339.5t-91 -354t-38.5 -243.5q0 -16 6.5 -31t31.5 -15t64.5 50 t81 120t74.5 136t47 103q0 -19 -20.5 -84t-57.5 -148.5t-87 -163t-109 -132.5t-123 -53q-62 0 -95 29t-45 70.5t-12 76.5q0 80 31 231q29 141 71 303q-88 39 -176 45q-16 -41 -34 -87q-31 -83 -67.5 -174.5t-81 -178.5t-97.5 -158.5t-116 -114t-138 -42.5q-71 0 -117.5 29.5 t-69.5 80t-23 114.5zM103 307q0 -36 9 -65.5t32.5 -47t64.5 -17.5q74 0 132.5 49t104 124.5t80 159.5t59.5 156q16 43 29 76q-131 0 -248.5 -54.5t-190 -167t-72.5 -213.5zM724 786q82 -13 170 -40q90 333 154 533q-57 0 -110.5 -66.5t-106.5 -178t-107 -248.5zM1160 1491 q3 21 23.5 73.5t55 112.5t80 104t99.5 44q33 0 52.5 -20t19.5 -45q0 -70 -92.5 -152t-237.5 -117z" />
<glyph unicode="&#xc2;" horiz-adv-x="1227" d="M-40 204q0 73 24.5 154.5t76.5 159t132 140.5t190.5 101.5t253.5 38.5q10 24 21 51q34 86 79 184t104 186t134.5 145t171.5 57q53 0 83 -17.5t42 -45.5q11 -27 11 -59v-5q-6 -87 -32 -159q-47 -152 -99.5 -339.5t-91 -354t-38.5 -243.5q0 -16 6.5 -31t31.5 -15t64.5 50 t81 120t74.5 136t47 103q0 -19 -20.5 -84t-57.5 -148.5t-87 -163t-109 -132.5t-123 -53q-62 0 -95 29t-45 70.5t-12 76.5q0 80 31 231q29 141 71 303q-88 39 -176 45q-16 -41 -34 -87q-31 -83 -67.5 -174.5t-81 -178.5t-97.5 -158.5t-116 -114t-138 -42.5q-71 0 -117.5 29.5 t-69.5 80t-23 114.5zM103 307q0 -36 9 -65.5t32.5 -47t64.5 -17.5q74 0 132.5 49t104 124.5t80 159.5t59.5 156q16 43 29 76q-131 0 -248.5 -54.5t-190 -167t-72.5 -213.5zM724 786q82 -13 170 -40q90 333 154 533q-57 0 -110.5 -66.5t-106.5 -178t-107 -248.5zM921 1539 q0 45 41 91.5t98.5 86t113.5 64t87 24.5q7 0 12 -2l-1 -6q0 -19 16 -48t38 -61q24 -38 44.5 -75t20.5 -65q-1 -68 -77 -74q-43 4 -62.5 55.5t-24 116.5t-4.5 99q-14 -1 -31.5 -27.5t-38.5 -66.5q-21 -41 -46.5 -82t-55 -70t-63.5 -29q-27 1 -47 20.5t-20 48.5z" />
<glyph unicode="&#xc3;" horiz-adv-x="1227" d="M-40 204q0 73 24.5 154.5t76.5 159t132 140.5t190.5 101.5t253.5 38.5q10 24 21 51q34 86 79 184t104 186t134.5 145t171.5 57q53 0 83 -17.5t42 -45.5q11 -27 11 -59v-5q-6 -87 -32 -159q-47 -152 -99.5 -339.5t-91 -354t-38.5 -243.5q0 -16 6.5 -31t31.5 -15t64.5 50 t81 120t74.5 136t47 103q0 -19 -20.5 -84t-57.5 -148.5t-87 -163t-109 -132.5t-123 -53q-62 0 -95 29t-45 70.5t-12 76.5q0 80 31 231q29 141 71 303q-88 39 -176 45q-16 -41 -34 -87q-31 -83 -67.5 -174.5t-81 -178.5t-97.5 -158.5t-116 -114t-138 -42.5q-71 0 -117.5 29.5 t-69.5 80t-23 114.5zM103 307q0 -36 9 -65.5t32.5 -47t64.5 -17.5q74 0 132.5 49t104 124.5t80 159.5t59.5 156q16 43 29 76q-131 0 -248.5 -54.5t-190 -167t-72.5 -213.5zM724 786q82 -13 170 -40q90 333 154 533q-57 0 -110.5 -66.5t-106.5 -178t-107 -248.5zM966 1467 q10 89 34 140.5t58.5 73t73.5 21.5q32 0 62 -7.5t59 -17.5q27 -9 55 -16t58 -7q31 0 59 16.5t47 58.5q-8 -115 -43 -169.5t-102 -54.5q-31 0 -57 8t-51 18q-26 11 -54.5 20t-62.5 9q-39 0 -75 -21.5t-61 -71.5z" />
<glyph unicode="&#xc4;" horiz-adv-x="1227" d="M-40 204q0 73 24.5 154.5t76.5 159t132 140.5t190.5 101.5t253.5 38.5q10 24 21 51q34 86 79 184t104 186t134.5 145t171.5 57q53 0 83 -17.5t42 -45.5q11 -27 11 -59v-5q-6 -87 -32 -159q-47 -152 -99.5 -339.5t-91 -354t-38.5 -243.5q0 -16 6.5 -31t31.5 -15t64.5 50 t81 120t74.5 136t47 103q0 -19 -20.5 -84t-57.5 -148.5t-87 -163t-109 -132.5t-123 -53q-62 0 -95 29t-45 70.5t-12 76.5q0 80 31 231q29 141 71 303q-88 39 -176 45q-16 -41 -34 -87q-31 -83 -67.5 -174.5t-81 -178.5t-97.5 -158.5t-116 -114t-138 -42.5q-71 0 -117.5 29.5 t-69.5 80t-23 114.5zM103 307q0 -36 9 -65.5t32.5 -47t64.5 -17.5q74 0 132.5 49t104 124.5t80 159.5t59.5 156q16 43 29 76q-131 0 -248.5 -54.5t-190 -167t-72.5 -213.5zM724 786q82 -13 170 -40q90 333 154 533q-57 0 -110.5 -66.5t-106.5 -178t-107 -248.5zM961 1634 q0 10 2 20q9 55 49 88q34 28 77 28q68 -3 97 -52q24 -35 24 -79q0 -10 -1 -20q-9 -56 -49 -89q-33 -27 -75 -27q-9 0 -18 1q-52 9 -81 51q-25 35 -25 79zM1263 1634q0 9 2 20q9 55 49 88q34 27 77 27q68 -3 97 -51q24 -35 24 -79q0 -10 -1 -20q-9 -56 -49 -89 q-33 -27 -75 -27q-9 0 -18 1q-52 9 -81 51q-25 35 -25 79z" />
<glyph unicode="&#xc5;" horiz-adv-x="1227" d="M-40 204q0 73 24.5 154.5t76.5 159t132 140.5t190.5 101.5t253.5 38.5q10 24 21 51q34 86 79 184t104 186t134.5 145t171.5 57q53 0 83 -17.5t42 -45.5q11 -27 11 -59v-5q-6 -87 -32 -159q-47 -152 -99.5 -339.5t-91 -354t-38.5 -243.5q0 -16 6.5 -31t31.5 -15t64.5 50 t81 120t74.5 136t47 103q0 -19 -20.5 -84t-57.5 -148.5t-87 -163t-109 -132.5t-123 -53q-62 0 -95 29t-45 70.5t-12 76.5q0 80 31 231q29 141 71 303q-88 39 -176 45q-16 -41 -34 -87q-31 -83 -67.5 -174.5t-81 -178.5t-97.5 -158.5t-116 -114t-138 -42.5q-71 0 -117.5 29.5 t-69.5 80t-23 114.5zM103 307q0 -36 9 -65.5t32.5 -47t64.5 -17.5q74 0 132.5 49t104 124.5t80 159.5t59.5 156q16 43 29 76q-131 0 -248.5 -54.5t-190 -167t-72.5 -213.5zM724 786q82 -13 170 -40q90 333 154 533q-57 0 -110.5 -66.5t-106.5 -178t-107 -248.5zM1045 1593 q0 48 19 96q23 61 70 102.5t115 41.5q88 0 131 -41.5t48 -102.5v-20q0 -51 -21 -101q-26 -61 -77.5 -101.5t-122.5 -42.5q-76 2 -115 42.5t-45 101.5q-2 12 -2 25zM1148 1610q0 -41 14 -74q18 -44 59 -44q46 0 71.5 43.5t28.5 99.5v21q0 43 -13 79q-18 43 -56 43 q-46 0 -72 -43.5t-30 -99.5q-2 -13 -2 -25z" />
<glyph unicode="&#xc6;" horiz-adv-x="1667" d="M-40 204q0 73 24.5 154.5t76.5 159t132 140.5t190.5 101.5t253.5 38.5q10 24 21 51q34 86 79 184t104 186t134.5 145t171.5 57q53 0 83 -17q20 -10 35 -26q84 43 193 43q129 0 213 -71.5t84 -185.5q0 -60 -18.5 -120.5t-36.5 -97.5q-27 -26 -101 -31h-18q-65 0 -125 25 q95 133 95 266q0 44 -17.5 75.5t-59.5 31.5q-58 0 -107 -63t-79.5 -157t-30.5 -185q0 -78 36 -121q21 -26 58 -26q24 0 56 11q5 1 9 1q19 0 32 -23q15 -30 15 -72q-88 0 -161.5 -56t-118 -138.5t-44.5 -161.5q0 -64 27 -104.5t70 -60.5t91 -20q76 0 138.5 36.5t115.5 97.5 t99 136t88 154q-10 -61 -38.5 -137t-75.5 -153.5t-113 -143.5t-150.5 -106.5t-187.5 -40.5q-85 0 -156.5 34t-115.5 96t-44 144q0 95 52 183q41 70 101 128q-166 165 -336 170q-16 -41 -34 -87q-31 -83 -67.5 -174.5t-81 -178.5t-97.5 -158.5t-116 -114t-138 -42.5 q-71 0 -117.5 29.5t-69.5 80t-23 114.5zM103 307q0 -36 9 -65.5t32.5 -47t64.5 -17.5q74 0 132.5 49t104 124.5t80 159.5t59.5 156q16 43 29 76q-131 0 -248.5 -54.5t-190 -167t-72.5 -213.5zM724 786q203 -12 388 -162q60 43 123 69q-37 8 -81 38t-78 88.5t-34 157.5 q0 76 25 155q26 71 26 102q-3 44 -45 45q-57 0 -110.5 -66.5t-106.5 -178t-107 -248.5z" />
<glyph unicode="&#xc7;" horiz-adv-x="767" d="M-40 430q0 127 24.5 265t73 266.5t120.5 232.5t167 165.5t213 61.5q100 0 159 -34.5t85 -90.5t27 -123v-8q0 -64 -16 -127q-17 -68 -43 -125q-28 -27 -108 -31h-19q-68 0 -129 25q25 21 50.5 67.5t45 104t27.5 110.5q3 24 3 44q0 25 -5 45q-10 36 -45 36q-75 0 -142 -79 t-118 -207.5t-80.5 -282t-29.5 -302.5q0 -81 18 -150.5t57.5 -112.5t104.5 -43q76 0 143 36.5t124.5 97.5t107.5 136t92 154q-10 -61 -41 -137t-82 -153.5t-120.5 -143.5t-156.5 -106q-60 -29 -128 -37l-80 -103q54 0 91.5 -13t61.5 -33q30 -27 42.5 -59.5t12.5 -60.5 q0 -47 -23.5 -87t-62.5 -69q-87 -61 -192 -61q-51 0 -100.5 15t-88.5 49q87 0 157 16q56 13 88 43q34 29 34 81q0 49 -27 76q-19 20 -44 29t-50 9q-3 4 -3 11q0 4 1 9q1 14 7 28l84 117q-92 7 -152 60q-70 60 -102.5 162t-32.5 227z" />
<glyph unicode="&#xc8;" horiz-adv-x="741" d="M-40 254q0 95 51.5 182.5t130.5 154t166 102.5q-37 8 -81 38t-78 88.5t-34 157.5q0 76 24.5 154.5t75 144t129 105.5t187.5 40q129 0 213 -71.5t84 -185.5q0 -60 -18.5 -120.5t-36.5 -97.5q-27 -26 -101 -31h-18q-64 0 -125 25q95 133 95 266q0 44 -17.5 75.5t-59.5 31.5 q-58 0 -107 -63t-79.5 -157t-30.5 -185q0 -78 36 -121q21 -26 59 -26q24 0 55 11q5 1 10 1q19 0 31 -23q15 -30 15 -72q-88 0 -161.5 -56t-118 -138.5t-44.5 -161.5q0 -64 27 -104.5t70 -60.5t91 -20q76 0 138.5 36.5t115.5 97.5t99 136t88 154q-10 -61 -38.5 -137 t-75.5 -153.5t-113 -143.5t-150.5 -106.5t-187.5 -40.5q-85 0 -156.5 34t-115.5 96t-44 144zM269 1760q0 25 19.5 45t51.5 20q54 0 100 -44t80.5 -104t54.5 -112.5t24 -74.5q-145 36 -237.5 118t-92.5 152z" />
<glyph unicode="&#xc9;" horiz-adv-x="741" d="M-40 254q0 95 51.5 182.5t130.5 154t166 102.5q-37 8 -81 38t-78 88.5t-34 157.5q0 76 24.5 154.5t75 144t129 105.5t187.5 40q129 0 213 -71.5t84 -185.5q0 -60 -18.5 -120.5t-36.5 -97.5q-27 -26 -101 -31h-18q-64 0 -125 25q95 133 95 266q0 44 -17.5 75.5t-59.5 31.5 q-58 0 -107 -63t-79.5 -157t-30.5 -185q0 -78 36 -121q21 -26 59 -26q24 0 55 11q5 1 10 1q19 0 31 -23q15 -30 15 -72q-88 0 -161.5 -56t-118 -138.5t-44.5 -161.5q0 -64 27 -104.5t70 -60.5t91 -20q76 0 138.5 36.5t115.5 97.5t99 136t88 154q-10 -61 -38.5 -137 t-75.5 -153.5t-113 -143.5t-150.5 -106.5t-187.5 -40.5q-85 0 -156.5 34t-115.5 96t-44 144zM546 1490q4 22 24 74.5t54.5 112.5t80.5 104t100 44q32 0 51.5 -20t19.5 -45q0 -70 -92.5 -152t-237.5 -118z" />
<glyph unicode="&#xca;" horiz-adv-x="741" d="M-40 254q0 95 51.5 182.5t130.5 154t166 102.5q-37 8 -81 38t-78 88.5t-34 157.5q0 76 24.5 154.5t75 144t129 105.5t187.5 40q129 0 213 -71.5t84 -185.5q0 -60 -18.5 -120.5t-36.5 -97.5q-27 -26 -101 -31h-18q-64 0 -125 25q95 133 95 266q0 44 -17.5 75.5t-59.5 31.5 q-58 0 -107 -63t-79.5 -157t-30.5 -185q0 -78 36 -121q21 -26 59 -26q24 0 55 11q5 1 10 1q19 0 31 -23q15 -30 15 -72q-88 0 -161.5 -56t-118 -138.5t-44.5 -161.5q0 -64 27 -104.5t70 -60.5t91 -20q76 0 138.5 36.5t115.5 97.5t99 136t88 154q-10 -61 -38.5 -137 t-75.5 -153.5t-113 -143.5t-150.5 -106.5t-187.5 -40.5q-85 0 -156.5 34t-115.5 96t-44 144zM363 1539q0 44 41 91t99 86.5t114 64t86 24.5q7 0 12 -2v-7q0 -19 16 -47.5t37 -61.5q25 -37 45 -74t20 -65q-1 -68 -76 -74q-44 3 -63.5 55t-24 117t-4.5 99q-13 -1 -30.5 -27.5 t-38.5 -66.5q-22 -41 -47.5 -82.5t-55 -70t-63.5 -28.5q-27 1 -47 20.5t-20 48.5z" />
<glyph unicode="&#xcb;" horiz-adv-x="741" d="M-40 254q0 95 51.5 182.5t130.5 154t166 102.5q-37 8 -81 38t-78 88.5t-34 157.5q0 76 24.5 154.5t75 144t129 105.5t187.5 40q129 0 213 -71.5t84 -185.5q0 -60 -18.5 -120.5t-36.5 -97.5q-27 -26 -101 -31h-18q-64 0 -125 25q95 133 95 266q0 44 -17.5 75.5t-59.5 31.5 q-58 0 -107 -63t-79.5 -157t-30.5 -185q0 -78 36 -121q21 -26 59 -26q24 0 55 11q5 1 10 1q19 0 31 -23q15 -30 15 -72q-88 0 -161.5 -56t-118 -138.5t-44.5 -161.5q0 -64 27 -104.5t70 -60.5t91 -20q76 0 138.5 36.5t115.5 97.5t99 136t88 154q-10 -61 -38.5 -137 t-75.5 -153.5t-113 -143.5t-150.5 -106.5t-187.5 -40.5q-85 0 -156.5 34t-115.5 96t-44 144zM322 1634q0 10 1 20q10 56 49 88q34 28 78 28q68 -2 97 -52q24 -35 24 -79q0 -9 -1 -19q-9 -57 -49 -89q-33 -27 -76 -27q-8 0 -17 1q-52 8 -82 51q-24 34 -24 78zM624 1634 q0 10 1 20q9 56 49 88q34 28 78 28q68 -3 97 -52q24 -35 24 -79q0 -9 -1 -19q-9 -57 -49 -89q-34 -27 -76 -27q-8 0 -17 1q-52 8 -82 51q-24 34 -24 78z" />
<glyph unicode="&#xcc;" horiz-adv-x="653" d="M-40 757q0 122 62 240.5t162 214t218 153t230 57.5q52 0 77.5 -21t31.5 -53q4 -18 4 -37q0 -16 -3 -33q-5 -38 -16 -72q-44 -132 -102.5 -323t-104.5 -380.5t-46 -304.5q0 -16 4.5 -31t20.5 -15q25 0 62.5 50t76.5 120t70.5 136t45.5 103q0 -19 -21 -84t-57 -148.5 t-83 -163t-101 -132.5t-110 -53q-62 0 -95 29t-45 70.5t-12 76.5q0 122 43 319t100 399.5t105 352.5v2q3 7 5.5 17t2.5 20t-5.5 17t-20.5 7q-64 0 -125 -47.5t-109.5 -120.5t-78 -153t-29.5 -144q0 -66 25 -123.5t81 -95.5q-3 -1 -5 -2q-22 -11 -42.5 -18t-55.5 -7 q-56 0 -91 28t-52 69.5t-17 80.5zM256 1760q0 25 19.5 45t51.5 20q54 0 100 -44t80.5 -104t54.5 -112.5t24 -73.5q-145 35 -237.5 117t-92.5 152z" />
<glyph unicode="&#xcd;" horiz-adv-x="653" d="M-40 757q0 122 62 240.5t162 214t218 153t230 57.5q52 0 77.5 -21t31.5 -53q4 -18 4 -37q0 -16 -3 -33q-5 -38 -16 -72q-44 -132 -102.5 -323t-104.5 -380.5t-46 -304.5q0 -16 4.5 -31t20.5 -15q25 0 62.5 50t76.5 120t70.5 136t45.5 103q0 -19 -21 -84t-57 -148.5 t-83 -163t-101 -132.5t-110 -53q-62 0 -95 29t-45 70.5t-12 76.5q0 122 43 319t100 399.5t105 352.5v2q3 7 5.5 17t2.5 20t-5.5 17t-20.5 7q-64 0 -125 -47.5t-109.5 -120.5t-78 -153t-29.5 -144q0 -66 25 -123.5t81 -95.5q-3 -1 -5 -2q-22 -11 -42.5 -18t-55.5 -7 q-56 0 -91 28t-52 69.5t-17 80.5zM528 1490q3 22 23.5 74.5t55 112.5t80 104t99.5 44q33 0 52.5 -20t19.5 -45q0 -70 -92.5 -152t-237.5 -118z" />
<glyph unicode="&#xce;" horiz-adv-x="653" d="M-40 757q0 122 62 240.5t162 214t218 153t230 57.5q52 0 77.5 -21t31.5 -53q4 -18 4 -37q0 -16 -3 -33q-5 -38 -16 -72q-44 -132 -102.5 -323t-104.5 -380.5t-46 -304.5q0 -16 4.5 -31t20.5 -15q25 0 62.5 50t76.5 120t70.5 136t45.5 103q0 -19 -21 -84t-57 -148.5 t-83 -163t-101 -132.5t-110 -53q-62 0 -95 29t-45 70.5t-12 76.5q0 122 43 319t100 399.5t105 352.5v2q3 7 5.5 17t2.5 20t-5.5 17t-20.5 7q-64 0 -125 -47.5t-109.5 -120.5t-78 -153t-29.5 -144q0 -66 25 -123.5t81 -95.5q-3 -1 -5 -2q-22 -11 -42.5 -18t-55.5 -7 q-56 0 -91 28t-52 69.5t-17 80.5zM408 1539q0 45 40.5 91.5t98.5 86t114 64t87 24.5q7 0 12 -2l-1 -6q0 -19 16 -48t38 -61q24 -38 44.5 -75t20.5 -65q-1 -68 -77 -74q-43 4 -62.5 55.5t-24 116.5t-4.5 99q-14 -1 -31.5 -27.5t-38.5 -66.5q-21 -41 -46.5 -82t-55 -70 t-63.5 -29q-27 1 -47 20.5t-20 48.5z" />
<glyph unicode="&#xcf;" horiz-adv-x="653" d="M-40 757q0 122 62 240.5t162 214t218 153t230 57.5q52 0 77.5 -21t31.5 -53q4 -18 4 -37q0 -16 -3 -33q-5 -38 -16 -72q-44 -132 -102.5 -323t-104.5 -380.5t-46 -304.5q0 -16 4.5 -31t20.5 -15q25 0 62.5 50t76.5 120t70.5 136t45.5 103q0 -19 -21 -84t-57 -148.5 t-83 -163t-101 -132.5t-110 -53q-62 0 -95 29t-45 70.5t-12 76.5q0 122 43 319t100 399.5t105 352.5v2q3 7 5.5 17t2.5 20t-5.5 17t-20.5 7q-64 0 -125 -47.5t-109.5 -120.5t-78 -153t-29.5 -144q0 -66 25 -123.5t81 -95.5q-3 -1 -5 -2q-22 -11 -42.5 -18t-55.5 -7 q-56 0 -91 28t-52 69.5t-17 80.5zM334 1634q0 9 2 20q9 55 49 88q34 27 77 27q68 -2 97 -51q24 -35 24 -79q0 -10 -1 -20q-9 -56 -49 -89q-33 -27 -75 -27q-9 0 -18 1q-51 9 -81 51q-25 35 -25 79zM636 1634q0 9 2 19q9 56 49 89q34 27 77 27q68 -3 97 -52q24 -35 24 -78 q0 -10 -1 -20q-9 -56 -49 -89q-33 -27 -75 -27q-9 0 -18 1q-52 9 -81 51q-25 34 -25 79z" />
<glyph unicode="&#xd0;" horiz-adv-x="1230" d="M-167 689q0 13 4 28q11 44 39 80q75 0 140 1q-9 14 -16 31q-22 50 -22 112q0 85 44 177t135 167q75 62 183.5 99.5t253.5 37.5q209 0 340 -90.5t181 -249.5q30 -95 30 -209q0 -74 -13 -157q164 -64 248 -155q-92 70 -254 121q-72 -335 -318 -538q-100 -81 -223 -125.5 t-264 -44.5q-156 0 -257 84q-49 42 -76.5 106t-27.5 148q0 115 63 226q38 66 101 120h-158q-116 -1 -124 -1q-9 13 -9 32zM68 335q0 -134 77 -198q67 -57 178 -57q90 0 189.5 46t185.5 139q74 81 125 199t65 274q-139 23 -260 23h-28q-26 -83 -57 -168q-44 -117 -82 -214 q-23 -59 -39 -101q-39 -92 -119 -101q-8 -1 -15 -1q-70 0 -128 66q7 19 29 72q28 69 68 172q39 103 78 217q-79 -37 -133 -88q-68 -65 -101 -139.5t-33 -140.5zM178 958q0 -64 19.5 -108.5t40.5 -69.5t29 -30q0 -1 1 -2q43 21 93 35q22 70 38 135q24 96 24 159v5 q-2 65 -46 65q60 35 120 35q62 0 95 -29.5t45 -70.5t12 -76q0 -73 -31 -184l-2 -6h10q125 0 264 -29l1 33q0 82 -13 159q-14 92 -53 166.5t-109 119t-180 44.5q-76 0 -138.5 -27t-109.5 -72q-110 -113 -110 -252z" />
<glyph unicode="&#xd1;" horiz-adv-x="1260" d="M-40 757q0 122 62 240.5t162 214t218 153t230 57.5q52 0 77.5 -21t31.5 -53q4 -19 4 -40q0 -15 -2 -30q-6 -38 -17 -72q-4 -12 -10 -28q-35 -106 -95.5 -300.5t-112 -392t-51.5 -294.5v-4q0 -35 15 -35q15 55 49 163.5t83.5 245t112.5 277t136 259.5t154 193.5t166 74.5 q42 0 62 -12t26.5 -30t6.5 -36q0 -77 -26.5 -189t-64.5 -238q-58 -203 -102.5 -391t-44.5 -271q0 -16 4 -31t20 -15q34 0 100.5 83t126 179t79.5 147q0 -19 -25.5 -84t-69.5 -148.5t-98.5 -163t-114 -132.5t-115.5 -53q-62 0 -95 29t-45 70.5t-12 76.5q0 196 57 455t134 493 q-31 0 -123 -187.5t-186.5 -437.5t-144.5 -461q-34 -19 -74.5 -28.5t-66.5 -9.5q-70 0 -111 45t-41 131q0 138 44 337t100 391.5t98 323.5q3 10 6 19v2q3 7 5.5 17t2.5 20t-5.5 17t-20.5 7q-64 0 -125 -47.5t-109.5 -120.5t-78 -153t-29.5 -144q0 -66 25 -123.5t81 -95.5 q-3 -1 -5 -2q-22 -11 -42.5 -18t-55.5 -7q-56 0 -91 28t-52 69.5t-17 80.5zM708 1468q10 89 34 140.5t58.5 72.5t73.5 21q32 0 62 -7.5t59 -16.5q27 -9 55 -16.5t58 -7.5q31 0 59 17t47 58q-8 -114 -43 -169t-102 -55q-31 0 -57 8t-51 19q-26 11 -54.5 19.5t-62.5 8.5 q-39 0 -75 -21t-61 -71z" />
<glyph unicode="&#xd2;" horiz-adv-x="994" d="M-40 430q0 140 24 266t58 229.5t66 176.5t50 108q34 19 78 26q34 5 67 5h18q18 49 53.5 89.5t93 65.5t141.5 25q103 0 176 -61.5t112 -165.5t39 -231q0 -102 -17 -213q143 2 338 45q-193 -70 -346 -87q-27 -138 -82.5 -267t-136.5 -233t-185.5 -166t-230.5 -62 q-112 0 -181.5 60.5t-102 162.5t-32.5 227zM220 443q0 -81 18 -150.5t57.5 -112.5t104.5 -43q63 0 117.5 48.5t97.5 129t74 181t47 206.5q-183 14 -284 91t-134 185q-45 -131 -71.5 -265.5t-26.5 -269.5zM349 1760q0 25 19.5 45t51.5 20q54 0 100 -44.5t80.5 -104 t54.5 -112.5t24 -74q-145 35 -237.5 117t-92.5 153zM427 1065q0 -65 31.5 -127t101.5 -108.5t184 -67.5q8 86 8 164q0 114 -23 182.5t-59 98.5t-77 30t-79.5 -17.5t-62.5 -55.5t-24 -99z" />
<glyph unicode="&#xd3;" horiz-adv-x="994" d="M-40 430q0 140 24 266t58 229.5t66 176.5t50 108q34 19 78 26q34 5 67 5h18q18 49 53.5 89.5t93 65.5t141.5 25q103 0 176 -61.5t112 -165.5t39 -231q0 -102 -17 -213q143 2 338 45q-193 -70 -346 -87q-27 -138 -82.5 -267t-136.5 -233t-185.5 -166t-230.5 -62 q-112 0 -181.5 60.5t-102 162.5t-32.5 227zM220 443q0 -81 18 -150.5t57.5 -112.5t104.5 -43q63 0 117.5 48.5t97.5 129t74 181t47 206.5q-183 14 -284 91t-134 185q-45 -131 -71.5 -265.5t-26.5 -269.5zM427 1065q0 -65 31.5 -127t101.5 -108.5t184 -67.5q8 86 8 164 q0 114 -23 182.5t-59 98.5t-77 30t-79.5 -17.5t-62.5 -55.5t-24 -99zM609 1490q4 21 24 74t54.5 113t80.5 104t100 44q32 0 51.5 -20t19.5 -45q0 -70 -92.5 -152.5t-237.5 -117.5z" />
<glyph unicode="&#xd4;" horiz-adv-x="994" d="M-40 430q0 140 24 266t58 229.5t66 176.5t50 108q34 19 78 26q34 5 67 5h18q18 49 53.5 89.5t93 65.5t141.5 25q103 0 176 -61.5t112 -165.5t39 -231q0 -102 -17 -213q143 2 338 45q-193 -70 -346 -87q-27 -138 -82.5 -267t-136.5 -233t-185.5 -166t-230.5 -62 q-112 0 -181.5 60.5t-102 162.5t-32.5 227zM220 443q0 -81 18 -150.5t57.5 -112.5t104.5 -43q63 0 117.5 48.5t97.5 129t74 181t47 206.5q-183 14 -284 91t-134 185q-45 -131 -71.5 -265.5t-26.5 -269.5zM374 1539q0 44 40.5 91t98.5 86.5t114 64t87 24.5q7 0 12 -2l-1 -7 q0 -19 16 -47.5t37 -61.5q25 -37 45 -74t20 -65q0 -68 -76 -74q-43 3 -62.5 55t-24 117t-4.5 99q-14 -1 -31.5 -27.5t-38.5 -66.5q-21 -41 -46.5 -82.5t-55 -70t-63.5 -28.5q-27 1 -47 20.5t-20 48.5zM427 1065q0 -65 31.5 -127t101.5 -108.5t184 -67.5q8 86 8 164 q0 114 -23 182.5t-59 98.5t-77 30t-79.5 -17.5t-62.5 -55.5t-24 -99z" />
<glyph unicode="&#xd5;" horiz-adv-x="994" d="M-40 430q0 140 24 266t58 229.5t66 176.5t50 108q34 19 78 26q34 5 67 5h18q18 49 53.5 89.5t93 65.5t141.5 25q103 0 176 -61.5t112 -165.5t39 -231q0 -102 -17 -213q143 2 338 45q-193 -70 -346 -87q-27 -138 -82.5 -267t-136.5 -233t-185.5 -166t-230.5 -62 q-112 0 -181.5 60.5t-102 162.5t-32.5 227zM220 443q0 -81 18 -150.5t57.5 -112.5t104.5 -43q63 0 117.5 48.5t97.5 129t74 181t47 206.5q-183 14 -284 91t-134 185q-45 -131 -71.5 -265.5t-26.5 -269.5zM355 1467q11 89 35 140.5t58.5 73t73.5 21.5q32 0 62 -7.5t58 -17.5 q28 -9 56 -16t58 -7q31 0 59 17t47 58q-8 -115 -43 -169.5t-102 -54.5q-31 0 -57 8t-51 18q-26 11 -54.5 20t-63.5 9q-38 0 -74 -21.5t-62 -71.5zM427 1065q0 -65 31.5 -127t101.5 -108.5t184 -67.5q8 86 8 164q0 114 -23 182.5t-59 98.5t-77 30t-79.5 -17.5t-62.5 -55.5 t-24 -99z" />
<glyph unicode="&#xd6;" horiz-adv-x="994" d="M-40 430q0 140 24 266t58 229.5t66 176.5t50 108q34 19 78 26q34 5 67 5h18q18 49 53.5 89.5t93 65.5t141.5 25q103 0 176 -61.5t112 -165.5t39 -231q0 -102 -17 -213q143 2 338 45q-193 -70 -346 -87q-27 -138 -82.5 -267t-136.5 -233t-185.5 -166t-230.5 -62 q-112 0 -181.5 60.5t-102 162.5t-32.5 227zM220 443q0 -81 18 -150.5t57.5 -112.5t104.5 -43q63 0 117.5 48.5t97.5 129t74 181t47 206.5q-183 14 -284 91t-134 185q-45 -131 -71.5 -265.5t-26.5 -269.5zM333 1634q0 10 1 20q9 55 49 88q34 28 78 28q68 -3 97 -52 q24 -35 24 -79q0 -10 -1 -20q-10 -56 -49 -89q-34 -27 -76 -27q-8 0 -17 2q-52 8 -82 50q-24 35 -24 79zM427 1065q0 -65 31.5 -127t101.5 -108.5t184 -67.5q8 86 8 164q0 114 -23 182.5t-59 98.5t-77 30t-79.5 -17.5t-62.5 -55.5t-24 -99zM635 1634q0 9 1 20q9 55 49 88 q34 27 78 27q68 -3 97 -51q24 -35 24 -79q0 -10 -1 -20q-10 -56 -49 -89q-34 -27 -76 -27q-8 0 -17 1q-52 9 -82 51q-24 35 -24 79z" />
<glyph unicode="&#xd7;" horiz-adv-x="1111" d="M143 303q218 176 332 261l9 7q-5 6 -9 12q-95 115 -249 311q19 43 59 76l3 3q31 25 60 25h2q152 -219 248 -338q26 20 55 43q115 93 282 242q18 -3 34 -16q11 -10 22 -24q29 -39 37 -83q-212 -172 -331 -260l-11 -9q3 -4 7 -10q92 -111 251 -315q-20 -41 -59 -75l-4 -2 q-30 -25 -58 -25h-4q-146 211 -248 337q-27 -21 -56 -45q-118 -95 -280 -238q-19 2 -35 16q-11 9 -22 22q-28 39 -35 85z" />
<glyph unicode="&#xd8;" horiz-adv-x="994" d="M-40 430q0 140 24 266t58 229.5t66 176.5t50 108q34 19 78 26q34 5 67 5h18q18 49 53.5 89.5t93 65.5t141.5 25q103 0 176 -61.5t112 -165.5t39 -231q0 -102 -17 -213q143 2 338 45q-193 -70 -346 -87q-27 -138 -82.5 -267t-136.5 -233t-185.5 -166t-230.5 -62 q-112 0 -181.5 60.5t-102 162.5t-32.5 227zM220 443q0 -81 18 -150q4 -16 9 -31q113 251 228 515q-12 8 -23 16q-101 77 -134 185q-45 -131 -71.5 -265.5t-26.5 -269.5zM343 147q26 -10 57 -10q63 0 117.5 48.5t97.5 129t74 181t47 206.5q-78 6 -141 23q-51 -116 -107 -246 q-74 -171 -145 -332zM427 1065q0 -65 32 -127q19 -39 55 -72q35 80 70 161q52 122 78 186q-32 24 -69 24q-41 0 -79.5 -17.5t-62.5 -55.5t-24 -99zM625 796q52 -22 119 -34q8 86 8 164q0 79 -11 136q-53 -121 -116 -266z" />
<glyph unicode="&#xd9;" horiz-adv-x="1192" d="M-40 757q0 122 62.5 240.5t162 214t217.5 153t230 57.5q39 0 65.5 -15.5t42.5 -34.5t23 -31q-32 -88 -101.5 -320t-132 -477t-62.5 -346q0 -16 4.5 -31t20.5 -15q32 0 91 103t129.5 259t138.5 324t119.5 304.5t72.5 199.5q76 32 150 32q33 0 59 -8t40 -25 q-32 -88 -101.5 -320t-131.5 -477t-62 -346q0 -16 4 -31t20 -15q25 0 63 50t77 120t70 136t45 103q0 -19 -20.5 -84t-56.5 -148.5t-83.5 -163t-101.5 -132.5t-110 -53q-62 0 -95 29t-45 70.5t-12 76.5q0 63 20 171t51 239q-45 -114 -97 -218.5t-109.5 -187t-118.5 -131.5 t-123 -49t-95 29t-45 70.5t-12 76.5q0 110 55 342.5t120.5 462t105.5 352.5q-95 0 -184 -76.5t-146 -189.5t-57 -222q0 -66 25 -123.5t81 -95.5q-3 -1 -5 -2q-21 -11 -42 -18t-56 -7q-55 0 -90.5 28t-52.5 69.5t-17 80.5zM659 1760q0 25 19.5 45t51.5 20q55 0 100.5 -44 t80 -104t55 -112.5t23.5 -74.5q-145 36 -237.5 118t-92.5 152z" />
<glyph unicode="&#xda;" horiz-adv-x="1192" d="M-40 757q0 122 62.5 240.5t162 214t217.5 153t230 57.5q39 0 65.5 -15.5t42.5 -34.5t23 -31q-32 -88 -101.5 -320t-132 -477t-62.5 -346q0 -16 4.5 -31t20.5 -15q32 0 91 103t129.5 259t138.5 324t119.5 304.5t72.5 199.5q76 32 150 32q33 0 59 -8t40 -25 q-32 -88 -101.5 -320t-131.5 -477t-62 -346q0 -16 4 -31t20 -15q25 0 63 50t77 120t70 136t45 103q0 -19 -20.5 -84t-56.5 -148.5t-83.5 -163t-101.5 -132.5t-110 -53q-62 0 -95 29t-45 70.5t-12 76.5q0 63 20 171t51 239q-45 -114 -97 -218.5t-109.5 -187t-118.5 -131.5 t-123 -49t-95 29t-45 70.5t-12 76.5q0 110 55 342.5t120.5 462t105.5 352.5q-95 0 -184 -76.5t-146 -189.5t-57 -222q0 -66 25 -123.5t81 -95.5q-3 -1 -5 -2q-21 -11 -42 -18t-56 -7q-55 0 -90.5 28t-52.5 69.5t-17 80.5zM903 1490q4 22 24 74.5t54.5 112.5t80 104t100.5 44 q32 0 51.5 -20t19.5 -45q0 -70 -92.5 -152t-237.5 -118z" />
<glyph unicode="&#xdb;" horiz-adv-x="1192" d="M-40 757q0 122 62.5 240.5t162 214t217.5 153t230 57.5q39 0 65.5 -15.5t42.5 -34.5t23 -31q-32 -88 -101.5 -320t-132 -477t-62.5 -346q0 -16 4.5 -31t20.5 -15q32 0 91 103t129.5 259t138.5 324t119.5 304.5t72.5 199.5q76 32 150 32q33 0 59 -8t40 -25 q-32 -88 -101.5 -320t-131.5 -477t-62 -346q0 -16 4 -31t20 -15q25 0 63 50t77 120t70 136t45 103q0 -19 -20.5 -84t-56.5 -148.5t-83.5 -163t-101.5 -132.5t-110 -53q-62 0 -95 29t-45 70.5t-12 76.5q0 63 20 171t51 239q-45 -114 -97 -218.5t-109.5 -187t-118.5 -131.5 t-123 -49t-95 29t-45 70.5t-12 76.5q0 110 55 342.5t120.5 462t105.5 352.5q-95 0 -184 -76.5t-146 -189.5t-57 -222q0 -66 25 -123.5t81 -95.5q-3 -1 -5 -2q-21 -11 -42 -18t-56 -7q-55 0 -90.5 28t-52.5 69.5t-17 80.5zM699 1538q0 45 41 92t99 86.5t114 64t87 24.5 q6 0 12 -2l-1 -7q0 -19 16 -47.5t37 -61.5q25 -37 45 -74t20 -66q-1 -68 -76 -73q-44 3 -63.5 55t-24 116.5t-4.5 99.5q-13 -1 -30.5 -28t-38.5 -66q-22 -41 -47.5 -82.5t-55 -70t-62.5 -28.5q-28 0 -48 19.5t-20 48.5z" />
<glyph unicode="&#xdc;" horiz-adv-x="1192" d="M-40 757q0 122 62.5 240.5t162 214t217.5 153t230 57.5q39 0 65.5 -15.5t42.5 -34.5t23 -31q-32 -88 -101.5 -320t-132 -477t-62.5 -346q0 -16 4.5 -31t20.5 -15q32 0 91 103t129.5 259t138.5 324t119.5 304.5t72.5 199.5q76 32 150 32q33 0 59 -8t40 -25 q-32 -88 -101.5 -320t-131.5 -477t-62 -346q0 -16 4 -31t20 -15q25 0 63 50t77 120t70 136t45 103q0 -19 -20.5 -84t-56.5 -148.5t-83.5 -163t-101.5 -132.5t-110 -53q-62 0 -95 29t-45 70.5t-12 76.5q0 63 20 171t51 239q-45 -114 -97 -218.5t-109.5 -187t-118.5 -131.5 t-123 -49t-95 29t-45 70.5t-12 76.5q0 110 55 342.5t120.5 462t105.5 352.5q-95 0 -184 -76.5t-146 -189.5t-57 -222q0 -66 25 -123.5t81 -95.5q-3 -1 -5 -2q-21 -11 -42 -18t-56 -7q-55 0 -90.5 28t-52.5 69.5t-17 80.5zM673 1634q0 10 1 20q10 56 49 88q34 28 78 28 q68 -2 97 -52q24 -35 24 -79q0 -9 -1 -19q-9 -57 -49 -89q-33 -27 -76 -27q-8 0 -17 1q-52 8 -82 51q-24 34 -24 78zM975 1634q0 10 1 20q9 56 49 88q34 28 78 28q68 -3 97 -52q24 -35 24 -79q0 -9 -1 -19q-9 -57 -49 -89q-34 -27 -76 -27q-8 0 -17 1q-52 8 -82 51 q-24 34 -24 78z" />
<glyph unicode="&#xdd;" horiz-adv-x="1192" d="M-40 757q0 122 62 240.5t162 214t218 153t230 57.5q39 0 65.5 -15.5t42.5 -34.5t22 -31q-30 -86 -91 -280t-114.5 -400.5t-53.5 -307.5q0 -16 4 -31t20 -15q38 0 96.5 90t123.5 226t126 282t106.5 264.5t63.5 172.5q76 32 150 32q32 0 58.5 -8t40.5 -25 q-106 -301 -171 -565.5t-128 -566.5q85 37 176 77q48 21 97 43q-147 -93 -282 -165q-31 -142 -71 -276q-26 -87 -61.5 -174t-86.5 -161q-56 -83 -137 -134t-197 -51q-82 0 -135.5 57t-53.5 152q0 136 123 267.5t371 252.5q39 180 69 328q30 144 59 275q-42 -106 -93 -206.5 t-109 -181.5t-121.5 -129t-129.5 -48q-63 0 -96 29t-45 70.5t-12 76.5q0 110 46 303.5t103 386t97 312.5q-95 0 -184 -76.5t-146 -189.5t-57 -222q0 -66 25 -123.5t81 -95.5q-3 -1 -5 -2q-22 -11 -42.5 -18t-55.5 -7q-56 0 -91 28t-52 69.5t-17 80.5zM349 -420 q0 -42 16.5 -68t54.5 -26q56 0 102 52t81 127q36 77 60 152t36 122q11 45 21 91q-65 -35 -130 -81t-119.5 -102.5t-88 -123.5t-33.5 -143zM899 1490q3 21 23.5 73.5t55 112.5t80 104.5t99.5 44.5q32 0 52 -20t20 -45q0 -71 -92.5 -153t-237.5 -117z" />
<glyph unicode="&#xde;" horiz-adv-x="1036" d="M-40 757q0 122 62 240.5t162 214t218 153t230 57.5q52 0 77.5 -21t31.5 -53q4 -18 4 -37q0 -16 -3 -33q-4 -33 -23 -104q58 24 123 24q56 -1 118 -33q93 -52 134.5 -137.5t41.5 -186.5q0 -166 -70 -313.5t-181.5 -239t-235.5 -91.5q-59 0 -125 21l-34 10q-5 -26 -10 -53 q-39 -203 -39 -372q-45 -45 -127 -57q-19 -3 -36 -3q-57 0 -96 28q0 231 89.5 641t131.5 563t74 252v2q3 7 5.5 17t2.5 20t-5.5 17t-20.5 7q-64 0 -125 -47.5t-109.5 -120.5t-78 -153t-29.5 -144q0 -66 25 -123.5t81 -95.5q-3 -1 -5 -2q-22 -11 -42.5 -18t-55.5 -7 q-56 0 -91 28t-52 69.5t-17 80.5zM505 306l51 -11q78 0 151.5 68.5t121.5 186t48 264.5q0 78 -26 143.5t-85 105.5q-21 14 -73 23q-57 -190 -154 -620q-13 -57 -34 -160z" />
<glyph unicode="&#xdf;" horiz-adv-x="1065" d="M30 9q0 76 46 260.5t107.5 387t112.5 350.5q41 120 95.5 213.5t141.5 148t229 54.5q69 0 131.5 -26t102 -85.5t39.5 -161.5q0 -71 -27.5 -123t-67.5 -91t-80 -71q-40 -31 -67.5 -59.5t-27.5 -59.5q0 -24 15 -49.5t37 -55.5q24 -33 49 -75t43 -96t18 -125 q0 -110 -57 -197.5t-152 -138.5t-208 -51q-82 0 -122 36.5t-42 84.5v5q0 44 33 78q15 -71 101 -71q38 0 84 31t79.5 88t33.5 134q0 80 -24 138.5t-53 106.5q-22 39 -38.5 76.5t-16.5 78.5q0 43 18 76t46.5 60t61.5 52q37 29 71 62t56 76t22 104q0 55 -21.5 90.5t-64.5 35.5 q-38 0 -71.5 -41.5t-58 -94t-36.5 -89.5q-51 -139 -115 -351.5t-114 -410t-50 -272.5q-33 -48 -119 -59q-18 -2 -35 -2q-62 0 -105 29z" />
<glyph unicode="&#xe0;" horiz-adv-x="820" d="M-40 156q0 36 8.5 105t26.5 153q23 109 62 212q34 89 82 149q26 33 56.5 52t65.5 19q65 0 124 -31.5t103 -81.5q1 4 4 13.5t7 20.5q16 45 62 62t103 17q33 0 59 -8t40 -24q-17 -47 -38 -113q-27 -83 -54 -178q-28 -99 -45 -190q-15 -79 -15 -135q0 -16 4 -31t20 -15 q18 0 43.5 28t54.5 72q50 80 94 170.5t63 138.5q0 -25 -35 -125.5t-94 -213.5q-34 -65 -73.5 -119.5t-82.5 -88.5t-87 -34q-62 0 -95 29.5t-45 70.5t-12 76q0 63 14 147q-26 -70 -62 -136q-45 -85 -102 -139q-49 -48 -103 -48q-39 0 -66 13t-44 33q-25 31 -34 67.5t-9 62.5z M205 1178q0 25 19.5 45t51.5 20q54 0 100 -44t80.5 -104t54.5 -113t24 -74q-145 36 -237.5 118t-92.5 152zM206 203q0 -18 4 -34.5t19 -16.5q19 0 45 39.5t54 101.5q40 90 76 188q49 137 66 194q-47 68 -88 68q-34 0 -63 -59q-36 -71 -61 -177q-19 -73 -31 -142 q-21 -130 -21 -162z" />
<glyph unicode="&#xe1;" horiz-adv-x="820" d="M-40 156q0 36 8.5 105t26.5 153q23 109 62 212q34 89 82 149q26 33 56.5 52t65.5 19q65 0 124 -31.5t103 -81.5q1 4 4 13.5t7 20.5q16 45 62 62t103 17q33 0 59 -8t40 -24q-17 -47 -38 -113q-27 -83 -54 -178q-28 -99 -45 -190q-15 -79 -15 -135q0 -16 4 -31t20 -15 q18 0 43.5 28t54.5 72q50 80 94 170.5t63 138.5q0 -25 -35 -125.5t-94 -213.5q-34 -65 -73.5 -119.5t-82.5 -88.5t-87 -34q-62 0 -95 29.5t-45 70.5t-12 76q0 63 14 147q-26 -70 -62 -136q-45 -85 -102 -139q-49 -48 -103 -48q-39 0 -66 13t-44 33q-25 31 -34 67.5t-9 62.5z M206 203q0 -18 4 -34.5t19 -16.5q19 0 45 39.5t54 101.5q40 90 76 188q49 137 66 194q-47 68 -88 68q-34 0 -63 -59q-36 -71 -61 -177q-19 -73 -31 -142q-21 -130 -21 -162zM440 908q4 22 24 74.5t54.5 112.5t80.5 104t100 44q32 0 51.5 -20t19.5 -45q0 -70 -92.5 -152 t-237.5 -118z" />
<glyph unicode="&#xe2;" horiz-adv-x="820" d="M-40 156q0 36 8.5 105t26.5 153q23 109 62 212q34 89 82 149q26 33 56.5 52t65.5 19q65 0 124 -31.5t103 -81.5q1 4 4 13.5t7 20.5q16 45 62 62t103 17q33 0 59 -8t40 -24q-17 -47 -38 -113q-27 -83 -54 -178q-28 -99 -45 -190q-15 -79 -15 -135q0 -16 4 -31t20 -15 q18 0 43.5 28t54.5 72q50 80 94 170.5t63 138.5q0 -25 -35 -125.5t-94 -213.5q-34 -65 -73.5 -119.5t-82.5 -88.5t-87 -34q-62 0 -95 29.5t-45 70.5t-12 76q0 63 14 147q-26 -70 -62 -136q-45 -85 -102 -139q-49 -48 -103 -48q-39 0 -66 13t-44 33q-25 31 -34 67.5t-9 62.5z M206 203q0 -18 4 -34.5t19 -16.5q19 0 45 39.5t54 101.5q40 90 76 188q49 137 66 194q-47 68 -88 68q-34 0 -63 -59q-36 -71 -61 -177q-19 -73 -31 -142q-21 -130 -21 -162zM257 956q0 45 41 92t98.5 86.5t114 64t86.5 24.5q7 0 12 -2l-1 -7q0 -19 16 -47.5t38 -61.5 q24 -37 44.5 -74t20.5 -66q-1 -68 -77 -73q-43 3 -62.5 55t-24 117t-4.5 99q-14 -1 -31 -27.5t-38 -66.5q-22 -41 -47.5 -82.5t-55 -70t-63.5 -28.5q-27 1 -47 20.5t-20 47.5z" />
<glyph unicode="&#xe3;" horiz-adv-x="820" d="M-40 156q0 36 8.5 105t26.5 153q23 109 62 212q34 89 82 149q26 33 56.5 52t65.5 19q65 0 124 -31.5t103 -81.5q1 4 4 13.5t7 20.5q16 45 62 62t103 17q33 0 59 -8t40 -24q-17 -47 -38 -113q-27 -83 -54 -178q-28 -99 -45 -190q-15 -79 -15 -135q0 -16 4 -31t20 -15 q18 0 43.5 28t54.5 72q50 80 94 170.5t63 138.5q0 -25 -35 -125.5t-94 -213.5q-34 -65 -73.5 -119.5t-82.5 -88.5t-87 -34q-62 0 -95 29.5t-45 70.5t-12 76q0 63 14 147q-26 -70 -62 -136q-45 -85 -102 -139q-49 -48 -103 -48q-39 0 -66 13t-44 33q-25 31 -34 67.5t-9 62.5z M206 203q0 -18 4 -34.5t19 -16.5q19 0 45 39.5t54 101.5q40 90 76 188q49 137 66 194q-47 68 -88 68q-34 0 -63 -59q-36 -71 -61 -177q-19 -73 -31 -142q-21 -130 -21 -162zM268 885q10 89 34.5 140.5t58.5 72.5t73 21q33 0 63 -7.5t58 -16.5t56 -16t57 -7q32 0 60 16.5 t47 57.5q-8 -114 -43 -169t-102 -55q-31 0 -57 8.5t-51 18.5q-27 11 -55 19.5t-63 8.5q-38 0 -74 -21t-62 -71z" />
<glyph unicode="&#xe4;" horiz-adv-x="820" d="M-40 156q0 36 8.5 105t26.5 153q23 109 62 212q34 89 82 149q26 33 56.5 52t65.5 19q65 0 124 -31.5t103 -81.5q1 4 4 13.5t7 20.5q16 45 62 62t103 17q33 0 59 -8t40 -24q-17 -47 -38 -113q-27 -83 -54 -178q-28 -99 -45 -190q-15 -79 -15 -135q0 -16 4 -31t20 -15 q18 0 43.5 28t54.5 72q50 80 94 170.5t63 138.5q0 -25 -35 -125.5t-94 -213.5q-34 -65 -73.5 -119.5t-82.5 -88.5t-87 -34q-62 0 -95 29.5t-45 70.5t-12 76q0 63 14 147q-26 -70 -62 -136q-45 -85 -102 -139q-49 -48 -103 -48q-39 0 -66 13t-44 33q-25 31 -34 67.5t-9 62.5z M206 203q0 -18 4 -34.5t19 -16.5q19 0 45 39.5t54 101.5q40 90 76 188q49 137 66 194q-47 68 -88 68q-34 0 -63 -59q-36 -71 -61 -177q-19 -73 -31 -142q-21 -130 -21 -162zM233 1052q0 10 1 20q10 55 49 88q34 28 78 28q68 -3 97 -52q24 -35 24 -79q0 -10 -1 -20 q-9 -56 -49 -89q-34 -27 -76 -27q-8 0 -17 1q-52 9 -82 51q-24 35 -24 79zM535 1052q0 9 1 20q9 55 49 88q34 27 78 27q68 -3 97 -51q24 -35 24 -79q0 -10 -1 -20q-9 -56 -49 -89q-34 -27 -76 -27q-8 0 -17 1q-52 9 -82 51q-24 35 -24 79z" />
<glyph unicode="&#xe5;" horiz-adv-x="820" d="M-40 156q0 36 8.5 105t26.5 153q23 109 62 212q34 89 82 149q26 33 56.5 52t65.5 19q65 0 124 -31.5t103 -81.5q1 4 4 13.5t7 20.5q16 45 62 62t103 17q33 0 59 -8t40 -24q-17 -47 -38 -113q-27 -83 -54 -178q-28 -99 -45 -190q-15 -79 -15 -135q0 -16 4 -31t20 -15 q18 0 43.5 28t54.5 72q50 80 94 170.5t63 138.5q0 -25 -35 -125.5t-94 -213.5q-34 -65 -73.5 -119.5t-82.5 -88.5t-87 -34q-62 0 -95 29.5t-45 70.5t-12 76q0 63 14 147q-26 -70 -62 -136q-45 -85 -102 -139q-49 -48 -103 -48q-39 0 -66 13t-44 33q-25 31 -34 67.5t-9 62.5z M206 203q0 -18 4 -34.5t19 -16.5q19 0 45 39.5t54 101.5q40 90 76 188q49 137 66 194q-47 68 -88 68q-34 0 -63 -59q-36 -71 -61 -177q-19 -73 -31 -142q-21 -130 -21 -162zM329 1011q0 47 19 96q23 61 70 102.5t115 41.5q88 0 131 -41.5t48 -102.5v-20q0 -51 -21 -101 q-26 -61 -77.5 -101.5t-122.5 -42.5q-76 2 -115 42.5t-45 101.5q-2 12 -2 25zM432 1028q0 -41 14 -74q18 -44 59 -44q46 0 71.5 43.5t28.5 99.5v21q0 43 -13 79q-18 43 -56 43q-46 0 -72 -43.5t-30 -99.5q-2 -13 -2 -25z" />
<glyph unicode="&#xe6;" horiz-adv-x="993" d="M-40 156q0 36 8.5 105t26.5 153q23 109 62 212q34 89 82 149q26 33 56.5 52t65.5 19q65 0 124 -31.5t116 -82.5q72 114 218 114q75 0 141 -37q39 -24 63.5 -63t24.5 -93q0 -64 -34 -128q-29 -55 -76 -93q-58 -48 -130 -48q-45 0 -79 36q-21 -105 -21 -145q0 -60 14 -94 q24 -51 67 -51q64 0 120 40q54 37 100 96q40 52 73 112q52 96 81 183q0 -59 -58 -201q-30 -69 -73 -138q-59 -96 -139 -164q-86 -74 -190 -78h-5q-98 0 -170 73q-30 33 -47.5 83.5t-17.5 120.5v3q-20 -47 -45 -93q-45 -85 -102 -139q-49 -48 -103 -48q-39 0 -66 13t-44 33 q-25 31 -34 67.5t-9 62.5zM206 203q0 -18 4 -34.5t19 -16.5q19 0 45 39.5t54 101.5q31 70 59 144q5 22 11 46q27 102 72 193q-47 67 -88 67q-34 0 -63 -59q-36 -71 -61 -177q-19 -73 -31 -142q-21 -130 -21 -162zM637 458q20 -16 38 -16q35 0 65 44q30 42 46 97 q22 84 22 130v4q0 41 -18 41q-20 0 -38.5 -18.5t-35.5 -50.5q-27 -51 -49 -121q-17 -55 -30 -110z" />
<glyph unicode="&#xe7;" horiz-adv-x="590" d="M-127 -438q87 0 157 16q56 13 88 43q34 29 34 81q0 49 -27 76q-19 20 -44 29t-50 9q-3 4 -3 11q0 4 1 9q1 14 7 28l90 126q-56 17 -101 63q-30 33 -49 88q-16 49 -16 116q0 75 32 211q29 119 83 224q42 80 113 122q54 32 128 32q87 0 156 -48q73 -52 73 -145 q0 -50 -25 -113q-17 -15 -65 -18q-52 0 -89 15q19 51 30 101q9 42 9 73v11q-1 34 -18 36q-44 -4 -81 -83q-43 -92 -70 -209q-31 -143 -31 -191q0 -65 17 -99q23 -46 64 -46q42 0 82 19.5t77 53.5q80 74 137 176t78 182q0 -55 -30 -132t-86 -175q-61 -109 -148 -189 q-81 -75 -187 -84l-77 -100q54 0 91.5 -13t61.5 -33q30 -27 42.5 -59.5t12.5 -60.5q0 -47 -23.5 -87t-62.5 -69q-87 -61 -192 -61q-51 0 -100.5 15t-88.5 49z" />
<glyph unicode="&#xe8;" horiz-adv-x="590" d="M-40 257q0 80 35 226q29 111 80 209q29 54 72 92q66 62 169 62q75 0 141 -37q39 -24 63.5 -63t24.5 -93q0 -64 -34 -128q-29 -55 -76 -93q-58 -48 -130 -48q-45 0 -79 36q-21 -105 -21 -145q0 -60 14 -94q24 -51 67 -51q64 0 120 40q54 37 100 96q40 52 73 112 q52 96 81 183q0 -59 -58 -201q-30 -69 -73 -138q-59 -96 -139 -164q-86 -74 -190 -78h-5q-98 0 -170 73q-30 33 -47.5 83.5t-17.5 120.5zM132 1178q0 25 19.5 45t51.5 20q54 0 100 -44t80.5 -104t54.5 -112.5t24 -73.5q-145 35 -237.5 117t-92.5 152zM234 458q20 -16 38 -16 q35 0 65 44q30 42 46 97q22 84 22 130v4q0 41 -18 41q-20 0 -38.5 -18.5t-35.5 -50.5q-27 -51 -49 -121q-17 -55 -30 -110z" />
<glyph unicode="&#xe9;" horiz-adv-x="590" d="M-40 257q0 80 35 226q29 111 80 209q29 54 72 92q66 62 169 62q75 0 141 -37q39 -24 63.5 -63t24.5 -93q0 -64 -34 -128q-29 -55 -76 -93q-58 -48 -130 -48q-45 0 -79 36q-21 -105 -21 -145q0 -60 14 -94q24 -51 67 -51q64 0 120 40q54 37 100 96q40 52 73 112 q52 96 81 183q0 -59 -58 -201q-30 -69 -73 -138q-59 -96 -139 -164q-86 -74 -190 -78h-5q-98 0 -170 73q-30 33 -47.5 83.5t-17.5 120.5zM234 458q20 -16 38 -16q35 0 65 44q30 42 46 97q22 84 22 130v4q0 41 -18 41q-20 0 -38.5 -18.5t-35.5 -50.5q-27 -51 -49 -121 q-17 -55 -30 -110zM422 908q4 21 24 74t54.5 113t80.5 104t100 44q32 0 51.5 -20t19.5 -45q0 -70 -92.5 -152.5t-237.5 -117.5z" />
<glyph unicode="&#xea;" horiz-adv-x="590" d="M-40 257q0 80 35 226q29 111 80 209q29 54 72 92q66 62 169 62q75 0 141 -37q39 -24 63.5 -63t24.5 -93q0 -64 -34 -128q-29 -55 -76 -93q-58 -48 -130 -48q-45 0 -79 36q-21 -105 -21 -145q0 -60 14 -94q24 -51 67 -51q64 0 120 40q54 37 100 96q40 52 73 112 q52 96 81 183q0 -59 -58 -201q-30 -69 -73 -138q-59 -96 -139 -164q-86 -74 -190 -78h-5q-98 0 -170 73q-30 33 -47.5 83.5t-17.5 120.5zM226 957q0 45 41 91.5t99 86t114 64t86 24.5q7 0 12 -2v-6q0 -19 16 -48t37 -61q25 -38 45 -75t20 -65q-1 -68 -76 -74 q-44 4 -63.5 55.5t-24 116.5t-4.5 99q-13 -1 -30.5 -27.5t-38.5 -66.5q-22 -41 -47.5 -82t-55 -70t-63.5 -29q-27 1 -47 20.5t-20 48.5zM234 458q20 -16 38 -16q35 0 65 44q30 42 46 97q22 84 22 130v4q0 41 -18 41q-20 0 -38.5 -18.5t-35.5 -50.5q-27 -51 -49 -121 q-17 -55 -30 -110z" />
<glyph unicode="&#xeb;" horiz-adv-x="590" d="M-40 257q0 80 35 226q29 111 80 209q29 54 72 92q66 62 169 62q75 0 141 -37q39 -24 63.5 -63t24.5 -93q0 -64 -34 -128q-29 -55 -76 -93q-58 -48 -130 -48q-45 0 -79 36q-21 -105 -21 -145q0 -60 14 -94q24 -51 67 -51q64 0 120 40q54 37 100 96q40 52 73 112 q52 96 81 183q0 -59 -58 -201q-30 -69 -73 -138q-59 -96 -139 -164q-86 -74 -190 -78h-5q-98 0 -170 73q-30 33 -47.5 83.5t-17.5 120.5zM173 1052q0 9 1 20q9 55 49 88q34 27 77 27q68 -2 97 -51q24 -35 24 -79q0 -10 -1 -20q-9 -56 -49 -89q-33 -27 -75 -27q-9 0 -18 1 q-51 9 -81 51q-24 35 -24 79zM234 458q20 -16 38 -16q35 0 65 44q30 42 46 97q22 84 22 130v4q0 41 -18 41q-20 0 -38.5 -18.5t-35.5 -50.5q-27 -51 -49 -121q-17 -55 -30 -110zM474 1052q0 9 2 19q9 56 49 88q34 28 77 28q68 -3 97 -52q24 -35 24 -78q0 -10 -1 -20 q-9 -56 -49 -89q-33 -27 -75 -27q-9 0 -18 1q-52 8 -81 51q-25 34 -25 79z" />
<glyph unicode="&#xec;" horiz-adv-x="414" d="M-40 156q0 87 26 211t60 244t62 203q77 32 150 32q33 0 59.5 -8t39.5 -24q-27 -75 -62 -189t-62.5 -231.5t-27.5 -195.5q0 -16 4 -31t20 -15q34 0 86.5 75t99.5 169.5t69 164.5q0 -21 -18.5 -86t-51.5 -148t-79.5 -162t-102.5 -132t-119 -53t-96 29.5t-45 70.5t-12 76z M2 1178q0 25 19.5 45t51.5 20q54 0 100 -44t80.5 -104t54.5 -113t24 -74q-145 36 -237.5 118t-92.5 152z" />
<glyph unicode="&#xed;" horiz-adv-x="414" d="M-40 156q0 87 26 211t60 244t62 203q77 32 150 32q33 0 59.5 -8t39.5 -24q-27 -75 -62 -189t-62.5 -231.5t-27.5 -195.5q0 -16 4 -31t20 -15q34 0 86.5 75t99.5 169.5t69 164.5q0 -21 -18.5 -86t-51.5 -148t-79.5 -162t-102.5 -132t-119 -53t-96 29.5t-45 70.5t-12 76z M225 908q4 22 24 74.5t54.5 112.5t80.5 104t100 44q32 0 51.5 -20t19.5 -45q0 -70 -92.5 -152t-237.5 -118z" />
<glyph unicode="&#xee;" horiz-adv-x="414" d="M-40 156q0 87 26 211t60 244t62 203q77 32 150 32q33 0 59.5 -8t39.5 -24q-27 -75 -62 -189t-62.5 -231.5t-27.5 -195.5q0 -16 4 -31t20 -15q34 0 86.5 75t99.5 169.5t69 164.5q0 -21 -18.5 -86t-51.5 -148t-79.5 -162t-102.5 -132t-119 -53t-96 29.5t-45 70.5t-12 76z M25 956q0 45 41 92t98.5 86.5t114 64t86.5 24.5q7 0 12 -2l-1 -7q0 -19 16 -47.5t38 -61.5q24 -37 44.5 -74t20.5 -66q-1 -68 -77 -73q-43 3 -62.5 55t-24 117t-4.5 99q-14 -1 -31 -28t-38 -66q-22 -41 -47.5 -82.5t-55 -70t-63.5 -28.5q-27 0 -47 19.5t-20 48.5z" />
<glyph unicode="&#xef;" horiz-adv-x="414" d="M-40 156q0 87 26 211t60 244t62 203q77 32 150 32q33 0 59.5 -8t39.5 -24q-27 -75 -62 -189t-62.5 -231.5t-27.5 -195.5q0 -16 4 -31t20 -15q34 0 86.5 75t99.5 169.5t69 164.5q0 -21 -18.5 -86t-51.5 -148t-79.5 -162t-102.5 -132t-119 -53t-96 29.5t-45 70.5t-12 76z M9 1052q0 10 1 20q10 55 50 88q34 28 77 28q68 -3 97 -52q24 -35 24 -79q0 -10 -1 -20q-9 -56 -49 -89q-33 -27 -76 -27q-8 0 -17 1q-52 9 -81 51q-25 35 -25 79zM311 1052q0 9 1 20q10 55 50 88q34 27 77 27q68 -3 97 -51q24 -35 24 -79q0 -10 -1 -20q-9 -56 -49 -89 q-33 -27 -76 -27q-8 0 -17 1q-52 9 -81 51q-25 35 -25 79z" />
<glyph unicode="&#xf0;" horiz-adv-x="818" d="M-40 156q0 39 10 115t30 166q33 150 96 272q32 62 73.5 99.5t91.5 37.5q65 0 123.5 -31.5t102.5 -81.5q25 96 50 185q18 63 35 122h-139q21 113 63 120h111q36 120 57 182q77 32 150 32q33 0 59.5 -8t39.5 -25q-19 -53 -57 -176q-1 -3 -2 -5h118q-23 -120 -93 -120h-61 q-22 -73 -46 -156q-72 -251 -121 -467q-33 -149 -33 -219q0 -13 3 -26q3 -20 21 -20q29 0 74 65q56 80 108 184.5t73 159.5q0 -27 -40 -139.5t-106 -231.5q-54 -98 -119 -159q-52 -51 -106 -51q-36 0 -61.5 10.5t-43.5 27.5q-27 29 -37.5 67t-10.5 71q0 70 22 180 q-19 -50 -50 -116q-33 -71 -75 -130q-35 -50 -75 -80t-82 -30q-38 0 -64 11.5t-43 30.5q-27 31 -36.5 69t-9.5 65zM206 203q0 -17 4 -34q3 -17 19 -17q19 0 47 44t58 111q45 97 82 200q41 113 55 166q-48 70 -89 70q-25 0 -47.5 -33t-41.5 -85q-38 -108 -60 -232 q-13 -68 -20 -120t-7 -70z" />
<glyph unicode="&#xf1;" horiz-adv-x="868" d="M-40 156q0 98 37 280.5t103 348.5q34 59 155 61q62 0 104 -29q-59 -100 -116 -295t-61 -307q2 -63 21 -63q16 55 45 141t77 196q40 88 90 167q53 85 116 139.5t134 54.5q43 0 77 -23.5t34 -78.5q0 -39 -40 -167q-78 -260 -78 -383q2 -46 25 -46q25 0 62.5 50t76.5 120 t70.5 136t45.5 103q0 -19 -21 -84t-57 -148.5t-83 -162.5t-101 -132.5t-110 -53.5q-73 0 -113 50q-39 48 -39 126q0 169 110 490q-49 -39 -106 -155q-23 -46 -45 -94q-32 -75 -62 -157q-50 -135 -75 -230q-67 -30 -120 -30q-73 0 -117 48q-39 45 -39 128zM196 885 q10 89 34.5 140.5t58.5 73t73 21.5q33 0 62.5 -7.5t58.5 -17.5q28 -9 56 -16t57 -7q32 0 60 17t47 58q-9 -115 -43.5 -169.5t-102.5 -54.5q-30 0 -56 8t-52 18q-26 11 -54 20t-63 9q-39 0 -75 -21.5t-61 -71.5z" />
<glyph unicode="&#xf2;" horiz-adv-x="662" d="M-40 257q0 92 25.5 187.5t61.5 182.5q25 38 87 52q21 93 81.5 139t148.5 46q100 0 154 -81.5t54 -233.5q0 -59 -9 -122q59 10 102.5 43t66.5 91q0 -68 -48 -108t-125 -55q-19 -106 -67 -200q-48 -96 -122 -157t-170 -61q-84 0 -137 41.5t-78 105.5t-25 130zM126 1178 q0 25 19.5 45t51.5 20q54 0 100 -44t80.5 -104t54.5 -113t24 -74q-145 36 -237.5 118t-92.5 152zM205 300q0 -24 4.5 -63.5t21 -71t51.5 -31.5q37 0 68 38t54 98q22 59 34 126q-121 14 -211 74q-22 -87 -22 -170zM239 685q41 -6 67 -26q-35 -55 -58 -118q62 -93 194 -113 q9 69 9 129q0 71 -25 128t-88 57q-29 0 -52.5 -11.5t-46.5 -45.5z" />
<glyph unicode="&#xf3;" horiz-adv-x="662" d="M-40 257q0 92 25.5 187.5t61.5 182.5q25 38 87 52q21 93 81.5 139t148.5 46q100 0 154 -81.5t54 -233.5q0 -59 -9 -122q59 10 102.5 43t66.5 91q0 -68 -48 -108t-125 -55q-19 -106 -67 -200q-48 -96 -122 -157t-170 -61q-84 0 -137 41.5t-78 105.5t-25 130zM205 300 q0 -24 4.5 -63.5t21 -71t51.5 -31.5q37 0 68 38t54 98q22 59 34 126q-121 14 -211 74q-22 -87 -22 -170zM239 685q41 -6 67 -26q-35 -55 -58 -118q62 -93 194 -113q9 69 9 129q0 71 -25 128t-88 57q-29 0 -52.5 -11.5t-46.5 -45.5zM332 908q4 22 24 74.5t54.5 112.5 t80.5 104t100 44q32 0 51.5 -20t19.5 -45q0 -70 -92.5 -152t-237.5 -118z" />
<glyph unicode="&#xf4;" horiz-adv-x="662" d="M-40 257q0 92 25.5 187.5t61.5 182.5q25 38 87 52q21 93 81.5 139t148.5 46q100 0 154 -81.5t54 -233.5q0 -59 -9 -122q59 10 102.5 43t66.5 91q0 -68 -48 -108t-125 -55q-19 -106 -67 -200q-48 -96 -122 -157t-170 -61q-84 0 -137 41.5t-78 105.5t-25 130zM140 956 q0 45 41 92t99 86.5t114 64t86 24.5q7 0 12 -2v-7q0 -19 15.5 -47.5t37.5 -61.5q25 -37 45 -74t20 -66q-1 -68 -76 -73q-44 3 -63.5 55t-24 117t-4.5 99q-14 -1 -31 -27.5t-38 -66.5q-22 -41 -47.5 -82.5t-55 -70t-63.5 -28.5q-27 1 -47 20.5t-20 47.5zM205 300 q0 -24 4.5 -63.5t21 -71t51.5 -31.5q37 0 68 38t54 98q22 59 34 126q-121 14 -211 74q-22 -87 -22 -170zM239 685q41 -6 67 -26q-35 -55 -58 -118q62 -93 194 -113q9 69 9 129q0 71 -25 128t-88 57q-29 0 -52.5 -11.5t-46.5 -45.5z" />
<glyph unicode="&#xf5;" horiz-adv-x="662" d="M-40 257q0 92 25.5 187.5t61.5 182.5q25 38 87 52q21 93 81.5 139t148.5 46q100 0 154 -81.5t54 -233.5q0 -59 -9 -122q59 10 102.5 43t66.5 91q0 -68 -48 -108t-125 -55q-19 -106 -67 -200q-48 -96 -122 -157t-170 -61q-84 0 -137 41.5t-78 105.5t-25 130zM131 885 q10 89 34.5 140.5t58.5 73t73 21.5q33 0 62.5 -8t58.5 -17q28 -9 56 -16t57 -7q32 0 60 16.5t47 58.5q-8 -115 -43 -170t-102 -55q-31 0 -57 8.5t-51 18.5q-27 11 -55 19.5t-63 8.5q-38 0 -74.5 -21t-61.5 -71zM205 300q0 -24 4.5 -63.5t21 -71t51.5 -31.5q37 0 68 38t54 98 q22 59 34 126q-121 14 -211 74q-22 -87 -22 -170zM239 685q41 -6 67 -26q-35 -55 -58 -118q62 -93 194 -113q9 69 9 129q0 71 -25 128t-88 57q-29 0 -52.5 -11.5t-46.5 -45.5z" />
<glyph unicode="&#xf6;" horiz-adv-x="662" d="M-40 257q0 92 25.5 187.5t61.5 182.5q25 38 87 52q21 93 81.5 139t148.5 46q100 0 154 -81.5t54 -233.5q0 -59 -9 -122q59 10 102.5 43t66.5 91q0 -68 -48 -108t-125 -55q-19 -106 -67 -200q-48 -96 -122 -157t-170 -61q-84 0 -137 41.5t-78 105.5t-25 130zM104 1052 q0 9 1 19q9 56 49 88q34 28 77 28q68 -2 97 -52q25 -35 25 -78q0 -10 -2 -20q-9 -56 -49 -89q-33 -27 -75 -27q-9 0 -17 1q-52 8 -82 51q-24 34 -24 79zM205 300q0 -24 4.5 -63.5t21 -71t51.5 -31.5q37 0 68 38t54 98q22 59 34 126q-121 14 -211 74q-22 -87 -22 -170z M239 685q41 -6 67 -26q-35 -55 -58 -118q62 -93 194 -113q9 69 9 129q0 71 -25 128t-88 57q-29 0 -52.5 -11.5t-46.5 -45.5zM406 1051q0 10 1 20q9 56 49 88q34 28 77 28q68 -3 97 -52q25 -35 25 -79q0 -9 -2 -19q-9 -57 -49 -89q-33 -27 -75 -27q-9 0 -18 1q-51 8 -81 51 q-24 34 -24 78z" />
<glyph unicode="&#xf7;" horiz-adv-x="1111" d="M90 523q0 12 4 28q11 44 39 80l906 2q8 -12 8 -31q0 -13 -4 -29q-11 -44 -38 -80l-906 -2q-9 13 -9 32zM371 298q0 11 2 22q10 61 53 96q36 29 81 29q9 0 19 -1q57 -9 89 -55q26 -37 26 -85q0 -11 -1 -21q-10 -60 -54 -95q-37 -30 -84 -30q-8 0 -16 1q-56 10 -88 55 q-27 37 -27 84zM502 822q0 11 1 22q10 61 53 95q37 30 84 30q8 0 16 -1q56 -10 88 -55q27 -37 27 -85q0 -10 -2 -21q-10 -61 -53 -95q-36 -30 -83 -30q-8 0 -17 1q-56 10 -88 55q-26 37 -26 84z" />
<glyph unicode="&#xf8;" horiz-adv-x="662" d="M-40 257q0 92 25.5 187.5t61.5 182.5q25 38 87 52q21 93 81.5 139t148.5 46q100 0 154 -81.5t54 -233.5q0 -59 -9 -122q59 10 102.5 43t66.5 91q0 -68 -48 -108t-125 -55q-19 -106 -67 -200q-48 -96 -122 -157t-170 -61q-84 0 -137 41.5t-78 105.5t-25 130zM205 300 q0 -23 4 -62q43 104 79 198q-32 15 -61 34q-22 -87 -22 -170zM239 685q41 -6 67 -26q-35 -55 -58 -118q24 -36 58 -61q51 133 91 244q-23 18 -59 18q-29 0 -52.5 -11.5t-46.5 -45.5zM262 137q9 -3 20 -3q37 0 68 38t54 98q22 59 34 126q-33 4 -64 11q-2 -3 -3 -7 q-24 -69 -109 -263zM386 441q26 -8 56 -13q9 69 9 129q0 28 -4 54q-30 -84 -61 -170z" />
<glyph unicode="&#xf9;" horiz-adv-x="824" d="M-40 156q0 73 25.5 207t58.5 261.5t60 192.5q30 43 105 43h10q83 -2 138 -38q-14 -47 -30 -101q-34 -108 -67.5 -233t-51.5 -256v-26q1 -54 21 -54q19 0 63 78q42 75 79 165q40 97 76 202q34 101 56 169l16 48q76 32 150 32q32 0 58.5 -8t40.5 -24q-27 -75 -62.5 -189 t-63 -231.5t-27.5 -195.5q0 -16 4.5 -31t20.5 -15q25 0 62.5 50t76.5 120t70 136t45 103q0 -19 -20.5 -84t-56.5 -148.5t-83 -162.5t-101 -132.5t-110 -53.5q-62 0 -95 29.5t-45.5 70.5t-12.5 76q0 60 14 139q-37 -80 -81 -151.5t-92.5 -117.5t-98.5 -46q-69 0 -110.5 44.5 t-41.5 131.5zM207 1178q0 25 19.5 45t51.5 20q54 0 100 -44t80.5 -104t54.5 -113t24 -74q-145 36 -237.5 118t-92.5 152z" />
<glyph unicode="&#xfa;" horiz-adv-x="824" d="M-40 156q0 73 25.5 207t58.5 261.5t60 192.5q30 43 105 43h10q83 -2 138 -38q-14 -47 -30 -101q-34 -108 -67.5 -233t-51.5 -256v-26q1 -54 21 -54q19 0 63 78q42 75 79 165q40 97 76 202q34 101 56 169l16 48q76 32 150 32q32 0 58.5 -8t40.5 -24q-27 -75 -62.5 -189 t-63 -231.5t-27.5 -195.5q0 -16 4.5 -31t20.5 -15q25 0 62.5 50t76.5 120t70 136t45 103q0 -19 -20.5 -84t-56.5 -148.5t-83 -162.5t-101 -132.5t-110 -53.5q-62 0 -95 29.5t-45.5 70.5t-12.5 76q0 60 14 139q-37 -80 -81 -151.5t-92.5 -117.5t-98.5 -46q-69 0 -110.5 44.5 t-41.5 131.5zM447 908q4 21 24 74t54.5 113t80.5 104t100 44q32 0 51.5 -20t19.5 -45q0 -70 -92.5 -152t-237.5 -118z" />
<glyph unicode="&#xfb;" horiz-adv-x="824" d="M-40 156q0 73 25.5 207t58.5 261.5t60 192.5q30 43 105 43h10q83 -2 138 -38q-14 -47 -30 -101q-34 -108 -67.5 -233t-51.5 -256v-26q1 -54 21 -54q19 0 63 78q42 75 79 165q40 97 76 202q34 101 56 169l16 48q76 32 150 32q32 0 58.5 -8t40.5 -24q-27 -75 -62.5 -189 t-63 -231.5t-27.5 -195.5q0 -16 4.5 -31t20.5 -15q25 0 62.5 50t76.5 120t70 136t45 103q0 -19 -20.5 -84t-56.5 -148.5t-83 -162.5t-101 -132.5t-110 -53.5q-62 0 -95 29.5t-45.5 70.5t-12.5 76q0 60 14 139q-37 -80 -81 -151.5t-92.5 -117.5t-98.5 -46q-69 0 -110.5 44.5 t-41.5 131.5zM268 957q0 44 41 91t98.5 86.5t114 64t86.5 24.5q7 0 12 -2l-1 -7q0 -19 16 -47.5t38 -61.5q24 -37 44.5 -74t20.5 -65q-1 -68 -77 -74q-43 3 -62.5 55t-24 117t-4.5 99q-14 -1 -31 -27.5t-38 -66.5q-22 -41 -47.5 -82.5t-55 -70t-63.5 -28.5q-27 1 -47 20.5 t-20 48.5z" />
<glyph unicode="&#xfc;" horiz-adv-x="824" d="M-40 156q0 73 25.5 207t58.5 261.5t60 192.5q30 43 105 43h10q83 -2 138 -38q-14 -47 -30 -101q-34 -108 -67.5 -233t-51.5 -256v-26q1 -54 21 -54q19 0 63 78q42 75 79 165q40 97 76 202q34 101 56 169l16 48q76 32 150 32q32 0 58.5 -8t40.5 -24q-27 -75 -62.5 -189 t-63 -231.5t-27.5 -195.5q0 -16 4.5 -31t20.5 -15q25 0 62.5 50t76.5 120t70 136t45 103q0 -19 -20.5 -84t-56.5 -148.5t-83 -162.5t-101 -132.5t-110 -53.5q-62 0 -95 29.5t-45.5 70.5t-12.5 76q0 60 14 139q-37 -80 -81 -151.5t-92.5 -117.5t-98.5 -46q-69 0 -110.5 44.5 t-41.5 131.5zM202 1052q0 10 1 20q9 56 49 88q34 28 78 28q68 -2 96 -52q25 -35 25 -79q0 -9 -2 -19q-9 -57 -49 -89q-33 -27 -75 -27q-9 0 -17 1q-52 8 -82 51q-24 34 -24 78zM504 1052q0 10 1 20q9 55 49 88q34 28 77 28q68 -4 97 -52q25 -35 25 -79q0 -10 -2 -20 q-9 -56 -49 -89q-33 -27 -75 -27q-9 0 -17 2q-52 8 -82 51q-24 34 -24 78z" />
<glyph unicode="&#xfd;" horiz-adv-x="790" d="M-145 -423q0 156 163 307q120 110 331 213q8 41 19 99q10 58 22 134q6 38 13 76q-26 -57 -55 -114q-52 -100 -112 -169t-123 -72q-65 1 -98 30.5t-44 71t-11 74.5q0 110 42 299t82 291q31 43 115 43q83 -2 139 -38l-30 -100q-29 -90 -55.5 -191.5t-43.5 -227.5v-26 q0 -19 5 -36.5t16 -17.5q22 0 63.5 77.5t84.5 177.5q40 95 83 232q11 44 22 71q27 57 155 61q62 0 104 -28q-48 -145 -92 -391q-15 -77 -31 -156l-12 -58q84 37 176 77q47 21 97 43q-5 -39 -284 -172q-31 -138 -70 -269q-26 -87 -61.5 -174t-86.5 -161q-56 -82 -137 -133.5 t-196 -51.5q-82 0 -136 57t-54 152zM-38 -420q0 -42 17 -68t55 -26q55 0 101 52t81 127q37 77 61 152t35 122q11 45 22 91q-72 -38 -143 -89.5t-127 -116.5q-46 -53 -74 -114t-28 -130zM387 909q4 21 24 74t54.5 112.5t80.5 104t100 44.5q32 0 51.5 -20t19.5 -45 q0 -70 -92.5 -152.5t-237.5 -117.5z" />
<glyph unicode="&#xfe;" horiz-adv-x="793" d="M-215 -548q56 267 167 716q101 408 293 1193q33 14 84 16h7q48 0 84 -13q35 -13 35 -44q0 -4 -1 -8q-151 -608 -172 -702q55 117 127 178.5t169 61.5q55 0 85.5 -42.5t38.5 -112.5q4 -31 4 -66q0 -43 -6 -90q99 26 180 30q20 0 23 -8q-147 -30 -208 -54q-5 -31 -13 -63 l-7 -28q-31 -113 -86 -213.5t-131 -165.5t-168 -65q-55 0 -85.5 21t-30.5 66q0 29 9 57t23 54q81 149 206 240q21 70 32 128.5t11 86.5q0 27 -8.5 43.5t-30.5 16.5q-43 0 -87.5 -77.5t-86 -201t-77.5 -266.5t-63 -278.5t-42.5 -238t-15.5 -138.5q-34 -49 -120 -59 q-19 -2 -36 -2q-62 0 -103 28zM225 87q0 -9 7 -9q25 0 53.5 40t56 102.5t51.5 133.5q-26 -24 -65 -72.5t-71 -102t-32 -89.5v-3z" />
<glyph unicode="&#xff;" horiz-adv-x="790" d="M-145 -423q0 156 163 307q120 110 331 213q8 41 19 99q10 58 22 134q6 38 13 76q-26 -57 -55 -114q-52 -100 -112 -169t-123 -72q-65 1 -98 30.5t-44 71t-11 74.5q0 110 42 299t82 291q31 43 115 43q83 -2 139 -38l-30 -100q-29 -90 -55.5 -191.5t-43.5 -227.5v-26 q0 -19 5 -36.5t16 -17.5q22 0 63.5 77.5t84.5 177.5q40 95 83 232q11 44 22 71q27 57 155 61q62 0 104 -28q-48 -145 -92 -391q-15 -77 -31 -156l-12 -58q84 37 176 77q47 21 97 43q-5 -39 -284 -172q-31 -138 -70 -269q-26 -87 -61.5 -174t-86.5 -161q-56 -82 -137 -133.5 t-196 -51.5q-82 0 -136 57t-54 152zM-38 -420q0 -42 17 -68t55 -26q55 0 101 52t81 127q37 77 61 152t35 122q11 45 22 91q-72 -38 -143 -89.5t-127 -116.5q-46 -53 -74 -114t-28 -130zM185 1052q0 9 1 19q9 56 49 88q34 28 78 28q68 -2 96 -52q25 -35 25 -78q0 -10 -1 -20 q-10 -56 -50 -89q-33 -27 -75 -27q-8 0 -17 1q-52 9 -82 51q-24 34 -24 79zM487 1051q0 10 1 20q9 56 49 88q34 28 78 28q68 -3 96 -52q25 -35 25 -79q0 -9 -1 -19q-10 -57 -50 -89q-33 -27 -75 -27q-9 0 -17 1q-52 8 -82 51q-24 34 -24 78z" />
<glyph unicode="&#x152;" horiz-adv-x="1339" d="M-40 430q0 140 24 266t58 229.5t66 176.5t50 108q34 19 78 26q34 5 67 5h18q18 49 53.5 89.5t93 65.5t141.5 25q103 0 176 -61q29 -25 52 -56q44 46 105 77q78 40 187 40q129 0 213 -71.5t84 -185.5q0 -60 -18.5 -120.5t-36.5 -97.5q-27 -26 -101 -31l-18 -1 q-64 0 -125 26q95 133 95 266q0 44 -17.5 75.5t-59.5 31.5q-58 0 -107 -63t-79 -157q-16 -48 -24 -95q1 -18 1 -35q0 -45 -5 -97q7 -48 33 -79q21 -26 58 -26q25 0 56 11q5 1 10 1q19 0 31 -23q15 -30 15 -72q-88 0 -161.5 -56t-118 -138.5t-44.5 -161.5q0 -64 27 -104.5 t70 -60.5t91 -20q76 0 138.5 36.5t115.5 97.5t99 136t88 154q-10 -61 -38.5 -137t-75.5 -153.5t-113 -143.5t-150.5 -106.5t-187.5 -40.5q-85 0 -156.5 34t-115.5 96q0 1 -1 1q-44 -39 -94 -69q-105 -62 -231 -62q-112 0 -181.5 60.5t-102 162.5t-32.5 227zM220 443 q0 -81 18 -150.5t57.5 -112.5t104.5 -43q63 0 118 49q21 19 41 43q-1 12 -1 25q0 95 52 183q40 68 97 124q18 69 29 141q-183 14 -284 91t-134 185q-45 -131 -71.5 -265.5t-26.5 -269.5zM427 1065q0 -65 31.5 -127t101.5 -108.5t184 -67.5q3 28 4 55q0 1 -1 3 q-34 58 -34 157q0 63 17 128l-1 4q-23 68 -59 98t-77 30t-79.5 -17.5t-62.5 -55.5t-24 -99z" />
<glyph unicode="&#x153;" horiz-adv-x="1082" d="M-40 257q0 92 25.5 187.5t61.5 182.5q25 38 87 52q21 93 81.5 139t148.5 46q100 0 154 -81q28 -43 42 -105q3 7 7 14q29 54 72 92q66 62 169 62q75 0 141 -37q39 -24 63.5 -63t24.5 -93q0 -64 -34 -128q-29 -55 -76 -93q-58 -48 -130 -48q-45 0 -79 36q-21 -106 -21 -145 q0 -60 14 -94q24 -51 67 -51q64 0 120 40q54 37 100 96q40 52 73 112q52 96 81 183q0 -59 -58 -201q-30 -69 -73 -138q-59 -96 -139 -164q-86 -74 -190 -78h-6q-97 0 -169 73q-30 33 -47 84q-3 6 -5 13q-40 -64 -95 -109q-74 -61 -170 -61q-84 0 -137 41.5t-78 105.5 t-25 130zM205 300q0 -24 4.5 -63.5t21 -71t51.5 -31.5q37 0 68 38t54 98q22 59 34 126q-121 14 -211 74q-22 -87 -22 -170zM239 685q41 -6 67 -26q-35 -55 -58 -118q62 -93 194 -113q9 69 9 129q0 71 -25 128t-88 57q-29 0 -52.5 -11.5t-46.5 -45.5zM726 458q20 -16 38 -16 q35 0 65 44q30 42 46 97q22 84 22 130v4q0 41 -18 41q-20 0 -38.5 -18.5t-35.5 -50.5q-27 -51 -49 -121q-17 -55 -30 -110z" />
<glyph unicode="&#x178;" horiz-adv-x="1192" d="M-40 757q0 122 62 240.5t162 214t218 153t230 57.5q39 0 65.5 -15.5t42.5 -34.5t22 -31q-30 -86 -91 -280t-114.5 -400.5t-53.5 -307.5q0 -16 4 -31t20 -15q38 0 96.5 90t123.5 226t126 282t106.5 264.5t63.5 172.5q76 32 150 32q32 0 58.5 -8t40.5 -25 q-106 -301 -171 -565.5t-128 -566.5q85 37 176 77q48 21 97 43q-147 -93 -282 -165q-31 -142 -71 -276q-26 -87 -61.5 -174t-86.5 -161q-56 -83 -137 -134t-197 -51q-82 0 -135.5 57t-53.5 152q0 136 123 267.5t371 252.5q39 180 69 328q30 144 59 275q-42 -106 -93 -206.5 t-109 -181.5t-121.5 -129t-129.5 -48q-63 0 -96 29t-45 70.5t-12 76.5q0 110 46 303.5t103 386t97 312.5q-95 0 -184 -76.5t-146 -189.5t-57 -222q0 -66 25 -123.5t81 -95.5q-3 -1 -5 -2q-22 -11 -42.5 -18t-55.5 -7q-56 0 -91 28t-52 69.5t-17 80.5zM349 -420 q0 -42 16.5 -68t54.5 -26q56 0 102 52t81 127q36 77 60 152t36 122q11 45 21 91q-65 -35 -130 -81t-119.5 -102.5t-88 -123.5t-33.5 -143zM678 1634q0 10 1 20q10 55 50 88q34 27 77 27q68 -2 97 -51q24 -35 24 -79q0 -10 -1 -20q-9 -56 -49 -89q-33 -27 -75 -27q-9 0 -18 1 q-52 9 -81 51q-25 35 -25 79zM980 1634q0 9 1 19q10 56 50 89q34 27 77 27q68 -3 97 -52q24 -35 24 -78q0 -10 -1 -20q-9 -56 -49 -89q-33 -27 -76 -27q-8 0 -17 1q-52 9 -81 51q-25 34 -25 79z" />
<glyph unicode="&#x2c6;" horiz-adv-x="530" d="M30 957q0 44 41 91t99 86.5t114 64t86 24.5q7 0 12 -2v-7q0 -19 16 -47.5t37 -61.5q25 -37 45 -74t20 -65q-1 -68 -76 -74q-44 3 -63.5 55t-24 117t-4.5 99q-14 -1 -31 -27.5t-38 -66.5q-22 -41 -47.5 -82.5t-55 -70t-63.5 -28.5q-27 1 -47 20.5t-20 48.5z" />
<glyph unicode="&#x2dc;" horiz-adv-x="567" d="M30 885q11 89 35 140.5t58.5 73t73.5 21.5q32 0 62 -7.5t58 -17.5q28 -9 56 -16t58 -7q31 0 59 17t47 58q-8 -115 -43 -169.5t-102 -54.5q-31 0 -57 8t-51 18q-26 11 -54.5 20t-63.5 9q-38 0 -74 -21.5t-62 -71.5z" />
<glyph unicode="&#x2000;" horiz-adv-x="916" />
<glyph unicode="&#x2001;" horiz-adv-x="1833" />
<glyph unicode="&#x2002;" horiz-adv-x="916" />
<glyph unicode="&#x2003;" horiz-adv-x="1833" />
<glyph unicode="&#x2004;" horiz-adv-x="611" />
<glyph unicode="&#x2005;" horiz-adv-x="458" />
<glyph unicode="&#x2006;" horiz-adv-x="305" />
<glyph unicode="&#x2007;" horiz-adv-x="305" />
<glyph unicode="&#x2008;" horiz-adv-x="229" />
<glyph unicode="&#x2009;" horiz-adv-x="366" />
<glyph unicode="&#x200a;" horiz-adv-x="101" />
<glyph unicode="&#x2010;" horiz-adv-x="827" d="M90 374q0 13 4 28q12 44 39 80q536 0 622 2q8 -12 8 -31q0 -13 -4 -29q-11 -44 -38 -80h-159.5t-206 -0.5t-177.5 -1t-79 -0.5q-9 13 -9 32z" />
<glyph unicode="&#x2011;" horiz-adv-x="827" d="M90 374q0 13 4 28q12 44 39 80q536 0 622 2q8 -12 8 -31q0 -13 -4 -29q-11 -44 -38 -80h-159.5t-206 -0.5t-177.5 -1t-79 -0.5q-9 13 -9 32z" />
<glyph unicode="&#x2012;" horiz-adv-x="827" d="M90 374q0 13 4 28q12 44 39 80q536 0 622 2q8 -12 8 -31q0 -13 -4 -29q-11 -44 -38 -80h-159.5t-206 -0.5t-177.5 -1t-79 -0.5q-9 13 -9 32z" />
<glyph unicode="&#x2013;" horiz-adv-x="1615" d="M24 381q0 13 3 28q9 44 31 80q1304 2 1317 2q6 -12 6 -31q0 -13 -3 -29q-9 -44 -30 -80q-47 0 -678.5 -1t-638.5 -1q-7 13 -7 32z" />
<glyph unicode="&#x2014;" horiz-adv-x="2278" d="M24 381q0 13 3 28q9 44 31 80l1980 2q6 -12 6 -31q0 -13 -3 -29q-9 -44 -30 -80q-47 0 -1010 -1t-970 -1q-7 13 -7 32z" />
<glyph unicode="&#x2018;" horiz-adv-x="488" d="M101 829q0 96 87.5 217.5t209.5 213.5t233 111q-94 -60 -195 -206t-106 -240q40 -39 40 -96q-5 -67 -42 -106.5t-96 -39.5t-95 45t-36 101z" />
<glyph unicode="&#x2019;" horiz-adv-x="467" d="M-41 683q94 60 195 206t106 240q-40 39 -40 95q5 68 42 107.5t96 39.5t95 -45t36 -101q0 -96 -87.5 -217.5t-209.5 -213.5t-233 -111z" />
<glyph unicode="&#x201a;" horiz-adv-x="513" d="M-180 -421q94 60 195 206t106 239q-39 40 -39 96q4 68 41 107.5t96 39.5t95 -45t36 -101q0 -96 -87.5 -217.5t-209.5 -213.5t-233 -111z" />
<glyph unicode="&#x201c;" horiz-adv-x="819" d="M101 829q0 96 87.5 217.5t209.5 213.5t233 111q-94 -60 -195 -206t-106 -240q40 -39 40 -96q-5 -67 -42 -106.5t-96 -39.5t-95 45t-36 101zM432 828q0 96 87.5 217.5t209.5 213.5t233 111q-94 -60 -195 -206t-106 -239q40 -40 40 -96q-5 -68 -42 -107.5t-96 -39.5t-95 45 t-36 101z" />
<glyph unicode="&#x201d;" horiz-adv-x="823" d="M-41 683q94 60 195 206t106 240q-39 39 -39 95q4 68 41 107.5t96 39.5t95 -45t36 -101q0 -96 -87.5 -217.5t-209.5 -213.5t-233 -111zM315 682q94 60 195 206.5t106 239.5q-40 39 -40 96q5 67 42 106.5t96 39.5t95 -45t36 -101q0 -96 -87.5 -217.5t-209.5 -213.5 t-233 -111z" />
<glyph unicode="&#x201e;" horiz-adv-x="869" d="M-180 -344q94 60 195 206t106 240q-39 39 -39 95q4 68 41 107.5t96 39.5t95 -45t36 -101q0 -96 -87.5 -217.5t-209.5 -213.5t-233 -111zM176 -345q94 60 195 206.5t106 239.5q-40 39 -40 96q5 67 42 106.5t96 39.5t95 -45t36 -101q0 -96 -87.5 -217.5t-209.5 -213.5 t-233 -111z" />
<glyph unicode="&#x2022;" horiz-adv-x="590" d="M30 356q0 24 3 49q10 72 46 136.5t95 106t137 41.5q101 0 159 -41.5t78 -105.5q13 -41 13 -84q0 -26 -5 -53q-13 -72 -54 -136.5t-104.5 -105t-144.5 -41.5q-88 1 -140 41.5t-71 105.5q-12 42 -12 87z" />
<glyph unicode="&#x2026;" horiz-adv-x="2048" d="M82 121q0 10 1 21q10 61 53 96q37 29 82 29q9 0 18 -1q57 -9 89 -55q26 -36 26 -82q0 -12 -2 -24q-9 -60 -53 -95q-36 -30 -83 -30q-8 0 -17 1q-56 10 -88 55q-26 38 -26 85zM765 121q0 10 1 21q10 61 53 96q37 29 82 29q9 0 18 -1q57 -9 89 -55q26 -36 26 -82 q0 -12 -2 -24q-9 -60 -53 -95q-36 -30 -83 -30q-8 0 -17 1q-56 10 -88 55q-26 38 -26 85zM1448 121q0 10 1 21q10 61 53 96q37 29 82 29q9 0 18 -1q57 -9 89 -55q26 -36 26 -82q0 -12 -2 -24q-9 -60 -53 -95q-36 -30 -83 -30q-8 0 -17 1q-56 10 -88 55q-26 38 -26 85z" />
<glyph unicode="&#x202f;" horiz-adv-x="366" />
<glyph unicode="&#x2039;" horiz-adv-x="562" d="M30 373q0 12 4 28q11 44 39 80q93 0 171 30t136.5 73.5t93.5 86t42 69.5q16 -34 16 -65q0 -58 -48 -104t-116 -79t-133.5 -53t-103.5 -27q26 -2 69.5 -17.5t89 -43.5t77 -69t31.5 -95q0 -36 -13 -64t-27 -37q-30 43 -83.5 102t-117 106t-118.5 47q-9 13 -9 32z" />
<glyph unicode="&#x203a;" horiz-adv-x="562" d="M30 151q0 58 48 104t116 79t133.5 53t103.5 27q-26 2 -69.5 17.5t-89 43.5t-77 69t-31.5 95q0 36 13 64t27 37q30 -43 83.5 -102t117 -106t118.5 -47q9 -13 9 -32q0 -12 -4 -28q-11 -44 -39 -80q-93 0 -171 -30t-136.5 -73.5t-93.5 -86t-42 -69.5q-16 34 -16 65z" />
<glyph unicode="&#x205f;" horiz-adv-x="458" />
<glyph unicode="&#x20ac;" horiz-adv-x="1112" d="M30 419q0 13 4 28q12 44 39 80h143q4 47 10 95q-60 -1 -97 -1h-40q-8 12 -8 31q0 13 4 29q11 44 38 80h128q28 128 77.5 246t120 211.5t161 148t200.5 54.5q101 0 160 -34.5t85 -90.5t26.5 -123.5t-16 -135t-42.5 -124.5q-28 -27 -108 -31h-19q-69 0 -130 25 q26 21 51.5 67.5t45 104t26.5 110.5q4 24 4 44q0 26 -6 45q-10 36 -44 36q-74 0 -140 -76.5t-116.5 -201.5t-80.5 -274q146 0 239 0.5t103 0.5q9 -13 9 -32q0 -12 -4 -28q-11 -44 -38 -80h-331q-6 -48 -8 -95q138 0 225 0.5t97 0.5q9 -13 9 -32q0 -13 -4 -28 q-12 -44 -39 -80h-289q8 -90 37.5 -145.5t71.5 -81t87 -25.5q54 0 103 33.5t75 91.5q0 -71 -33.5 -136t-104.5 -105.5t-182 -40.5q-106 0 -173.5 54t-102 146t-39.5 208q-76 0 -123.5 -0.5t-51.5 -0.5q-9 13 -9 32z" />
<glyph unicode="&#x2122;" horiz-adv-x="1205" d="M-40 1177q0 32 17.5 66.5t56 64t100.5 48t152 18.5q103 0 162 -28q0 -11 -5 -29.5t-14.5 -33.5t-21.5 -19q-21 17 -56.5 36t-78.5 26q-32 5 -64 5q-12 0 -23 -1q-43 -2 -79.5 -16.5t-59 -43t-22.5 -75.5q0 -28 18 -43.5t44 -15.5q0 -20 -7 -31.5t-18 -16.5t-22 -5 q-36 0 -57.5 27.5t-21.5 66.5zM96 796q0 93 44.5 258.5t44.5 223.5q20 22 73 24q26 0 43 -11q0 -30 -44 -206.5t-44 -275.5q-20 -18 -57 -23q-9 -1 -16 -1q-26 0 -44 11zM327 1096q0 49 28 96.5t72.5 85.5t98 61t103.5 23q23 0 34.5 -8.5t14.5 -20.5q2 -8 2 -16q0 -6 -1 -12 q-3 -16 -8 -29q-2 -5 -4 -11q-16 -43 -43 -120.5t-50.5 -156.5t-23.5 -118v-2q0 -14 7 -14q7 22 22 65.5t37.5 98t51 111t61 104t69 77t74.5 29.5q17 0 27 -5t13.5 -13t3.5 -15q0 -42 -20.5 -108.5t-46.5 -135.5q-23 -61 -39 -112.5t-16 -79.5v-2q0 -14 6 -14q7 22 21.5 62 t36 89.5t48 100t57 93t64 69t67.5 26.5q15 0 29.5 -7.5t14.5 -23.5q0 -33 -16.5 -89.5t-38.5 -118.5q-19 -57 -34 -106.5t-15 -75.5q0 -7 2 -13t10 -6q15 0 45 33.5t56.5 71.5t35.5 59q0 -8 -11.5 -34t-31 -59.5t-44 -65t-51.5 -53t-52 -21.5q-32 0 -47.5 19.5t-19.5 51.5 q-1 12 -1 25q0 22 3 47q6 39 17 80.5t24 78.5t24.5 64.5t17.5 39.5q-14 0 -41.5 -44.5t-58.5 -109t-57 -129.5t-39 -111q-30 -12 -54 -12h-2q-46 2 -61 40q-9 26 -9 61q0 18 2 39q8 60 26.5 124t37.5 114.5t29 71.5q-14 0 -55.5 -75t-84 -175t-65.5 -184q-15 -8 -33 -12 t-30 -4q-31 0 -49.5 18t-18.5 53q0 55 19.5 134.5t45 156.5t43.5 130q2 4 3 7v1q2 3 3 7t1 8t-2.5 6.5t-9.5 2.5q-28 0 -56 -19t-49.5 -48t-35 -61t-13.5 -58t11.5 -49t36.5 -38q-1 -1 -2 -1q-10 -4 -19.5 -7t-24.5 -3q-25 0 -41 11t-23.5 28t-7.5 32z" />
<glyph unicode="&#x25fc;" horiz-adv-x="840" d="M0 0v840h840v-840h-840z" />
</font>
</defs>
</svg>
