<?xml version="1.0" standalone="no"?>
<!DOCTYPE svg PUBLIC "-//W3C//DTD SVG 1.1//EN" "http://www.w3.org/Graphics/SVG/1.1/DTD/svg11.dtd" >
<svg xmlns="http://www.w3.org/2000/svg" xmlns:xlink="http://www.w3.org/1999/xlink" version="1.1">
<metadata></metadata>
<defs>
<font id="gravityregular" horiz-adv-x="1208" >
<font-face units-per-em="2048" ascent="1638" descent="-410" />
<missing-glyph horiz-adv-x="423" />
<glyph horiz-adv-x="0" />
<glyph horiz-adv-x="682" />
<glyph unicode=" "  horiz-adv-x="423" />
<glyph unicode="&#x09;" horiz-adv-x="423" />
<glyph unicode="&#xa0;" horiz-adv-x="423" />
<glyph unicode="!" horiz-adv-x="684" d="M238 33v157q0 33 32 33h144q32 0 32 -33v-157q0 -33 -32 -33h-144q-32 0 -32 33zM256 487l6 979q0 15 9 24t24 9h108q15 0 24 -9t9 -24l6 -979q0 -32 -32 -32h-121q-33 0 -33 32z" />
<glyph unicode="&#x22;" horiz-adv-x="931" d="M231 1044l58 441q3 31 35 31h92q34 0 28 -35l-69 -441q-3 -30 -35 -30h-78q-34 0 -31 34zM567 1044l56 441q3 31 34 31h95q34 0 28 -35l-71 -441q-3 -30 -35 -30h-76q-34 0 -31 34z" />
<glyph unicode="#" horiz-adv-x="1538" d="M111 545l16 76q6 28 35 28h260l59 289h-254q-17 0 -25 10t-3 25l14 78q6 28 37 28h262l80 389q6 29 37 29h80q17 0 24.5 -10t3.5 -27l-78 -381h332l82 389q6 29 35 29h82q17 0 25 -10t4 -27l-78 -381h258q17 0 25 -10t3 -25l-14 -77q-6 -29 -37 -29h-264l-59 -289h260 q17 0 25 -10t3 -25l-14 -77q-6 -29 -37 -29h-266l-98 -479q-6 -29 -37 -29h-86q-17 0 -25 10t-4 27l98 471h-329l-99 -479q-6 -29 -36 -29h-84q-17 0 -25 10t-4 27l98 471h-254q-17 0 -24.5 10t-3.5 27zM571 649h330l62 289h-332z" />
<glyph unicode="$" horiz-adv-x="1284" d="M102 403q-5 15 3.5 25t25.5 10h107q24 0 36 -24q110 -221 414 -221q155 0 239.5 52.5t84.5 149.5q0 92 -83 157t-270 124l-79 24q-211 64 -315.5 148.5t-108.5 220.5q-4 149 111.5 244.5t301.5 113.5l-6 240q0 15 9 24t24 9h90q15 0 24 -9t9 -24l-6 -240 q167 -14 279.5 -100t160.5 -209q6 -17 -1.5 -27t-25.5 -10h-102q-28 0 -39 23q-49 81 -138.5 131.5t-217.5 50.5q-143 0 -220 -52.5t-77 -141.5q0 -87 77 -138.5t265 -105.5l76 -23q231 -68 335.5 -167.5t104.5 -239.5q0 -167 -129 -265t-348 -106l6 -237q0 -15 -9 -24 t-24 -9h-90q-15 0 -24 9t-9 24l6 243q-103 13 -187.5 49t-139.5 86.5t-89.5 104t-50.5 110.5z" />
<glyph unicode="%" horiz-adv-x="1607" d="M94 1229q0 119 83.5 201.5t203.5 82.5q119 0 202 -83t83 -201q0 -120 -83 -203.5t-202 -83.5q-120 0 -203.5 83.5t-83.5 203.5zM216.5 12q-6.5 12 4.5 27l991 1436q14 20 39 20h97q21 0 27 -12t-5 -27l-989 -1436q-14 -20 -39 -20h-98q-21 0 -27.5 12zM229 1229 q0 -63 44.5 -107.5t107.5 -44.5q62 0 105.5 44.5t43.5 107.5t-43.5 106t-105.5 43q-63 0 -107.5 -43t-44.5 -106zM932 268q0 119 83.5 202t203.5 83q118 0 201 -83t83 -202q0 -120 -82.5 -203t-201.5 -83q-120 0 -203.5 83t-83.5 203zM1067 268q0 -63 44.5 -107t107.5 -44 q62 0 105.5 44t43.5 107t-43.5 106.5t-105.5 43.5q-63 0 -107.5 -43.5t-44.5 -106.5z" />
<glyph unicode="&#x26;" horiz-adv-x="1509" d="M147 354q0 134 85.5 238.5t256.5 206.5q-90 106 -132 190t-42 178q0 156 104 257.5t279 101.5q172 0 270.5 -98.5t98.5 -247.5q0 -124 -75.5 -224t-243.5 -206l327 -369q25 77 25 164q0 35 -6 88q-3 35 30 35h105q31 0 37 -29q8 -49 8 -109q0 -162 -74 -288l180 -201 q14 -17 9 -29t-27 -12h-152q-23 0 -41 18l-77 91q-174 -144 -435 -144q-228 0 -369 106t-141 283zM326 362q0 -106 91.5 -171.5t250.5 -65.5q203 0 315 106l-391 449q-139 -85 -202.5 -160.5t-63.5 -157.5zM485 1174q0 -66 41 -140t121 -168q127 82 188.5 151.5t61.5 156.5 q0 83 -53.5 140.5t-147.5 57.5q-96 0 -153.5 -58t-57.5 -140z" />
<glyph unicode="'" horiz-adv-x="598" d="M231 1044l58 441q3 31 35 31h92q34 0 28 -35l-69 -441q-3 -30 -35 -30h-78q-34 0 -31 34z" />
<glyph unicode="(" horiz-adv-x="876" d="M213 528q0 288 105.5 547.5t287.5 433.5q21 21 47 4l33 -24q24 -18 6 -45q-284 -371 -284 -916q0 -267 73 -500t211 -415q18 -27 -8 -45l-31 -23q-26 -17 -47 4q-182 174 -287.5 433t-105.5 546z" />
<glyph unicode=")" horiz-adv-x="876" d="M184 -387q138 181 211.5 413.5t73.5 501.5t-73.5 502.5t-211.5 413.5q-18 27 6 45l33 24q26 17 47 -4q182 -174 288 -434t106 -547q0 -288 -105.5 -546.5t-288.5 -432.5q-21 -21 -47 -4l-30 23q-27 18 -9 45z" />
<glyph unicode="*" horiz-adv-x="913" d="M162 1036q-18 29 14 45l197 86l-199 88q-31 14 -12 45l33 58q18 30 47 10l174 -127l-21 215q-3 35 31 35l66 -2q33 0 30 -35l-20 -213l174 125q30 20 45 -10l33 -58q14 -29 -15 -45l-198 -86l196 -88q32 -16 15 -45l-33 -57q-18 -30 -47 -10l-170 125l18 -211 q3 -35 -31 -35h-67q-34 0 -31 35l23 213l-174 -125q-30 -20 -45 10z" />
<glyph unicode="+" horiz-adv-x="1517" d="M246 500v86q0 32 33 32h401v404q0 15 9 24t24 9h92q15 0 24 -9t9 -24v-404h401q33 0 33 -32v-86q0 -15 -9 -24t-24 -9h-401v-406q0 -32 -33 -32h-92q-33 0 -33 32v406h-401q-15 0 -24 9t-9 24z" />
<glyph unicode="," horiz-adv-x="692" d="M246 25v157q0 15 9 24t24 9h143q15 0 24 -9t9 -24v-127q0 -134 -30.5 -217.5t-100.5 -154.5q-21 -21 -45 -9l-11 7q-30 17 -8 45q36 52 51 100t5 89.5t-48 68.5q-22 19 -22 41z" />
<glyph unicode="-" horiz-adv-x="1206" d="M246 532v93q0 32 33 32h649q33 0 33 -32v-93q0 -32 -33 -32h-649q-33 0 -33 32z" />
<glyph unicode="." horiz-adv-x="612" d="M205 35v147q0 15 9 24t24 9h137q15 0 24 -9t9 -24v-147q0 -15 -9 -24t-24 -9h-137q-15 0 -24 9t-9 24z" />
<glyph unicode="/" horiz-adv-x="825" d="M66 37l509 1433q12 27 39 27h121q17 0 24 -10t1 -27l-508 -1433q-12 -27 -39 -27h-123q-37 0 -24 37z" />
<glyph unicode="0" horiz-adv-x="1253" d="M94 743q0 356 147 561t394 205q241 0 382.5 -198t141.5 -547q0 -359 -147.5 -570.5t-393.5 -211.5q-239 0 -381.5 205t-142.5 556zM274 766q0 -299 96.5 -462t264.5 -163q164 0 255 156t91 440q0 296 -96.5 454.5t-263.5 158.5q-165 0 -256 -151.5t-91 -432.5z" />
<glyph unicode="1" horiz-adv-x="1052" d="M117 1096q-23 26 2 45l397 336q20 14 41 14h205q15 0 24 -9t9 -24l8 -1425q0 -15 -9 -24t-24 -9h-129q-15 0 -24 9t-9 24l8 1310h-14l-375 -323q-26 -20 -47 4z" />
<glyph unicode="2" horiz-adv-x="1232" d="M164 1151q21 74 62 138.5t101 116t144.5 81t183.5 29.5q103 0 187 -33t138 -89t83 -129t29 -155q0 -67 -21.5 -132.5t-68.5 -138t-96 -133t-130 -151.5l-344 -381v-8h674q15 0 24 -9t9 -24v-100q0 -15 -9 -24t-24 -9h-899q-15 0 -24 9t-9 24v82q0 30 21 53l458 489 q137 145 203 249t66 200q0 111 -74.5 180.5t-202.5 69.5q-110 0 -192 -55.5t-121 -159.5q-9 -27 -37 -27h-105q-17 0 -24.5 10t-1.5 27z" />
<glyph unicode="3" horiz-adv-x="1206" d="M98 348q-6 35 31 35h117q27 0 37 -29q26 -103 113 -159t212 -56q153 0 241.5 79t88.5 216q0 275 -408 275h-63q-33 0 -33 32v86q0 15 9 24t24 9h63q187 0 277 66t90 180q0 111 -76 180.5t-205 69.5q-113 0 -195 -55.5t-120 -159.5q-9 -27 -37 -27h-104q-17 0 -25 10 t-4 27q21 73 62 137t101.5 116t145.5 82t185 30q104 0 189 -32.5t139.5 -87t84 -125.5t29.5 -149q0 -111 -60.5 -198t-179.5 -131q143 -45 214 -140t71 -227q0 -193 -130.5 -319.5t-365.5 -126.5q-214 0 -352 107t-166 261z" />
<glyph unicode="4" horiz-adv-x="1310" d="M94 375v86q0 49 19 80l657 919q13 18 23 24.5t28 6.5h115q15 0 24 -9t9 -24l6 -960h209q15 0 24 -9t9 -24v-90q0 -15 -9 -24t-24 -9h-209l2 -309q0 -15 -9 -24t-24 -9h-119q-32 0 -32 33l2 309h-668q-15 0 -24 9t-9 24zM274 498h521l4 733h-11l-514 -727v-6z" />
<glyph unicode="5" horiz-adv-x="1210" d="M98 348q-6 35 31 35h117q29 0 35 -29q28 -101 113.5 -158t217.5 -57q158 0 244 83t86 239q0 155 -84.5 242.5t-241.5 87.5q-148 0 -268 -84q-22 -15 -41 -13l-106 4q-32 3 -29 35l68 727q3 31 32 31h750q15 0 24 -9t9 -24v-100q0 -15 -9 -24t-24 -9h-633l-41 -448h14 q128 73 277 73q218 0 347.5 -138.5t129.5 -350.5q0 -135 -54.5 -242t-169 -173t-274.5 -66q-108 0 -201 30t-158 81.5t-106.5 117.5t-54.5 139z" />
<glyph unicode="6" horiz-adv-x="1259" d="M109 692q0 383 152.5 604.5t414.5 221.5q177 0 293 -94.5t151 -247.5q5 -15 -3 -25t-25 -10h-103q-28 0 -37 26q-32 90 -107 140.5t-175 50.5q-168 0 -267 -144.5t-118 -410.5h18q170 112 363 112q222 0 360.5 -132.5t138.5 -338.5q0 -112 -38.5 -202.5t-106 -148.5 t-157 -89t-193.5 -31q-125 0 -226.5 42.5t-177 128.5t-116.5 225.5t-41 322.5zM281 633q17 -498 381 -498q150 0 242.5 80.5t92.5 220.5q0 136 -91.5 228t-264.5 92q-204 0 -360 -123z" />
<glyph unicode="7" horiz-adv-x="1177" d="M94 1360v98q0 15 9 24t24 9h924q32 0 32 -33v-78q0 -27 -20 -63q-324 -595 -576 -1290q-12 -27 -38 -27h-144q-38 0 -26 39q273 693 604 1274v14h-756q-15 0 -24 9t-9 24z" />
<glyph unicode="8" horiz-adv-x="1261" d="M109 403q0 142 73 242.5t183 147.5v8q-187 96 -187 313q0 179 125 295.5t328 116.5q201 0 326.5 -116.5t125.5 -291.5q0 -114 -52.5 -194t-143.5 -125v-6q121 -44 193.5 -146t72.5 -244q0 -199 -142.5 -318.5t-379.5 -119.5q-234 0 -378 119.5t-144 318.5zM287 412 q0 -130 92 -208.5t252 -78.5t252 78.5t92 208.5q0 133 -95 218t-249 85t-249 -85t-95 -218zM348 1110q0 -113 76.5 -187.5t206.5 -74.5q129 0 205.5 74.5t76.5 187.5q0 115 -78 188.5t-204 73.5q-128 0 -205.5 -73.5t-77.5 -188.5z" />
<glyph unicode="9" horiz-adv-x="1286" d="M141 1047q0 207 134 339t352 132q90 0 168.5 -23.5t150 -77.5t122 -135.5t80.5 -205t30 -277.5q0 -395 -152.5 -610.5t-419.5 -215.5q-182 0 -303 96t-158 246q-9 35 29 35l109 4q27 0 36 -28q30 -91 109 -141t184 -50q175 0 276 146.5t116 420.5h-21 q-166 -112 -362 -112q-214 0 -347 127.5t-133 329.5zM309 1040q0 -125 87 -207.5t253 -82.5q197 0 355 118q-5 112 -28 198t-57.5 141t-82 90t-98 49t-109.5 14q-145 0 -232.5 -84.5t-87.5 -235.5z" />
<glyph unicode=":" horiz-adv-x="602" d="M207 57v158q0 15 9 24t24 9h143q15 0 24 -9t9 -24v-158q0 -32 -33 -32h-143q-33 0 -33 32zM209 930v157q0 15 9 24t24 9h143q15 0 24 -9t9 -24v-157q0 -15 -9 -24t-24 -9h-143q-15 0 -24 9t-9 24z" />
<glyph unicode=";" horiz-adv-x="628" d="M213 25v157q0 15 9 24t24 9h145q15 0 24 -9t9 -24v-127q0 -132 -31 -216t-100 -156q-22 -22 -45 -7l-8 5q-33 17 -11 45q36 52 50.5 100t4.5 89.5t-48 68.5q-23 20 -23 41zM213 930v157q0 15 9 24t24 9h145q15 0 24 -9t9 -24v-157q0 -15 -9 -24t-24 -9h-145q-15 0 -24 9 t-9 24z" />
<glyph unicode="&#x3c;" horiz-adv-x="1464" d="M246 489v99q0 28 24 37l910 401q17 8 28 1t11 -26v-90q0 -28 -25 -37l-772 -335l772 -326q25 -9 25 -37v-92q0 -19 -11 -26t-28 1l-910 394q-24 9 -24 36z" />
<glyph unicode="=" horiz-adv-x="1505" d="M246 260v86q0 15 9 24t24 9h950q15 0 24 -9t9 -24v-86q0 -15 -9 -24t-24 -9h-950q-15 0 -24 9t-9 24zM246 711v86q0 32 33 32h950q33 0 33 -32v-86q0 -15 -9 -24t-24 -9h-950q-15 0 -24 9t-9 24z" />
<glyph unicode="&#x3e;" horiz-adv-x="1464" d="M246 84v92q0 28 24 37l772 334l-772 327q-24 9 -24 37v90q0 19 11 26t28 -1l909 -393q25 -9 25 -37v-98q0 -28 -25 -37l-909 -402q-17 -8 -28 -1t-11 26z" />
<glyph unicode="?" horiz-adv-x="1173" d="M109 1139q37 159 167.5 268t335.5 109q215 0 337 -118.5t122 -299.5q0 -160 -104 -286t-310 -232v-144q0 -33 -32 -33h-127q-15 0 -24 9t-9 24l2 189q0 27 25 39q214 103 306.5 203t92.5 223q0 120 -77 190t-210 70q-115 0 -198.5 -54t-118.5 -155q-9 -27 -37 -27h-111 q-17 0 -25 7t-5 18zM428 16v150q0 15 9 24t24 9h137q15 0 24 -9t9 -24v-150q0 -32 -33 -32h-137q-33 0 -33 32z" />
<glyph unicode="@" horiz-adv-x="1843" d="M147 530q0 174 60.5 321t166.5 247.5t252.5 156.5t315.5 56q219 0 391 -92.5t267.5 -258.5t95.5 -378q0 -191 -79 -297.5t-216 -106.5q-86 0 -151.5 43.5t-98.5 118.5h-8q-39 -85 -109.5 -132.5t-165.5 -47.5q-142 0 -230.5 100.5t-88.5 269.5q0 175 93 282.5t230 107.5 q70 0 129.5 -29.5t88.5 -79.5h6v55q0 33 32 33h84q15 0 24 -9t9 -24v-315q0 -106 37.5 -163.5t106.5 -57.5q73 0 111 65t38 189q0 259 -162 414t-426 155q-181 0 -325 -73.5t-229 -216t-85 -331.5q0 -130 42.5 -238.5t122.5 -187.5t203.5 -123t278.5 -44q121 0 250 22 q35 6 35 -31v-86q0 -28 -29 -34q-119 -29 -258 -29q-246 0 -429.5 93t-281.5 262.5t-98 393.5zM707 541q0 -105 54.5 -167.5t139.5 -62.5t135.5 62.5t50.5 163.5v18q0 97 -51 155t-137 58q-90 0 -141 -62t-51 -165z" />
<glyph unicode="A" horiz-adv-x="1363" d="M47 37l526 1425q12 27 39 27h142q30 0 39 -27l526 -1425q6 -17 -1 -27t-26 -10h-118q-27 0 -39 27l-156 434h-592l-156 -434q-12 -27 -38 -27h-119q-19 0 -26 10t-1 27zM446 625h474l-232 643h-10z" />
<glyph unicode="B" horiz-adv-x="1374" d="M147 33l9 1423q0 33 32 33h560q204 0 326 -109.5t122 -281.5q0 -93 -36 -173t-103 -137q108 -52 165.5 -143t57.5 -209q0 -188 -129.5 -312t-341.5 -124h-629q-15 0 -24 9t-9 24zM334 1329l2 -481h420q123 0 191.5 63t68.5 174t-77.5 177.5t-211.5 66.5h-393zM338 686 l2 -526h457q144 0 223.5 70t79.5 190q0 122 -86.5 194t-241.5 72h-434z" />
<glyph unicode="C" horiz-adv-x="1519" d="M94 741q0 225 91.5 402t251 273.5t358.5 96.5q211 0 372 -108t234 -301q6 -17 -1.5 -27t-25.5 -10l-110 -2q-26 0 -39 25q-71 127 -185 195.5t-256 68.5q-225 0 -367.5 -160t-142.5 -438q0 -282 146 -451.5t383 -169.5q308 0 436 291q13 25 37 25l108 -2q19 0 26 -10 t1 -27q-31 -88 -85 -165t-130.5 -139.5t-182 -98.5t-227.5 -36q-204 0 -362 98t-244 272.5t-86 397.5z" />
<glyph unicode="D" horiz-adv-x="1482" d="M147 33l9 1423q0 33 32 33h494q338 0 522.5 -195.5t184.5 -527.5q0 -166 -47 -305.5t-135.5 -242.5t-224 -160.5t-304.5 -57.5h-498q-15 0 -24 9t-9 24zM334 1329l6 -1167h326q253 0 397.5 156.5t144.5 426.5q0 277 -143 430.5t-397 153.5h-334z" />
<glyph unicode="E" d="M147 33l9 1423q0 33 32 33h891q15 0 24 -9t9 -24v-98q0 -15 -9 -24t-24 -9h-745l4 -463h637q15 0 24 -9t9 -24v-100q0 -15 -9 -24t-24 -9h-637l4 -532h739q15 0 24 -9t9 -24v-98q0 -15 -9 -24t-24 -9h-901q-15 0 -24 9t-9 24z" />
<glyph unicode="F" horiz-adv-x="1204" d="M147 33l9 1423q0 33 32 33h889q15 0 24 -9t9 -24v-98q0 -15 -9 -24t-24 -9h-743l4 -457h635q33 0 33 -32v-99q0 -32 -33 -32h-635l4 -672q0 -15 -9 -24t-24 -9h-129q-15 0 -24 9t-9 24z" />
<glyph unicode="G" horiz-adv-x="1587" d="M104 743q0 224 91.5 400t251.5 273t360 97q209 0 370 -105.5t230 -285.5q7 -17 0 -27t-25 -10l-110 -2q-28 0 -39 23q-69 118 -183.5 183t-254.5 65q-109 0 -202.5 -40.5t-161.5 -116t-107 -189t-39 -252.5q0 -282 146 -451.5t382 -169.5q117 0 216.5 48.5t169.5 145 t93 228.5h-374q-15 0 -24 9t-9 24v98q0 15 9 24t24 9h524q35 0 35 -39q-3 -154 -54 -285t-140.5 -224.5t-217.5 -146.5t-279 -53q-197 0 -352.5 98t-242.5 273.5t-87 398.5z" />
<glyph unicode="H" horiz-adv-x="1488" d="M147 33l9 1423q0 33 32 33h113q15 0 24 -9t9 -24l2 -594h815l2 594q0 15 9 24t24 9h114q15 0 24 -9t9 -24l6 -1423q0 -33 -32 -33h-127q-15 0 -24 9t-9 24l2 663h-811l2 -663q0 -15 -9 -24t-24 -9h-127q-15 0 -24 9t-9 24z" />
<glyph unicode="I" horiz-adv-x="735" d="M272 33l7 1423q0 33 32 33h113q15 0 24 -9t9 -24l8 -1423q0 -15 -9 -24t-24 -9h-127q-15 0 -24 9t-9 24z" />
<glyph unicode="J" horiz-adv-x="999" d="M94 35v96q0 15 9 24t24 9q229 6 321.5 115t94.5 372l2 805q0 15 9 24t24 9h114q15 0 24 -9t9 -24l4 -790v-10q0 -179 -35 -302q-35 -127 -112 -204t-186.5 -111t-268.5 -37q-15 0 -24 9t-9 24z" />
<glyph unicode="K" horiz-adv-x="1425" d="M147 33l9 1423q0 33 32 33h113q15 0 24 -9t9 -24l4 -729l784 746q16 16 39 16h139q23 0 28.5 -13t-11.5 -28l-610 -584l647 -823q12 -17 6.5 -29t-27.5 -12h-155q-25 0 -39 20l-553 730l-246 -236l2 -481q0 -15 -9 -24t-24 -9h-129q-15 0 -24 9t-9 24z" />
<glyph unicode="L" horiz-adv-x="1181" d="M147 33l9 1423q0 33 32 33h113q15 0 24 -9t9 -24l8 -1292h754q32 0 32 -33v-98q0 -33 -32 -33h-916q-15 0 -24 9t-9 24z" />
<glyph unicode="M" horiz-adv-x="1785" d="M147 33l46 1423q0 33 32 33h197q27 0 39 -27l434 -1237l434 1237q12 27 39 27h193q32 0 32 -33l43 -1423q0 -33 -32 -33h-119q-15 0 -24 9t-9 24l-20 1253l-439 -1259q-12 -27 -39 -27h-118q-28 0 -37 27l-447 1286l-18 -1280q0 -15 -9 -24t-24 -9h-121q-15 0 -24 9 t-9 24z" />
<glyph unicode="N" horiz-adv-x="1476" d="M147 33l9 1423q0 33 32 33h179q27 0 39 -23l735 -1224l6 1214q0 15 9 24t24 9h110q15 0 24 -9t9 -24l6 -1423q0 -15 -9 -24t-24 -9h-172q-28 0 -39 23l-753 1261l6 -1251q0 -15 -9 -24t-24 -9h-125q-15 0 -24 9t-9 24z" />
<glyph unicode="O" horiz-adv-x="1585" d="M94 743q0 224 92.5 400t254.5 273t364 97q197 0 353 -92.5t244.5 -263t88.5 -389.5q0 -226 -92 -408t-254.5 -284.5t-362.5 -102.5q-196 0 -353 97.5t-246 274t-89 398.5zM274 756q0 -281 146 -451t375 -170q110 0 205 43.5t164.5 122t109 195t39.5 256.5 q0 277 -145.5 439.5t-374.5 162.5q-111 0 -206 -40.5t-164.5 -116t-109 -189t-39.5 -252.5z" />
<glyph unicode="P" horiz-adv-x="1343" d="M147 33l9 1423q0 33 32 33h566q222 0 358.5 -123t136.5 -322q0 -200 -137.5 -331t-357.5 -131h-416l4 -549q0 -15 -9 -24t-24 -9h-129q-15 0 -24 9t-9 24zM334 1329l4 -590h401q156 0 243 77.5t87 209.5q0 137 -91 220t-239 83h-405z" />
<glyph unicode="Q" horiz-adv-x="1585" d="M94 743q0 224 92.5 400t254.5 273t364 97q197 0 353 -92.5t244.5 -263t88.5 -389.5q0 -192 -67.5 -354t-188.5 -271l108 -129q20 -27 -4 -45l-71 -59q-27 -20 -45 4l-117 139q-151 -80 -324 -80q-196 0 -353 97.5t-246 274t-89 398.5zM274 756q0 -281 146 -451t375 -170 q114 0 204 43l-106 127q-20 27 4 45l72 62q27 20 45 -4l119 -142q85 81 132.5 206t47.5 280q0 277 -145.5 439.5t-374.5 162.5q-111 0 -206 -40.5t-164.5 -116t-109 -189t-39.5 -252.5z" />
<glyph unicode="R" horiz-adv-x="1345" d="M147 33l9 1423q0 33 32 33h568q217 0 347 -114t130 -294q0 -161 -104.5 -275.5t-284.5 -141.5l440 -625q12 -15 6 -27t-26 -12h-156q-25 0 -39 20l-430 637h-301l4 -624q0 -15 -9 -24t-24 -9h-129q-15 0 -24 9t-9 24zM334 1329l2 -512h399q155 0 236.5 66.5t81.5 183.5 q0 121 -85 191.5t-233 70.5h-401z" />
<glyph unicode="S" horiz-adv-x="1341" d="M102 375q-5 15 3.5 25t25.5 10h117q24 0 37 -25q49 -111 155 -179.5t279 -68.5q165 0 253.5 58t88.5 167q0 102 -87 174.5t-284 137.5l-84 26q-223 72 -332.5 165.5t-113.5 244.5v10q0 178 142 284q146 110 372 109q106 0 197.5 -29t156.5 -79t110.5 -111.5t71.5 -132.5 q13 -37 -26 -37h-111q-27 0 -39 23q-52 91 -146.5 148t-228.5 57q-151 0 -233 -59t-82 -156t81.5 -155t279.5 -118l79 -24q244 -75 353.5 -186t109.5 -267q0 -193 -144.5 -303.5t-389.5 -110.5q-111 0 -206 24.5t-162 64.5t-118.5 93.5t-81 108t-43.5 111.5z" />
<glyph unicode="T" horiz-adv-x="1198" d="M29 1358v98q0 33 32 33h1076q32 0 32 -33v-98q0 -33 -32 -33h-447l6 -1292q0 -33 -32 -33h-127q-15 0 -24 9t-9 24l6 1292h-449q-32 0 -32 33z" />
<glyph unicode="U" horiz-adv-x="1511" d="M147 641l5 815q0 33 32 33h115q15 0 24 -9t9 -24l2 -794q1 -262 113.5 -394.5t310.5 -132.5q199 0 308.5 132.5t109.5 394.5l4 794q0 33 32 33h115q15 0 24 -9t9 -24l2 -815q1 -318 -167 -493t-441 -175t-440.5 175t-166.5 493z" />
<glyph unicode="V" horiz-adv-x="1349" d="M47 1452q-6 17 1 27t26 10h114q27 0 39 -27l441 -1216h12l440 1216q12 27 39 27h115q39 0 26 -37l-512 -1425q-12 -27 -38 -27h-154q-27 0 -39 27z" />
<glyph unicode="W" horiz-adv-x="2023" d="M43 1452q-10 37 29 37h116q28 0 37 -29l332 -1161h16l326 1161q9 29 37 29h151q28 0 37 -29l326 -1161h18l330 1161q9 29 37 29h117q38 0 28 -37l-403 -1423q-9 -29 -37 -29h-151q-28 0 -37 29l-332 1198h-16l-330 -1198q-9 -29 -37 -29h-152q-27 0 -36 29z" />
<glyph unicode="X" horiz-adv-x="1462" d="M116 12q-6 12 5 27l508 733l-453 678q-11 17 -5 28t26 11h125q23 0 38 -21l392 -571l391 571q15 21 39 21h116q20 0 26 -12t-5 -27l-471 -692l491 -719q11 -15 5 -27t-27 -12h-146q-24 0 -38 20l-406 609l-405 -609q-14 -20 -39 -20h-140q-21 0 -27 12z" />
<glyph unicode="Y" horiz-adv-x="1224" d="M46 1478q6 11 26 11h127q27 0 39 -23l372 -647h13l374 647q11 23 39 23h117q20 0 26 -11t-3 -28l-469 -823l4 -594q0 -15 -9 -24t-24 -9h-125q-15 0 -24 9t-9 24l4 594l-475 823q-9 17 -3 28z" />
<glyph unicode="Z" horiz-adv-x="1341" d="M102 33v82q0 25 21 51l838 1145v14h-787q-15 0 -24 9t-9 24v98q0 15 9 24t24 9h991q15 0 24 -9t9 -24v-78q0 -30 -18 -53l-838 -1149v-10h842q15 0 24 -9t9 -24v-100q0 -15 -9 -24t-24 -9h-1049q-15 0 -24 9t-9 24z" />
<glyph unicode="[" horiz-adv-x="845" d="M199 -418l6 1880q0 15 9 24t24 9h432q32 0 32 -33v-76q0 -32 -32 -32h-310l7 -1663h303q32 0 32 -33v-76q0 -33 -32 -33h-439q-32 0 -32 33z" />
<glyph unicode="\" horiz-adv-x="825" d="M66 1460q-13 37 24 37h123q27 0 39 -27l508 -1433q6 -17 -1 -27t-24 -10h-123q-27 0 -39 27z" />
<glyph unicode="]" horiz-adv-x="845" d="M143 -342q0 15 9 24t24 9h309l-6 1663h-303q-33 0 -33 32v76q0 15 9 24t24 9h438q15 0 24 -9t9 -24l-6 -1880q0 -15 -9 -24t-24 -9h-432q-15 0 -24 9t-9 24v76z" />
<glyph unicode="^" horiz-adv-x="1490" d="M459 461l209 907q6 29 34 29h95q28 0 34 -29l203 -907q4 -17 -3.5 -27t-24.5 -10h-95q-28 0 -34 29l-129 598l-134 -598q-6 -29 -34 -29h-93q-34 0 -28 37z" />
<glyph unicode="_" horiz-adv-x="1253" d="M90 -188q0 32 33 32h1007q33 0 33 -32v-62q0 -15 -9 -24t-24 -9h-1007q-15 0 -24 9t-9 24v62z" />
<glyph unicode="`" horiz-adv-x="817" d="M253.5 1544.5q5.5 11.5 27.5 11.5h102q28 0 39 -22l143 -240q10 -17 4.5 -28t-24.5 -11h-47q-22 0 -41 19l-195 242q-14 17 -8.5 28.5z" />
<glyph unicode="a" horiz-adv-x="1148" d="M92 283q0 166 134.5 250.5t437.5 113.5q79 8 115 35.5t36 85.5q0 85 -65.5 137.5t-182.5 52.5q-96 0 -159.5 -40t-88.5 -113q-9 -27 -36 -27h-107q-17 0 -25.5 8.5t-5.5 22.5q36 140 148.5 221.5t286.5 81.5q192 0 300.5 -99t108.5 -272l6 -708q0 -33 -32 -33h-117 q-15 0 -24 9t-9 24l2 139h-14q-57 -88 -155 -139t-222 -51q-150 0 -241 78.5t-91 222.5zM268 295q0 -76 51.5 -117t143.5 -41q143 0 242.5 82.5t109.5 179.5l-2 144l-8 4q-64 -29 -158 -37q-195 -22 -287 -72t-92 -143z" />
<glyph unicode="b" horiz-adv-x="1245" d="M152 33l8 1462q0 15 9 24t24 9h104q15 0 24 -9t9 -24l2 -516h12q112 133 305 133q226 0 366 -160t140 -420q0 -246 -127 -402.5t-330 -156.5q-106 0 -199 46.5t-151 134.5h-12v-121q0 -15 -9 -24t-24 -9h-119q-32 0 -32 33zM326 473q13 -165 104 -252.5t223 -87.5 q152 0 237 108.5t85 293.5q0 197 -89 308t-235 111q-130 0 -220 -91.5t-105 -252.5v-137z" />
<glyph unicode="c" horiz-adv-x="1089" d="M90 530q0 264 137.5 423t362.5 159q171 0 288.5 -90.5t157.5 -222.5q4 -17 -3.5 -27t-24.5 -10h-107q-24 0 -39 24q-80 166 -270 166q-153 0 -238.5 -105.5t-85.5 -309.5q0 -197 86.5 -299.5t243.5 -102.5q186 0 258 148q15 24 39 24h106q18 0 25.5 -10t1.5 -27 q-47 -127 -161.5 -212t-282.5 -85q-225 0 -359.5 153.5t-134.5 403.5z" />
<glyph unicode="d" horiz-adv-x="1243" d="M90 532q0 260 140.5 420t365.5 160q185 0 303 -133h10v516q0 15 9 24t24 9h111q32 0 32 -33l7 -1462q0 -15 -9 -24t-24 -9h-123q-15 0 -24 9t-9 24v121h-12q-54 -88 -146 -134.5t-198 -46.5q-203 0 -330 156.5t-127 402.5zM268 547q0 -192 89.5 -302t236.5 -110 q130 0 221 91t103 253v137q-14 164 -104 251t-222 87q-152 0 -238 -109.5t-86 -297.5z" />
<glyph unicode="e" horiz-adv-x="1163" d="M90 537q0 256 143.5 414.5t372.5 158.5q153 0 261.5 -75.5t158.5 -200.5q45 -114 45 -255v-28q-3 -33 -35 -33h-766q1 -179 92.5 -282t245.5 -103q174 0 262 146q11 22 39 22h105q18 0 25 -10.5t1 -28.5q-61 -139 -177 -214t-269 -75q-223 0 -363.5 156.5t-140.5 407.5z M281 659h608q-5 126 -84 209.5t-213 83.5q-130 0 -209 -81t-102 -212z" />
<glyph unicode="f" horiz-adv-x="759" d="M61 969v86q0 32 33 32h142v23q0 124 32.5 209.5t94.5 131t139 63.5q68 16 158 16h20q33 -3 33 -35v-94q0 -15 -9 -24t-24 -9q-77 -2 -122 -10t-82 -33.5t-52 -74.5q-14 -45 -14 -118v-10v-35h260q32 0 32 -32v-86q0 -33 -32 -33h-260l6 -903q0 -15 -9 -24t-24 -9h-123 q-15 0 -24 9t-9 24l6 903h-139q-15 0 -24 9t-9 24z" />
<glyph unicode="g" horiz-adv-x="1247" d="M90 557q0 240 127.5 397.5t329.5 157.5q108 0 199 -47.5t149 -136.5l12 2l2 125q0 32 33 32h111q32 0 32 -32l11 -920v-13q0 -290 -130 -443q-134 -156 -368 -156q-155 0 -265.5 69.5t-170.5 198.5q-8 17 -1.5 28t25.5 11h109q27 0 41 -23q82 -124 262 -124 q305 0 305 382v15v55h-10q-114 -135 -299 -135q-224 0 -364 152.5t-140 404.5zM268 541q0 -181 85.5 -281t238.5 -100q132 0 222 78t104 227v137q-12 164 -103.5 258t-220.5 94q-146 0 -236 -112t-90 -301z" />
<glyph unicode="h" horiz-adv-x="1183" d="M152 33l8 1462q0 15 9 24t24 9h108q15 0 24 -9t9 -24l4 -569l14 -2q130 180 336 180q156 0 247.5 -101.5t92.5 -285.5l4 -684q0 -15 -9 -24t-24 -9h-122q-15 0 -24 9t-9 24l4 639q0 128 -57 194t-162 66q-117 0 -195.5 -83t-95.5 -239l2 -577q0 -15 -9 -24t-24 -9h-123 q-32 0 -32 33z" />
<glyph unicode="i" horiz-adv-x="534" d="M172 33l8 1022q0 32 33 32h109q32 0 32 -32l6 -1022q0 -33 -32 -33h-123q-15 0 -24 9t-9 24zM182 1356v139q0 15 9 24t24 9h109q32 0 32 -33v-139q0 -33 -32 -33h-109q-15 0 -24 9t-9 24z" />
<glyph unicode="j" horiz-adv-x="595" d="M-45 -324q0 32 33 35q123 6 172 61t51 181l6 1102q0 32 33 32h108q33 0 33 -32l8 -1092q0 -208 -97.5 -307.5t-313.5 -106.5q-15 0 -24 9t-9 24v94zM217 1356v139q0 15 9 24t24 9h108q15 0 24 -9t9 -24v-139q0 -15 -9 -24t-24 -9h-108q-15 0 -24 9t-9 24z" />
<glyph unicode="k" horiz-adv-x="1159" d="M152 33l8 1462q0 15 9 24t24 9h108q15 0 24 -9t9 -24l4 -897l493 473q16 16 39 16h127q23 0 28.5 -12.5t-11.5 -27.5l-424 -404l448 -602q12 -17 7 -29t-25 -12h-135q-25 0 -39 20l-369 517l-139 -131l2 -373q0 -15 -9 -24t-24 -9h-123q-32 0 -32 33z" />
<glyph unicode="l" horiz-adv-x="583" d="M199 33l6 1462q0 15 9 24t24 9h108q15 0 24 -9t9 -24l8 -1462q0 -15 -9 -24t-24 -9h-123q-32 0 -32 33z" />
<glyph unicode="m" horiz-adv-x="1769" d="M129 33l6 1022q0 32 33 32h111q32 0 32 -32v-129h11q144 186 331 186q217 0 285 -205h14q144 205 348 205q154 0 241 -102t87 -293l4 -684q0 -15 -9 -24t-24 -9h-122q-15 0 -24 9t-9 24l4 639v5q0 131 -50 197q-52 66 -149 66q-110 0 -185 -84.5t-89 -247.5l2 -575 q0 -15 -9 -24t-24 -9h-121q-32 0 -32 33l2 639v5q-1 131 -51 197q-52 66 -148 66q-110 0 -187.5 -81.5t-93.5 -248.5l4 -577q0 -33 -32 -33h-123q-15 0 -24 9t-9 24z" />
<glyph unicode="n" horiz-adv-x="1189" d="M152 33l8 1022q0 32 33 32h108q33 0 33 -32l2 -129l14 -2q132 188 340 188q159 0 253.5 -103.5t94.5 -291.5v-684q0 -33 -32 -33h-123q-15 0 -24 9t-9 24v639q0 132 -58 200t-163 68q-118 0 -196 -84.5t-95 -245.5l2 -577q0 -15 -9 -24t-24 -9h-123q-32 0 -32 33z" />
<glyph unicode="o" d="M90 539q0 253 147.5 413t374.5 160q220 0 362 -154t142 -401q0 -167 -67 -300.5t-186 -208.5t-267 -75q-219 0 -362.5 159.5t-143.5 406.5zM268 555q0 -187 98.5 -303.5t245.5 -116.5q144 0 235 111t91 291q0 190 -97.5 303.5t-246.5 113.5q-144 0 -235 -108.5 t-91 -290.5z" />
<glyph unicode="p" horiz-adv-x="1245" d="M152 -418l8 1473q0 32 33 32h108q33 0 33 -32l2 -125h12q58 90 151 136t199 46q203 0 330 -156.5t127 -402.5q0 -257 -137 -418.5t-352 -161.5q-190 0 -318 131h-10l2 -522q0 -15 -9 -24t-24 -9h-123q-32 0 -32 33zM326 467q14 -162 104 -248t223 -86q151 0 236.5 108.5 t85.5 297.5q0 192 -89 303.5t-235 111.5q-130 0 -221 -93t-104 -257v-137z" />
<glyph unicode="q" horiz-adv-x="1243" d="M90 551q0 249 126.5 405t330.5 156q107 0 199 -46.5t149 -135.5h14v125q0 32 33 32h111q32 0 32 -32l7 -1473q0 -15 -9 -24t-24 -9h-123q-15 0 -24 9t-9 24l4 522h-12q-122 -131 -303 -131q-225 0 -363.5 160.5t-138.5 417.5zM268 539q0 -188 86 -297t238 -109 q131 0 221 85t105 241v137q-12 170 -103 264t-221 94q-147 0 -236.5 -110.5t-89.5 -304.5z" />
<glyph unicode="r" horiz-adv-x="749" d="M152 33l8 1022q0 32 33 32h108q33 0 33 -32l2 -137l14 -3q57 84 140 136t180 59q15 1 23.5 -7.5t8.5 -23.5v-125q0 -32 -32 -32q-71 -2 -125.5 -18t-100.5 -51t-73 -99t-33 -156l2 -565q0 -15 -9 -24t-24 -9h-123q-32 0 -32 33z" />
<glyph unicode="s" horiz-adv-x="1062" d="M98 270q-6 17 1 27t26 10h121q24 0 39 -24q76 -150 282 -150q104 0 165 37.5t61 114.5q0 65 -57 107t-191 81l-82 25q-162 46 -246 113.5t-84 183.5q0 140 113.5 228.5t285.5 88.5q88 0 162.5 -23.5t124.5 -63.5t82.5 -86t48.5 -97q6 -17 -1.5 -27t-24.5 -10h-107 q-27 0 -41 22q-81 127 -254 127q-95 0 -154 -40.5t-59 -106.5q0 -59 54.5 -93t183.5 -71l84 -25q183 -54 263.5 -129t80.5 -188q0 -150 -113.5 -239t-304.5 -89q-180 0 -297 81.5t-162 215.5z" />
<glyph unicode="t" horiz-adv-x="716" d="M61 969v86q0 32 33 32h164l2 392q0 32 33 32h108q33 0 33 -32l2 -392h201q33 0 33 -32v-86q0 -15 -9 -24t-24 -9h-199l4 -903q0 -33 -32 -33h-123q-15 0 -24 9t-9 24l4 903h-164q-15 0 -24 9t-9 24z" />
<glyph unicode="u" horiz-adv-x="1181" d="M152 387l4 668q0 32 32 32h109q33 0 33 -32l4 -625q3 -285 217 -285q118 0 195.5 84t97.5 248l4 578q0 32 33 32h108q33 0 33 -32l6 -1022q0 -15 -9 -24t-24 -9h-121q-32 0 -32 33l2 129h-15q-129 -189 -335 -189q-159 0 -250.5 107t-91.5 307z" />
<glyph unicode="v" horiz-adv-x="1067" d="M55 1051q-6 17 1.5 26.5t25.5 9.5h106q28 0 37 -26l297 -866h21l299 866q9 26 37 26h106q18 0 25.5 -9.5t1.5 -26.5l-353 -1024q-9 -27 -36 -27h-181q-27 0 -36 27z" />
<glyph unicode="w" horiz-adv-x="1583" d="M53 1051q-9 36 29 36h106q29 0 37 -28l230 -862h22l232 862q8 28 36 28h95q29 0 37 -28l233 -862h20l230 862q8 28 37 28h104q38 0 29 -36l-285 -1022q-9 -29 -37 -29h-172q-28 0 -37 27l-206 721h-17l-192 -719q-9 -29 -37 -29h-174q-28 0 -37 29z" />
<glyph unicode="x" horiz-adv-x="1116" d="M80 12q-6 12 6 27l373 524l-330 486q-11 17 -5 27.5t26 10.5h122q25 0 39 -20l271 -393l272 393q14 20 39 20h113q21 0 27 -11.5t-5 -26.5l-354 -510l344 -500q11 -15 4.5 -27t-27.5 -12h-131q-25 0 -39 20l-274 406l-277 -406q-14 -20 -38 -20h-130q-20 0 -26 12z" />
<glyph unicode="y" horiz-adv-x="1075" d="M55 1051q-9 36 27 36h106q28 0 37 -26l297 -860h15l311 860q12 26 39 26h104q36 0 27 -36l-516 -1475q-12 -27 -39 -27h-123q-19 0 -26 10t-1 27l131 367z" />
<glyph unicode="z" horiz-adv-x="1007" d="M90 33v90q0 12 6 18l606 785v10h-557q-32 0 -32 33v86q0 32 32 32h727q33 0 33 -32v-92v-2q0 -15 -18 -33l-580 -768v-8h576q32 0 32 -33v-86q0 -33 -32 -33h-760q-15 0 -24 9t-9 24z" />
<glyph unicode="{" horiz-adv-x="899" d="M199 485v93q0 28 30 34q67 13 89 66t22 174v317q0 200 84 283.5t266 83.5h33q15 0 24 -9t9 -24v-86q0 -15 -9 -24t-24 -9h-8q-111 0 -160 -50.5t-49 -178.5v-350q0 -83 -15.5 -137.5t-40 -81.5t-63.5 -47v-15q119 -55 119 -278v-338q0 -130 49 -181t160 -51h8 q33 0 33 -32v-86q0 -15 -9 -24t-24 -9h-33q-181 0 -265.5 86t-84.5 287v313q0 122 -22 175.5t-89 64.5q-30 6 -30 34z" />
<glyph unicode="|" horiz-adv-x="770" d="M301 -469l6 2023q0 15 9 24t24 9h90q15 0 24 -9t9 -24l6 -2023q0 -15 -9 -24t-24 -9h-102q-15 0 -24 9t-9 24z" />
<glyph unicode="}" horiz-adv-x="899" d="M143 -356q0 32 33 32h8q111 0 160 51t49 181v348q0 83 15.5 137.5t40 81.5t63.5 47v15q-119 55 -119 278v340q0 128 -49 178.5t-160 50.5h-8q-15 0 -24 9t-9 24v86q0 15 9 24t24 9h33q182 0 266 -85.5t84 -287.5v-313q0 -121 22 -174t89 -66q30 -6 30 -35v-92 q0 -28 -30 -34q-67 -11 -89 -64.5t-22 -175.5v-318q0 -200 -84 -283t-266 -83h-33q-15 0 -24 9t-9 24v86z" />
<glyph unicode="~" horiz-adv-x="1245" d="M236 518q15 240 227 240q48 0 89.5 -17t70 -41t54 -48t52 -41t51.5 -17q63 0 70 92q3 33 35 33h82q15 0 23 -9t7 -24q-7 -101 -59.5 -169t-157.5 -68q-55 0 -102.5 26t-75 56.5t-64.5 56.5t-73 26q-71 0 -82 -92q-3 -33 -35 -33h-80q-32 0 -32 29z" />
<glyph unicode="&#xa1;" horiz-adv-x="620" d="M205 911v158q0 15 9 24t24 9h145q15 0 24 -9t9 -24v-158q0 -32 -33 -32h-145q-33 0 -33 32zM209 614q0 15 9 24t24 9h123q32 0 32 -33l-6 -979q0 -32 -33 -32h-110q-33 0 -33 32z" />
<glyph unicode="&#xa2;" horiz-adv-x="1089" d="M90 713q0 244 117.5 399t314.5 178l-6 246q0 15 9 24t24 9h82q15 0 24 -9t9 -24l-7 -246q145 -18 244 -104.5t135 -204.5q4 -17 -3.5 -27t-24.5 -10h-107q-23 0 -39 25q-80 166 -270 166q-153 0 -238.5 -106t-85.5 -310q0 -197 86.5 -299.5t243.5 -102.5q186 0 258 148 q15 24 39 24h106q18 0 25.5 -9.5t1.5 -26.5q-41 -111 -137 -192.5t-234 -100.5l7 -244q0 -15 -9 -24t-24 -9h-82q-15 0 -24 9t-9 24l6 244q-199 22 -315.5 171.5t-116.5 381.5z" />
<glyph unicode="&#xa3;" horiz-adv-x="1359" d="M147 33v90q0 25 23 39q43 30 71 59.5t45 57.5t25 68.5t10.5 78.5t2.5 102v101h-72q-15 0 -24 9t-9 24v92q0 32 33 32h72v271q0 205 122.5 332t323.5 127q96 0 174 -29.5t129.5 -82t84 -116t48.5 -139.5q6 -35 -30 -35h-105q-29 0 -35 29q-28 102 -97.5 157.5t-174.5 55.5 q-125 0 -196.5 -80t-71.5 -236v-254h405q33 0 33 -32v-92q0 -15 -9 -24t-24 -9h-405v-129q0 -221 -97 -324v-10h781q32 0 32 -33v-100q0 -33 -32 -33h-1000q-15 0 -24 9t-9 24z" />
<glyph unicode="&#xa4;" horiz-adv-x="1435" d="M330 825q-22 23 0 45l57 58q23 22 45 0l100 -101q85 56 187 56q103 0 186 -58l101 103q23 23 45 -2l55 -56q22 -22 0 -45l-98 -100q53 -85 53 -184q0 -105 -57 -187l102 -102q22 -22 0 -45l-55 -55q-22 -25 -45 -2l-103 102q-85 -53 -184 -53t-187 53l-100 -102 q-23 -23 -45 2l-55 55q-22 23 0 45l100 98q-57 85 -57 191q0 103 55 186zM502 541q0 -88 64 -151.5t153 -63.5q88 0 150.5 63.5t62.5 151.5q0 89 -62.5 152t-150.5 63q-89 0 -153 -63t-64 -152z" />
<glyph unicode="&#xa5;" horiz-adv-x="1224" d="M46 1478q6 11 26 11h127q27 0 39 -23l372 -647h13l374 647q11 23 39 23h117q20 0 26 -11t-3 -28l-402 -705h178q33 0 33 -32v-68q0 -15 -9 -24t-24 -9h-245v-137h245q15 0 24 -9t9 -24v-67q0 -15 -9 -24t-24 -9h-243l2 -309q0 -15 -9 -24t-24 -9h-125q-15 0 -24 9t-9 24 l2 309h-219q-15 0 -24 9t-9 24v67q0 15 9 24t24 9h219v137h-219q-15 0 -24 9t-9 24v68q0 32 33 32h152l-406 705q-9 17 -3 28z" />
<glyph unicode="&#xa6;" horiz-adv-x="770" d="M301 -469l6 631q0 15 9 24t24 9h90q15 0 24 -9t9 -24l6 -631q0 -15 -9 -24t-24 -9h-102q-15 0 -24 9t-9 24zM301 924l6 630q0 15 9 24t24 9h90q15 0 24 -9t9 -24l6 -630q0 -15 -9 -24t-24 -9h-102q-15 0 -24 9t-9 24z" />
<glyph unicode="&#xa7;" horiz-adv-x="1165" d="M158 215q-10 37 28 37h115q23 0 39 -25q79 -153 278 -153q99 0 158.5 37.5t59.5 111.5q0 67 -57.5 108.5t-207.5 90.5l-36 14q-68 23 -115 42.5t-92.5 46.5t-72.5 56t-43.5 69t-16.5 89q0 160 163 256q-81 42 -122 97t-41 135q0 139 111 228t282 89q85 0 156.5 -24 t120.5 -64t81 -86.5t47 -97.5q4 -17 -3.5 -27t-24.5 -10h-107q-28 0 -39 22q-81 129 -241 129q-94 0 -150.5 -41t-56.5 -106q0 -60 53 -93t194 -77l39 -12q199 -64 280 -138t81 -188q0 -160 -148 -252q78 -45 113 -102t35 -133q0 -149 -111.5 -239.5t-296.5 -90.5 q-177 0 -291 82.5t-161 218.5zM371 752q0 -60 53 -93t194 -77l39 -15l33 -10q146 45 146 154q0 66 -57.5 106.5t-207.5 93.5l-20 7q-85 -21 -132.5 -64t-47.5 -102z" />
<glyph unicode="&#xa8;" horiz-adv-x="903" d="M225 1356v139q0 15 9 24t24 9h96q15 0 24 -9t9 -24v-139q0 -15 -9 -24t-24 -9h-96q-15 0 -24 9t-9 24zM522 1356v139q0 15 9 24t24 9h96q15 0 24 -9t9 -24v-139q0 -15 -9 -24t-24 -9h-96q-15 0 -24 9t-9 24z" />
<glyph unicode="&#xa9;" horiz-adv-x="1785" d="M147 743q0 165 59 306.5t160 237.5t237.5 150t289.5 54q123 0 235.5 -34t205 -99.5t161 -156t106 -208t37.5 -250.5q0 -220 -100.5 -391.5t-269.5 -262.5t-375 -91q-153 0 -289.5 53.5t-237.5 149t-160 236.5t-59 306zM268 743q0 -184 84.5 -328t226.5 -221t314 -77 t314.5 77t227.5 221t85 328q0 111 -32 210t-90 174.5t-135.5 130.5t-172 83.5t-197.5 28.5q-128 0 -242.5 -45t-199 -125.5t-134 -199t-49.5 -257.5zM520 735q0 197 105.5 315.5t277.5 118.5q129 0 219 -66t121 -165q6 -17 -1.5 -27t-24.5 -10h-66q-23 0 -39 25 q-61 125 -209 125q-119 0 -184.5 -80t-65.5 -232q0 -149 67.5 -227t190.5 -78q143 0 201 113q15 24 39 24h59q19 0 27 -9.5t2 -26.5q-40 -97 -127.5 -160.5t-212.5 -63.5q-172 0 -275.5 117t-103.5 307z" />
<glyph unicode="&#xab;" horiz-adv-x="1263" d="M197 479v135q0 25 20 39l350 228q17 12 28 5.5t11 -26.5v-96q0 -25 -20 -39l-273 -178l273 -176q20 -14 20 -39v-96q0 -20 -11 -26.5t-28 5.5l-350 225q-20 14 -20 39zM657 479v135q0 24 21 39l350 228q17 12 28 5.5t11 -26.5v-96q0 -25 -20 -39l-273 -178l273 -176 q20 -14 20 -39v-96q0 -20 -11 -26.5t-28 5.5l-350 225q-21 15 -21 39z" />
<glyph unicode="&#xad;" horiz-adv-x="1206" d="M246 532v93q0 32 33 32h649q33 0 33 -32v-93q0 -32 -33 -32h-649q-33 0 -33 32z" />
<glyph unicode="&#xae;" horiz-adv-x="1103" d="M186 1188q0 151 107 257.5t258 106.5t259 -107t108 -257q0 -151 -108 -259t-259 -108t-258 108t-107 259zM276 1188q0 -113 80.5 -194t194.5 -81t195 81t81 194q0 114 -81 194t-195 80t-194.5 -80t-80.5 -194zM428 1065v242q0 32 33 32h112q55 0 85 -25.5t30 -66.5 q0 -31 -17.5 -55.5t-49.5 -34.5l55 -86q11 -17 5 -28t-26 -11h-16q-27 0 -41 23l-57 94h-35v-84q0 -15 -9 -24t-24 -9h-12q-15 0 -24 9t-9 24zM506 1214h65q41 0 41 29q0 13 -12 22t-29 9h-65v-60z" />
<glyph unicode="&#xaf;" horiz-adv-x="940" d="M238 1348v69q0 33 32 33h402q15 0 24 -9t9 -24v-69q0 -15 -9 -24t-24 -9h-402q-32 0 -32 33z" />
<glyph unicode="&#xb0;" horiz-adv-x="899" d="M164 1268q0 119 83.5 201.5t203.5 82.5q119 0 201.5 -83t82.5 -201q0 -119 -83 -203t-201 -84q-120 0 -203.5 84t-83.5 203zM299 1268q0 -62 44.5 -107t107.5 -45q61 0 105 45t44 107q0 63 -43.5 107t-105.5 44q-63 0 -107.5 -44t-44.5 -107z" />
<glyph unicode="&#xb2;" horiz-adv-x="675" d="M154 1346q17 61 74 106t147 45q93 0 143.5 -47.5t50.5 -114.5q0 -92 -108 -182l-109 -94v-8h197q15 0 24 -9t9 -24v-31q0 -15 -9 -24t-24 -9h-350q-15 0 -24 9t-9 24v31q0 21 12 31l199 172q41 33 58.5 56t17.5 48q0 30 -22.5 49t-61.5 19q-66 0 -95 -45q-16 -25 -38 -25 h-50q-17 0 -26 6.5t-6 16.5z" />
<glyph unicode="&#xb3;" horiz-adv-x="632" d="M100 1077q-9 35 29 35h53q24 0 39 -27q24 -43 101 -43q100 0 100 68q0 74 -150 74h-4q-32 0 -32 33v18q0 33 32 33h4q134 0 134 67q0 29 -25.5 47.5t-65.5 18.5q-59 0 -86 -37q-16 -25 -39 -25h-47q-19 0 -26.5 10t-1.5 27q22 51 74 86t137 35q95 0 144.5 -42t49.5 -101 q0 -86 -98 -123q52 -15 84.5 -46.5t32.5 -80.5q0 -70 -57.5 -114t-159.5 -44q-94 0 -150.5 37.5t-71.5 93.5z" />
<glyph unicode="&#xb4;" horiz-adv-x="817" d="M248.5 1266q-5.5 11 3.5 28l143 240q11 22 39 22h105q20 0 25.5 -11.5t-7.5 -28.5l-197 -242q-19 -19 -41 -19h-45q-20 0 -25.5 11z" />
<glyph unicode="&#xb5;" horiz-adv-x="1183" d="M152 -418l4 778v27l4 668q0 32 33 32h108q33 0 33 -32l4 -625q0 -285 217 -285q117 0 195 84.5t98 247.5l2 578q0 32 33 32h110q33 0 33 -32l6 -1022q0 -15 -9 -24t-24 -9h-122q-15 0 -24 9t-9 24l4 129h-14q-132 -189 -338 -189q-118 0 -201 62q44 -228 47 -453 q0 -15 -9 -24t-24 -9h-125q-32 0 -32 33z" />
<glyph unicode="&#xb6;" horiz-adv-x="1429" d="M90 870q0 174 114.5 283t307.5 109h262q15 0 24 -9t9 -24v-1401q0 -15 -9 -24t-24 -9h-102q-15 0 -24 9t-9 24v645h-127q-192 0 -307 110.5t-115 286.5zM1055 -172l2 1401q0 15 9 24t24 9h108q15 0 24 -9t9 -24v-1401q0 -15 -9 -24t-24 -9h-111q-32 0 -32 33z" />
<glyph unicode="&#xb7;" horiz-adv-x="737" d="M268 498v149q0 15 9 24t24 9h135q15 0 24 -9t9 -24v-149q0 -15 -9 -24t-24 -9h-135q-15 0 -24 9t-9 24z" />
<glyph unicode="&#xb8;" horiz-adv-x="843" d="M248 -391l10 33q9 30 43 18q55 -22 96 -22q40 0 67.5 22t27.5 53q0 40 -34 65.5t-104 26.5h-6q-39 0 -29 37l48 158q9 27 36 27h46q39 0 26 -37l-29 -96q71 -13 115.5 -58t44.5 -117q0 -80 -55 -132t-154 -52q-70 0 -131 31q-28 13 -18 43z" />
<glyph unicode="&#xb9;" horiz-adv-x="573" d="M117 1337q-23 27 4 45l106 91q20 14 41 14h121q15 0 24 -9t9 -24l4 -467q0 -15 -9 -24t-24 -9h-61q-15 0 -24 9t-9 24v404h-6l-103 -88q-26 -20 -47 4z" />
<glyph unicode="&#xbb;" horiz-adv-x="1263" d="M197 236v98q0 25 20 39l272 176l-272 176q-20 14 -20 39v96q0 20 11 26.5t28 -5.5l350 -226q20 -14 20 -39v-135q0 -25 -20 -39l-350 -227q-17 -12 -28 -5.5t-11 26.5zM657 236v98q0 24 21 39l272 176l-272 176q-21 15 -21 39v96q0 20 11 26.5t28 -5.5l351 -226 q20 -14 20 -39v-135q0 -25 -20 -39l-351 -227q-17 -12 -28 -5.5t-11 26.5z" />
<glyph unicode="&#xbf;" horiz-adv-x="1173" d="M102 -10q0 160 104 285t310 233v143q0 15 9 24t24 9h125q15 0 24 -9t9 -24v-190q0 -27 -25 -39q-215 -101 -308 -201t-93 -223q0 -120 76.5 -190t211.5 -70q114 0 198.5 53.5t117.5 151.5q8 28 37 28h112q17 0 25.5 -6.5t5.5 -17.5q-17 -75 -57.5 -141.5t-102 -120 t-151 -84.5t-195.5 -31q-214 0 -335.5 119t-121.5 301zM543 922v147q0 33 32 33h136q32 0 32 -33v-147q0 -33 -32 -33h-136q-32 0 -32 33z" />
<glyph unicode="&#xc0;" horiz-adv-x="1363" d="M47 37l526 1425q12 27 39 27h142q30 0 39 -27l526 -1425q6 -17 -1 -27t-26 -10h-118q-27 0 -39 27l-156 434h-592l-156 -434q-12 -27 -38 -27h-119q-19 0 -26 10t-1 27zM445.5 1948q5.5 12 25.5 12h104q27 0 39 -23l144 -239q9 -17 2.5 -28t-25.5 -11h-45q-23 0 -41 18 l-196 242q-13 17 -7.5 29zM446 625h474l-232 643h-10z" />
<glyph unicode="&#xc1;" horiz-adv-x="1363" d="M47 37l526 1425q12 27 39 27h142q30 0 39 -27l526 -1425q6 -17 -1 -27t-26 -10h-118q-27 0 -39 27l-156 434h-592l-156 -434q-12 -27 -38 -27h-119q-19 0 -26 10t-1 27zM446 625h474l-232 643h-10zM619.5 1670q-5.5 11 3.5 28l143 239q12 23 39 23h104q21 0 26.5 -12 t-7.5 -29l-197 -242q-18 -18 -41 -18h-45q-20 0 -25.5 11z" />
<glyph unicode="&#xc2;" horiz-adv-x="1363" d="M47 37l526 1425q12 27 39 27h142q30 0 39 -27l526 -1425q6 -17 -1 -27t-26 -10h-118q-27 0 -39 27l-156 434h-592l-156 -434q-12 -27 -38 -27h-119q-19 0 -26 10t-1 27zM399.5 1671q-5.5 12 6.5 29l198 237q19 19 41 19h74q22 0 41 -19l201 -237q12 -17 6.5 -29 t-27.5 -12h-88q-25 0 -39 20l-125 170h-16l-121 -170q-14 -20 -39 -20h-86q-21 0 -26.5 12zM446 625h474l-232 643h-10z" />
<glyph unicode="&#xc3;" horiz-adv-x="1363" d="M47 37l526 1425q12 27 39 27h142q30 0 39 -27l526 -1425q6 -17 -1 -27t-26 -10h-118q-27 0 -39 27l-156 434h-592l-156 -434q-12 -27 -38 -27h-119q-19 0 -26 10t-1 27zM412 1726q5 84 45.5 136.5t122.5 52.5q36 0 67 -14t52 -33.5t39.5 -39.5t38 -34t38.5 -14 q46 0 53 69q3 33 35 33h43q15 0 23.5 -9t7.5 -24q-5 -81 -44 -134.5t-118 -53.5q-33 0 -62 14t-49 33.5t-38.5 39.5t-40 34t-43.5 14q-52 0 -60 -70q-3 -32 -35 -32h-45q-33 0 -30 32zM446 625h474l-232 643h-10z" />
<glyph unicode="&#xc4;" horiz-adv-x="1363" d="M47 37l526 1425q12 27 39 27h142q30 0 39 -27l526 -1425q6 -17 -1 -27t-26 -10h-118q-27 0 -39 27l-156 434h-592l-156 -434q-12 -27 -38 -27h-119q-19 0 -26 10t-1 27zM446 625h474l-232 643h-10zM463 1761v140q0 32 33 32h94q33 0 33 -32v-140q0 -32 -33 -32h-94 q-33 0 -33 32zM760 1761v140q0 32 33 32h94q33 0 33 -32v-140q0 -32 -33 -32h-94q-33 0 -33 32z" />
<glyph unicode="&#xc5;" horiz-adv-x="1363" d="M47 37l526 1425q12 27 39 27h142q30 0 39 -27l526 -1425q6 -17 -1 -27t-26 -10h-118q-27 0 -39 27l-156 434h-592l-156 -434q-12 -27 -38 -27h-119q-19 0 -26 10t-1 27zM446 625h474l-232 643h-10zM496 1792q0 83 53 134.5t131 51.5q80 0 133 -51.5t53 -134.5 q0 -82 -53.5 -133t-132.5 -51q-78 0 -131 51t-53 133zM590 1792q0 -39 26.5 -64.5t63.5 -25.5q39 0 65.5 25.5t26.5 64.5q0 42 -26.5 67t-65.5 25q-38 0 -64 -25t-26 -67z" />
<glyph unicode="&#xc6;" horiz-adv-x="1931" d="M46 11q-6 11 3 28l817 1429q12 23 39 23h897q15 0 24 -9t9 -24v-98q0 -15 -9 -24t-24 -9h-641v-465h539q15 0 24 -9t9 -24v-100q0 -15 -9 -24t-24 -9h-539v-532h643q15 0 24 -9t9 -24v-98q0 -15 -9 -24t-24 -9h-790q-15 0 -24 9t-9 24v428h-498l-250 -438 q-11 -23 -38 -23h-123q-20 0 -26 11zM575 625h406v714z" />
<glyph unicode="&#xc7;" horiz-adv-x="1519" d="M94 741q0 225 91.5 402t251 273.5t358.5 96.5q211 0 372 -108t234 -301q6 -17 -1.5 -27t-25.5 -10l-110 -2q-26 0 -39 25q-71 127 -185 195.5t-256 68.5q-225 0 -367.5 -160t-142.5 -438q0 -282 146 -451.5t383 -169.5q308 0 436 291q13 25 37 25l108 -2q19 0 26 -10 t1 -27q-30 -86 -82 -161.5t-125.5 -137.5t-174.5 -99t-218 -41l-31 -98q71 -13 115.5 -57.5t44.5 -116.5q0 -80 -55 -132t-154 -52q-72 0 -131 30q-28 13 -18 43l10 33q9 31 43 19q57 -23 96 -23t66.5 22.5t27.5 53.5q0 40 -33.5 65.5t-103.5 26.5h-6q-39 0 -29 37l47 153 q-181 21 -319 123.5t-212.5 268.5t-74.5 372z" />
<glyph unicode="&#xc8;" d="M147 33l9 1423q0 33 32 33h891q15 0 24 -9t9 -24v-98q0 -15 -9 -24t-24 -9h-745l4 -463h637q15 0 24 -9t9 -24v-100q0 -15 -9 -24t-24 -9h-637l4 -532h739q15 0 24 -9t9 -24v-98q0 -15 -9 -24t-24 -9h-901q-15 0 -24 9t-9 24zM379.5 1948q5.5 12 26.5 12h104q28 0 39 -23 l143 -239q9 -17 3 -28t-25 -11h-45q-23 0 -41 18l-197 242q-13 17 -7.5 29z" />
<glyph unicode="&#xc9;" d="M147 33l9 1423q0 33 32 33h891q15 0 24 -9t9 -24v-98q0 -15 -9 -24t-24 -9h-745l4 -463h637q15 0 24 -9t9 -24v-100q0 -15 -9 -24t-24 -9h-637l4 -532h739q15 0 24 -9t9 -24v-98q0 -15 -9 -24t-24 -9h-901q-15 0 -24 9t-9 24zM552 1670q-6 11 3 28l143 239q12 23 39 23 h105q20 0 25.5 -12t-7.5 -29l-196 -242q-18 -18 -41 -18h-45q-20 0 -26 11z" />
<glyph unicode="&#xca;" d="M147 33l9 1423q0 33 32 33h891q15 0 24 -9t9 -24v-98q0 -15 -9 -24t-24 -9h-745l4 -463h637q15 0 24 -9t9 -24v-100q0 -15 -9 -24t-24 -9h-637l4 -532h739q15 0 24 -9t9 -24v-98q0 -15 -9 -24t-24 -9h-901q-15 0 -24 9t-9 24zM331.5 1671q-5.5 12 6.5 29l199 237 q19 19 41 19h73q22 0 41 -19l201 -237q12 -17 6.5 -29t-27.5 -12h-88q-25 0 -39 20l-124 170h-17l-121 -170q-14 -20 -39 -20h-86q-21 0 -26.5 12z" />
<glyph unicode="&#xcb;" d="M147 33l9 1423q0 33 32 33h891q15 0 24 -9t9 -24v-98q0 -15 -9 -24t-24 -9h-745l4 -463h637q15 0 24 -9t9 -24v-100q0 -15 -9 -24t-24 -9h-637l4 -532h739q15 0 24 -9t9 -24v-98q0 -15 -9 -24t-24 -9h-901q-15 0 -24 9t-9 24zM397 1761v140q0 32 33 32h94q33 0 33 -32 v-140q0 -32 -33 -32h-94q-33 0 -33 32zM694 1761v140q0 32 33 32h94q33 0 33 -32v-140q0 -32 -33 -32h-94q-33 0 -33 32z" />
<glyph unicode="&#xcc;" horiz-adv-x="735" d="M131.5 1948q5.5 12 26.5 12h104q28 0 39 -23l143 -239q9 -17 3 -28t-25 -11h-45q-23 0 -41 18l-197 242q-13 17 -7.5 29zM272 33l7 1423q0 33 32 33h113q15 0 24 -9t9 -24l8 -1423q0 -15 -9 -24t-24 -9h-127q-15 0 -24 9t-9 24z" />
<glyph unicode="&#xcd;" horiz-adv-x="735" d="M272 33l7 1423q0 33 32 33h113q15 0 24 -9t9 -24l8 -1423q0 -15 -9 -24t-24 -9h-127q-15 0 -24 9t-9 24zM304 1670q-6 11 3 28l144 239q11 23 38 23h105q20 0 25.5 -12t-7.5 -29l-196 -242q-18 -18 -41 -18h-45q-20 0 -26 11z" />
<glyph unicode="&#xce;" horiz-adv-x="735" d="M85.5 1671q-5.5 12 6.5 29l199 237q19 19 41 19h74q21 0 40 -19l201 -237q12 -17 6.5 -29t-26.5 -12h-88q-25 0 -39 20l-125 170h-17l-120 -170q-14 -20 -39 -20h-86q-22 0 -27.5 12zM272 33l7 1423q0 33 32 33h113q15 0 24 -9t9 -24l8 -1423q0 -15 -9 -24t-24 -9h-127 q-15 0 -24 9t-9 24z" />
<glyph unicode="&#xcf;" horiz-adv-x="735" d="M150 1761v140q0 32 32 32h94q33 0 33 -32v-140q0 -32 -33 -32h-94q-32 0 -32 32zM272 33l7 1423q0 33 32 33h113q15 0 24 -9t9 -24l8 -1423q0 -15 -9 -24t-24 -9h-127q-15 0 -24 9t-9 24zM446 1761v140q0 32 33 32h94q33 0 33 -32v-140q0 -32 -33 -32h-94q-33 0 -33 32z " />
<glyph unicode="&#xd0;" horiz-adv-x="1482" d="M6 532v93q0 32 33 32h113l4 799q0 33 32 33h494q338 0 522.5 -195.5t184.5 -527.5q0 -166 -47 -305.5t-135.5 -242.5t-224 -160.5t-304.5 -57.5h-498q-15 0 -24 9t-9 24l3 467h-111q-33 0 -33 32zM334 1329l4 -672h350q33 0 33 -32v-93q0 -32 -33 -32h-350l2 -338h326 q253 0 397.5 156.5t144.5 426.5q0 277 -143 430.5t-397 153.5h-334z" />
<glyph unicode="&#xd1;" horiz-adv-x="1476" d="M147 33l9 1423q0 33 32 33h179q27 0 39 -23l735 -1224l6 1214q0 15 9 24t24 9h110q15 0 24 -9t9 -24l6 -1423q0 -15 -9 -24t-24 -9h-172q-28 0 -39 23l-753 1261l6 -1251q0 -15 -9 -24t-24 -9h-125q-15 0 -24 9t-9 24zM469 1735q5 84 45.5 136t122.5 52q36 0 67 -14 t52 -33.5t39.5 -39.5t38 -34t38.5 -14q47 0 54 70q3 32 35 32h43q33 0 30 -32q-5 -81 -44 -135t-118 -54q-33 0 -62 14t-49 33.5t-38.5 39.5t-40 34t-43.5 14q-52 0 -59 -69q-3 -33 -35 -33h-45q-15 0 -23.5 9t-7.5 24z" />
<glyph unicode="&#xd2;" horiz-adv-x="1585" d="M94 743q0 224 92.5 400t254.5 273t364 97q197 0 353 -92.5t244.5 -263t88.5 -389.5q0 -226 -92 -408t-254.5 -284.5t-362.5 -102.5q-196 0 -353 97.5t-246 274t-89 398.5zM274 756q0 -281 146 -451t375 -170q110 0 205 43.5t164.5 122t109 195t39.5 256.5 q0 277 -145.5 439.5t-374.5 162.5q-111 0 -206 -40.5t-164.5 -116t-109 -189t-39.5 -252.5zM557.5 1956q5.5 12 26.5 12h104q28 0 39 -22l143 -240q9 -17 3 -28t-25 -11h-45q-22 0 -41 19l-197 241q-13 17 -7.5 29z" />
<glyph unicode="&#xd3;" horiz-adv-x="1585" d="M94 743q0 224 92.5 400t254.5 273t364 97q197 0 353 -92.5t244.5 -263t88.5 -389.5q0 -226 -92 -408t-254.5 -284.5t-362.5 -102.5q-196 0 -353 97.5t-246 274t-89 398.5zM274 756q0 -281 146 -451t375 -170q110 0 205 43.5t164.5 122t109 195t39.5 256.5 q0 277 -145.5 439.5t-374.5 162.5q-111 0 -206 -40.5t-164.5 -116t-109 -189t-39.5 -252.5zM730 1678q-6 11 3 28l144 240q11 22 38 22h105q20 0 25.5 -12t-7.5 -29l-196 -241q-19 -19 -41 -19h-45q-20 0 -26 11z" />
<glyph unicode="&#xd4;" horiz-adv-x="1585" d="M94 743q0 224 92.5 400t254.5 273t364 97q197 0 353 -92.5t244.5 -263t88.5 -389.5q0 -226 -92 -408t-254.5 -284.5t-362.5 -102.5q-196 0 -353 97.5t-246 274t-89 398.5zM274 756q0 -281 146 -451t375 -170q110 0 205 43.5t164.5 122t109 195t39.5 256.5 q0 277 -145.5 439.5t-374.5 162.5q-111 0 -206 -40.5t-164.5 -116t-109 -189t-39.5 -252.5zM509.5 1679q-5.5 12 6.5 29l199 238q18 18 41 18h73q23 0 41 -18l201 -238q12 -17 6.5 -29t-26.5 -12h-88q-24 0 -39 21l-125 170h-17l-120 -170q-15 -21 -39 -21h-86 q-22 0 -27.5 12z" />
<glyph unicode="&#xd5;" horiz-adv-x="1585" d="M94 743q0 224 92.5 400t254.5 273t364 97q197 0 353 -92.5t244.5 -263t88.5 -389.5q0 -226 -92 -408t-254.5 -284.5t-362.5 -102.5q-196 0 -353 97.5t-246 274t-89 398.5zM274 756q0 -281 146 -451t375 -170q110 0 205 43.5t164.5 122t109 195t39.5 256.5 q0 277 -145.5 439.5t-374.5 162.5q-111 0 -206 -40.5t-164.5 -116t-109 -189t-39.5 -252.5zM522 1735q5 84 45.5 136t122.5 52q36 0 67 -14t52.5 -33.5t40 -39.5t38 -34t38.5 -14q46 0 53 70q3 32 35 32h43q33 0 30 -32q-5 -81 -43.5 -135t-117.5 -54q-33 0 -62 14 t-49.5 33.5t-39 39.5t-40 34t-43.5 14q-52 0 -59 -69q-3 -33 -35 -33h-45q-15 0 -23.5 9t-7.5 24z" />
<glyph unicode="&#xd6;" horiz-adv-x="1585" d="M94 743q0 224 92.5 400t254.5 273t364 97q197 0 353 -92.5t244.5 -263t88.5 -389.5q0 -226 -92 -408t-254.5 -284.5t-362.5 -102.5q-196 0 -353 97.5t-246 274t-89 398.5zM274 756q0 -281 146 -451t375 -170q110 0 205 43.5t164.5 122t109 195t39.5 256.5 q0 277 -145.5 439.5t-374.5 162.5q-111 0 -206 -40.5t-164.5 -116t-109 -189t-39.5 -252.5zM573 1769v140q0 15 9 24t24 9h94q15 0 24 -9t9 -24v-140q0 -32 -33 -32h-94q-33 0 -33 32zM870 1769v140q0 15 9 24t24 9h94q15 0 24 -9t9 -24v-140q0 -32 -33 -32h-94 q-33 0 -33 32z" />
<glyph unicode="&#xd7;" horiz-adv-x="1312" d="M268 160q-22 22 0 45l289 287l-289 288q-22 22 0 45l56 54q22 23 45 0l288 -287l287 287q22 23 45 0l53 -54q25 -22 2 -45l-286 -288l286 -287q22 -23 0 -45l-55 -56q-22 -25 -45 -2l-287 289l-288 -289q-23 -22 -45 0z" />
<glyph unicode="&#xd8;" horiz-adv-x="1638" d="M121.5 12q-5.5 12 7.5 29l168 203q-152 207 -152 499q0 224 92.5 400t254.5 273t364 97q224 0 393 -118l70 84q18 18 41 18h123q20 0 25.5 -12t-7.5 -29l-137 -166q178 -203 178 -522q0 -226 -92 -408t-254 -284.5t-362 -102.5q-248 0 -431 156l-90 -111q-18 -18 -41 -18 h-125q-20 0 -25.5 12zM326 756q0 -213 90 -371l725 877q-131 92 -299 92q-227 0 -371.5 -160t-144.5 -438zM514 262q136 -127 332 -127q110 0 205 43.5t164 122t108 195t39 256.5q0 242 -113 399z" />
<glyph unicode="&#xd9;" horiz-adv-x="1511" d="M147 641l5 815q0 33 32 33h115q15 0 24 -9t9 -24l2 -794q1 -262 113.5 -394.5t310.5 -132.5q199 0 308.5 132.5t109.5 394.5l4 794q0 33 32 33h115q15 0 24 -9t9 -24l2 -815q1 -318 -167 -493t-441 -175t-440.5 175t-166.5 493zM516.5 1956q5.5 12 26.5 12h104 q28 0 39 -22l143 -240q9 -17 3 -28t-25 -11h-45q-22 0 -41 19l-197 241q-13 17 -7.5 29z" />
<glyph unicode="&#xda;" horiz-adv-x="1511" d="M147 641l5 815q0 33 32 33h115q15 0 24 -9t9 -24l2 -794q1 -262 113.5 -394.5t310.5 -132.5q199 0 308.5 132.5t109.5 394.5l4 794q0 33 32 33h115q15 0 24 -9t9 -24l2 -815q1 -318 -167 -493t-441 -175t-440.5 175t-166.5 493zM689 1678q-6 11 3 28l144 240q11 22 38 22 h105q20 0 25.5 -12t-7.5 -29l-196 -241q-19 -19 -41 -19h-45q-20 0 -26 11z" />
<glyph unicode="&#xdb;" horiz-adv-x="1511" d="M147 641l5 815q0 33 32 33h115q15 0 24 -9t9 -24l2 -794q1 -262 113.5 -394.5t310.5 -132.5q199 0 308.5 132.5t109.5 394.5l4 794q0 33 32 33h115q15 0 24 -9t9 -24l2 -815q1 -318 -167 -493t-441 -175t-440.5 175t-166.5 493zM470.5 1679q-5.5 12 6.5 29l199 238 q18 18 41 18h74q22 0 40 -18l201 -238q12 -17 6.5 -29t-26.5 -12h-88q-24 0 -39 21l-125 170h-17l-120 -170q-15 -21 -39 -21h-86q-22 0 -27.5 12z" />
<glyph unicode="&#xdc;" horiz-adv-x="1511" d="M147 641l5 815q0 33 32 33h115q15 0 24 -9t9 -24l2 -794q1 -262 113.5 -394.5t310.5 -132.5q199 0 308.5 132.5t109.5 394.5l4 794q0 33 32 33h115q15 0 24 -9t9 -24l2 -815q1 -318 -167 -493t-441 -175t-440.5 175t-166.5 493zM535 1769v140q0 33 32 33h95q32 0 32 -33 v-140q0 -32 -32 -32h-95q-32 0 -32 32zM831 1769v140q0 15 9 24t24 9h94q15 0 24 -9t9 -24v-140q0 -32 -33 -32h-94q-33 0 -33 32z" />
<glyph unicode="&#xdd;" horiz-adv-x="1224" d="M46 1478q6 11 26 11h127q27 0 39 -23l372 -647h13l374 647q11 23 39 23h117q20 0 26 -11t-3 -28l-469 -823l4 -594q0 -15 -9 -24t-24 -9h-125q-15 0 -24 9t-9 24l4 594l-475 823q-9 17 -3 28zM549.5 1678q-5.5 11 3.5 28l143 240q11 22 39 22h105q20 0 25.5 -12t-7.5 -29 l-196 -241q-19 -19 -41 -19h-46q-20 0 -25.5 11z" />
<glyph unicode="&#xde;" horiz-adv-x="1343" d="M147 33l9 1423q0 33 32 33h113q15 0 24 -9t9 -24l2 -223h418q222 0 358.5 -122.5t136.5 -319.5q0 -202 -137.5 -333.5t-357.5 -131.5h-414l2 -293q0 -15 -9 -24t-24 -9h-129q-15 0 -24 9t-9 24zM336 1073l4 -588h399q156 0 243 77.5t87 209.5q0 137 -90.5 219t-239.5 82 h-403z" />
<glyph unicode="&#xdf;" horiz-adv-x="1255" d="M147 33l9 905q2 268 135 423t364 155q103 0 187.5 -32t139.5 -87t84.5 -127t29.5 -152q0 -112 -57.5 -202.5t-170.5 -139.5q146 -43 219.5 -138.5t73.5 -229.5q0 -90 -32 -164.5t-97.5 -133t-174 -92.5t-251.5 -38q-35 0 -35 32v101q0 32 33 32q383 12 383 271 q0 125 -90 196.5t-270 77.5q-15 0 -24 9t-9 24v86q0 33 33 33q149 9 224 79.5t75 180.5q0 114 -76 184t-199 70q-142 0 -229 -102t-86 -316l6 -905q0 -15 -9 -24t-24 -9h-129q-15 0 -24 9t-9 24z" />
<glyph unicode="&#xe0;" horiz-adv-x="1148" d="M92 283q0 166 134.5 250.5t437.5 113.5q79 8 115 35.5t36 85.5q0 85 -65.5 137.5t-182.5 52.5q-96 0 -159.5 -40t-88.5 -113q-9 -27 -36 -27h-107q-17 0 -25.5 8.5t-5.5 22.5q36 140 148.5 221.5t286.5 81.5q192 0 300.5 -99t108.5 -272l6 -708q0 -33 -32 -33h-117 q-15 0 -24 9t-9 24l2 139h-14q-57 -88 -155 -139t-222 -51q-150 0 -241 78.5t-91 222.5zM268 295q0 -76 51.5 -117t143.5 -41q143 0 242.5 82.5t109.5 179.5l-2 144l-8 4q-64 -29 -158 -37q-195 -22 -287 -72t-92 -143zM332.5 1544.5q5.5 11.5 25.5 11.5h105q28 0 39 -22 l143 -240q9 -17 3 -28t-25 -11h-45q-22 0 -41 19l-197 242q-13 17 -7.5 28.5z" />
<glyph unicode="&#xe1;" horiz-adv-x="1148" d="M92 283q0 166 134.5 250.5t437.5 113.5q79 8 115 35.5t36 85.5q0 85 -65.5 137.5t-182.5 52.5q-96 0 -159.5 -40t-88.5 -113q-9 -27 -36 -27h-107q-17 0 -25.5 8.5t-5.5 22.5q36 140 148.5 221.5t286.5 81.5q192 0 300.5 -99t108.5 -272l6 -708q0 -33 -32 -33h-117 q-15 0 -24 9t-9 24l2 139h-14q-57 -88 -155 -139t-222 -51q-150 0 -241 78.5t-91 222.5zM268 295q0 -76 51.5 -117t143.5 -41q143 0 242.5 82.5t109.5 179.5l-2 144l-8 4q-64 -29 -158 -37q-195 -22 -287 -72t-92 -143zM504.5 1266q-5.5 11 3.5 28l143 240q11 22 39 22h105 q20 0 25.5 -11.5t-7.5 -28.5l-197 -242q-19 -19 -41 -19h-45q-20 0 -25.5 11z" />
<glyph unicode="&#xe2;" horiz-adv-x="1148" d="M92 283q0 166 134.5 250.5t437.5 113.5q79 8 115 35.5t36 85.5q0 85 -65.5 137.5t-182.5 52.5q-96 0 -159.5 -40t-88.5 -113q-9 -27 -36 -27h-107q-17 0 -25.5 8.5t-5.5 22.5q36 140 148.5 221.5t286.5 81.5q192 0 300.5 -99t108.5 -272l6 -708q0 -33 -32 -33h-117 q-15 0 -24 9t-9 24l2 139h-14q-57 -88 -155 -139t-222 -51q-150 0 -241 78.5t-91 222.5zM268 295q0 -76 51.5 -117t143.5 -41q143 0 242.5 82.5t109.5 179.5l-2 144l-8 4q-64 -29 -158 -37q-195 -22 -287 -72t-92 -143zM286.5 1267q-5.5 12 6.5 29l199 238q18 18 40 18h74 q23 0 41 -18l201 -238q12 -17 6.5 -29t-27.5 -12h-88q-24 0 -39 21l-125 170h-16l-121 -170q-15 -21 -39 -21h-86q-21 0 -26.5 12z" />
<glyph unicode="&#xe3;" horiz-adv-x="1148" d="M92 283q0 166 134.5 250.5t437.5 113.5q79 8 115 35.5t36 85.5q0 85 -65.5 137.5t-182.5 52.5q-96 0 -159.5 -40t-88.5 -113q-9 -27 -36 -27h-107q-17 0 -25.5 8.5t-5.5 22.5q36 140 148.5 221.5t286.5 81.5q192 0 300.5 -99t108.5 -272l6 -708q0 -33 -32 -33h-117 q-15 0 -24 9t-9 24l2 139h-14q-57 -88 -155 -139t-222 -51q-150 0 -241 78.5t-91 222.5zM268 295q0 -76 51.5 -117t143.5 -41q143 0 242.5 82.5t109.5 179.5l-2 144l-8 4q-64 -29 -158 -37q-195 -22 -287 -72t-92 -143zM297 1323q5 84 45.5 136t122.5 52q36 0 67 -14 t52 -33.5t39.5 -39.5t38 -34t38.5 -14q47 0 54 70q3 33 34 33h43q15 0 23.5 -9t7.5 -24q-5 -81 -44 -135t-118 -54q-41 0 -76 21.5t-55.5 46.5t-47.5 46.5t-54 21.5q-51 0 -59 -70q-3 -33 -35 -33h-45q-15 0 -23.5 9t-7.5 24z" />
<glyph unicode="&#xe4;" horiz-adv-x="1148" d="M92 283q0 166 134.5 250.5t437.5 113.5q79 8 115 35.5t36 85.5q0 85 -65.5 137.5t-182.5 52.5q-96 0 -159.5 -40t-88.5 -113q-9 -27 -36 -27h-107q-17 0 -25.5 8.5t-5.5 22.5q36 140 148.5 221.5t286.5 81.5q192 0 300.5 -99t108.5 -272l6 -708q0 -33 -32 -33h-117 q-15 0 -24 9t-9 24l2 139h-14q-57 -88 -155 -139t-222 -51q-150 0 -241 78.5t-91 222.5zM268 295q0 -76 51.5 -117t143.5 -41q143 0 242.5 82.5t109.5 179.5l-2 144l-8 4q-64 -29 -158 -37q-195 -22 -287 -72t-92 -143zM350 1358v139q0 15 9 24t24 9h94q15 0 24 -9t9 -24 v-139q0 -15 -9 -24t-24 -9h-94q-15 0 -24 9t-9 24zM647 1358v139q0 15 9 24t24 9h94q15 0 24 -9t9 -24v-139q0 -15 -9 -24t-24 -9h-94q-15 0 -24 9t-9 24z" />
<glyph unicode="&#xe5;" horiz-adv-x="1148" d="M92 283q0 166 134.5 250.5t437.5 113.5q79 8 115 35.5t36 85.5q0 85 -65.5 137.5t-182.5 52.5q-96 0 -159.5 -40t-88.5 -113q-9 -27 -36 -27h-107q-17 0 -25.5 8.5t-5.5 22.5q36 140 148.5 221.5t286.5 81.5q192 0 300.5 -99t108.5 -272l6 -708q0 -33 -32 -33h-117 q-15 0 -24 9t-9 24l2 139h-14q-57 -88 -155 -139t-222 -51q-150 0 -241 78.5t-91 222.5zM268 295q0 -76 51.5 -117t143.5 -41q143 0 242.5 82.5t109.5 179.5l-2 144l-8 4q-64 -29 -158 -37q-195 -22 -287 -72t-92 -143zM383 1389q0 83 53 134.5t131 51.5q80 0 133.5 -51.5 t53.5 -134.5q0 -82 -54 -133.5t-133 -51.5q-78 0 -131 51.5t-53 133.5zM477 1389q0 -39 26.5 -65t63.5 -26q39 0 65.5 26t26.5 65q0 42 -26.5 67t-65.5 25q-38 0 -64 -25t-26 -67z" />
<glyph unicode="&#xe6;" horiz-adv-x="1878" d="M90 283q0 95 42.5 163t130 111.5t208 67.5t289.5 34l53 5v104q0 86 -64.5 138t-181.5 52q-95 0 -159 -40t-91 -113q-9 -27 -36 -27h-105q-17 0 -25 10t-4 27q36 137 148 217t283 80q130 0 224 -46.5t142 -131.5q67 84 161.5 130t207.5 46q211 0 332.5 -146t119.5 -372 q0 -29 -2 -43q0 -31 -32 -31h-736q1 -177 90.5 -281t231.5 -104q88 0 146 35t104 111q11 22 39 22h104q19 0 26 -11t1 -28q-62 -140 -173 -214.5t-261 -74.5q-137 0 -246.5 69.5t-171.5 193.5h-11q-57 -116 -177.5 -184t-272.5 -68q-151 0 -242 77.5t-92 221.5zM268 295 q0 -75 51 -115.5t144 -40.5q148 0 249 104t101 242l2 43l-49 -4q-261 -15 -379.5 -68.5t-118.5 -160.5zM1006 659h575q0 124 -78 208.5t-205 84.5q-118 0 -193.5 -81.5t-98.5 -211.5z" />
<glyph unicode="&#xe7;" horiz-adv-x="1089" d="M90 530q0 264 137.5 423t362.5 159q171 0 288.5 -90.5t157.5 -222.5q4 -17 -3.5 -27t-24.5 -10h-107q-24 0 -39 24q-80 166 -270 166q-153 0 -238.5 -105.5t-85.5 -309.5q0 -197 86.5 -299.5t243.5 -102.5q186 0 258 148q15 24 39 24h106q18 0 25.5 -10t1.5 -27 q-45 -119 -151 -203t-259 -92l-30 -100q71 -13 115.5 -57.5t44.5 -116.5q0 -80 -55 -132t-154 -52q-72 0 -131 30q-29 13 -19 43l10 33q9 31 43 19q58 -23 97 -23t66.5 22.5t27.5 53.5q0 40 -33.5 65.5t-103.5 26.5h-7q-38 0 -28 37l47 153q-193 28 -305.5 177t-112.5 376z " />
<glyph unicode="&#xe8;" horiz-adv-x="1163" d="M90 537q0 256 143.5 414.5t372.5 158.5q153 0 261.5 -75.5t158.5 -200.5t45 -283q-3 -33 -35 -33h-766q1 -179 92.5 -282t245.5 -103q174 0 262 146q11 22 39 22h105q18 0 25 -10.5t1 -28.5q-61 -139 -177 -214t-269 -75q-223 0 -363.5 156.5t-140.5 407.5zM281 659h608 q-5 126 -84 209.5t-213 83.5q-130 0 -209 -81t-102 -212zM346.5 1544.5q5.5 11.5 26.5 11.5h104q28 0 39 -22l143 -240q9 -17 3 -28t-25 -11h-45q-22 0 -41 19l-197 242q-13 17 -7.5 28.5z" />
<glyph unicode="&#xe9;" horiz-adv-x="1163" d="M90 537q0 256 143.5 414.5t372.5 158.5q153 0 261.5 -75.5t158.5 -200.5t45 -283q-3 -33 -35 -33h-766q1 -179 92.5 -282t245.5 -103q174 0 262 146q11 22 39 22h105q18 0 25 -10.5t1 -28.5q-61 -139 -177 -214t-269 -75q-223 0 -363.5 156.5t-140.5 407.5zM281 659h608 q-5 126 -84 209.5t-213 83.5q-130 0 -209 -81t-102 -212zM521 1266q-6 11 3 28l144 240q11 22 39 22h104q20 0 25.5 -11.5t-7.5 -28.5l-196 -242q-19 -19 -41 -19h-45q-20 0 -26 11z" />
<glyph unicode="&#xea;" horiz-adv-x="1163" d="M90 537q0 256 143.5 414.5t372.5 158.5q153 0 261.5 -75.5t158.5 -200.5t45 -283q-3 -33 -35 -33h-766q1 -179 92.5 -282t245.5 -103q174 0 262 146q11 22 39 22h105q18 0 25 -10.5t1 -28.5q-61 -139 -177 -214t-269 -75q-223 0 -363.5 156.5t-140.5 407.5zM281 659h608 q-5 126 -84 209.5t-213 83.5q-130 0 -209 -81t-102 -212zM300.5 1267q-5.5 12 6.5 29l199 238q18 18 41 18h74q23 0 41 -18l200 -238q12 -17 6.5 -29t-26.5 -12h-88q-24 0 -39 21l-125 170h-17l-120 -170q-15 -21 -39 -21h-86q-22 0 -27.5 12z" />
<glyph unicode="&#xeb;" horiz-adv-x="1163" d="M90 537q0 256 143.5 414.5t372.5 158.5q153 0 261.5 -75.5t158.5 -200.5t45 -283q-3 -33 -35 -33h-766q1 -179 92.5 -282t245.5 -103q174 0 262 146q11 22 39 22h105q18 0 25 -10.5t1 -28.5q-61 -139 -177 -214t-269 -75q-223 0 -363.5 156.5t-140.5 407.5zM281 659h608 q-5 126 -84 209.5t-213 83.5q-130 0 -209 -81t-102 -212zM365 1358v139q0 33 32 33h95q32 0 32 -33v-139q0 -33 -32 -33h-95q-32 0 -32 33zM662 1358v139q0 33 32 33h94q15 0 24 -9t9 -24v-139q0 -15 -9 -24t-24 -9h-94q-32 0 -32 33z" />
<glyph unicode="&#xec;" horiz-adv-x="534" d="M31.5 1544.5q5.5 11.5 25.5 11.5h105q28 0 39 -22l143 -240q9 -17 3 -28t-25 -11h-46q-21 0 -40 19l-197 242q-13 17 -7.5 28.5zM172 33l8 1022q0 32 33 32h109q32 0 32 -32l6 -1022q0 -33 -32 -33h-123q-15 0 -24 9t-9 24z" />
<glyph unicode="&#xed;" horiz-adv-x="534" d="M172 33l8 1022q0 32 33 32h109q32 0 32 -32l6 -1022q0 -33 -32 -33h-123q-15 0 -24 9t-9 24zM205.5 1266q-5.5 11 3.5 28l143 240q11 22 39 22h105q20 0 25.5 -11.5t-7.5 -28.5l-197 -242q-19 -19 -41 -19h-45q-20 0 -25.5 11z" />
<glyph unicode="&#xee;" horiz-adv-x="534" d="M-14.5 1267q-5.5 12 6.5 29l198 238q18 18 41 18h74q23 0 41 -18l201 -238q12 -17 6.5 -29t-27.5 -12h-88q-24 0 -39 21l-125 170h-16l-121 -170q-15 -21 -39 -21h-86q-21 0 -26.5 12zM172 33l8 1022q0 32 33 32h109q32 0 32 -32l6 -1022q0 -33 -32 -33h-123q-15 0 -24 9 t-9 24z" />
<glyph unicode="&#xef;" horiz-adv-x="534" d="M49 1358v139q0 15 9 24t24 9h94q15 0 24 -9t9 -24v-139q0 -15 -9 -24t-24 -9h-94q-15 0 -24 9t-9 24zM172 33l8 1022q0 32 33 32h109q32 0 32 -32l6 -1022q0 -33 -32 -33h-123q-15 0 -24 9t-9 24zM346 1358v139q0 15 9 24t24 9h94q15 0 24 -9t9 -24v-139q0 -15 -9 -24 t-24 -9h-94q-15 0 -24 9t-9 24z" />
<glyph unicode="&#xf0;" horiz-adv-x="1228" d="M90 532q0 257 136.5 418.5t340.5 161.5q176 0 273 -123l10 6q-75 181 -215 293l-170 -90q-30 -13 -45 14l-17 33q-16 29 13 45l125 66q-53 30 -111 57q-32 16 -14 45l45 70q16 25 45 12q102 -43 186 -104l146 77q30 13 45 -14l18 -35q14 -31 -14 -43l-109 -57 q152 -139 230.5 -336.5t78.5 -439.5q0 -292 -135 -453.5t-364 -161.5q-153 0 -266.5 72t-172.5 198t-59 289zM268 547q0 -191 90.5 -301.5t233.5 -110.5q142 0 232.5 110t90.5 302t-91.5 299.5t-231.5 107.5q-144 0 -234 -107.5t-90 -299.5z" />
<glyph unicode="&#xf1;" horiz-adv-x="1189" d="M152 33l8 1022q0 32 33 32h108q33 0 33 -32l2 -129l14 -2q132 188 340 188q159 0 253.5 -103.5t94.5 -291.5v-684q0 -33 -32 -33h-123q-15 0 -24 9t-9 24v639q0 132 -58 200t-163 68q-118 0 -196 -84.5t-95 -245.5l2 -577q0 -15 -9 -24t-24 -9h-123q-32 0 -32 33z M322 1323q5 84 45 136t122 52q36 0 67 -14t52.5 -33.5t40 -39.5t38 -34t38.5 -14q46 0 53 70q3 33 35 33h43q15 0 23.5 -9t7.5 -24q-5 -81 -44 -135t-118 -54q-41 0 -76 21.5t-55.5 46.5t-47.5 46.5t-54 21.5q-52 0 -60 -70q-3 -33 -35 -33h-45q-15 0 -23 9t-7 24z" />
<glyph unicode="&#xf2;" d="M90 539q0 253 147.5 413t374.5 160q220 0 362 -154t142 -401q0 -167 -67 -300.5t-186 -208.5t-267 -75q-219 0 -362.5 159.5t-143.5 406.5zM268 555q0 -187 98.5 -303.5t245.5 -116.5q144 0 235 111t91 291q0 190 -97.5 303.5t-246.5 113.5q-144 0 -235 -108.5 t-91 -290.5zM367.5 1544.5q5.5 11.5 25.5 11.5h105q28 0 39 -22l143 -240q9 -17 2.5 -28t-25.5 -11h-45q-22 0 -41 19l-196 242q-13 17 -7.5 28.5z" />
<glyph unicode="&#xf3;" d="M90 539q0 253 147.5 413t374.5 160q220 0 362 -154t142 -401q0 -167 -67 -300.5t-186 -208.5t-267 -75q-219 0 -362.5 159.5t-143.5 406.5zM268 555q0 -187 98.5 -303.5t245.5 -116.5q144 0 235 111t91 291q0 190 -97.5 303.5t-246.5 113.5q-144 0 -235 -108.5 t-91 -290.5zM541.5 1266q-5.5 11 3.5 28l143 240q11 22 39 22h104q21 0 26.5 -11.5t-7.5 -28.5l-197 -242q-19 -19 -41 -19h-45q-20 0 -25.5 11z" />
<glyph unicode="&#xf4;" d="M90 539q0 253 147.5 413t374.5 160q220 0 362 -154t142 -401q0 -167 -67 -300.5t-186 -208.5t-267 -75q-219 0 -362.5 159.5t-143.5 406.5zM268 555q0 -187 98.5 -303.5t245.5 -116.5q144 0 235 111t91 291q0 190 -97.5 303.5t-246.5 113.5q-144 0 -235 -108.5 t-91 -290.5zM321.5 1267q-5.5 12 6.5 29l198 238q18 18 41 18h74q23 0 41 -18l201 -238q12 -17 6.5 -29t-27.5 -12h-88q-24 0 -39 21l-125 170h-16l-121 -170q-15 -21 -39 -21h-86q-21 0 -26.5 12z" />
<glyph unicode="&#xf5;" d="M90 539q0 253 147.5 413t374.5 160q220 0 362 -154t142 -401q0 -167 -67 -300.5t-186 -208.5t-267 -75q-219 0 -362.5 159.5t-143.5 406.5zM268 555q0 -187 98.5 -303.5t245.5 -116.5q144 0 235 111t91 291q0 190 -97.5 303.5t-246.5 113.5q-144 0 -235 -108.5 t-91 -290.5zM334 1323q5 84 45.5 136t122.5 52q36 0 67 -14t52 -33.5t39.5 -39.5t38 -34t38.5 -14q47 0 54 70q3 33 34 33h43q15 0 23.5 -9t7.5 -24q-5 -81 -44 -135t-118 -54q-41 0 -76 21.5t-55.5 46.5t-47.5 46.5t-54 21.5q-52 0 -60 -70q-3 -33 -34 -33h-45 q-15 0 -23.5 9t-7.5 24z" />
<glyph unicode="&#xf6;" d="M90 539q0 253 147.5 413t374.5 160q220 0 362 -154t142 -401q0 -167 -67 -300.5t-186 -208.5t-267 -75q-219 0 -362.5 159.5t-143.5 406.5zM268 555q0 -187 98.5 -303.5t245.5 -116.5q144 0 235 111t91 291q0 190 -97.5 303.5t-246.5 113.5q-144 0 -235 -108.5 t-91 -290.5zM385 1358v139q0 15 9 24t24 9h94q15 0 24 -9t9 -24v-139q0 -15 -9 -24t-24 -9h-94q-15 0 -24 9t-9 24zM682 1358v139q0 15 9 24t24 9h94q15 0 24 -9t9 -24v-139q0 -15 -9 -24t-24 -9h-94q-15 0 -24 9t-9 24z" />
<glyph unicode="&#xf7;" horiz-adv-x="1562" d="M246 502v94q0 15 9 24t24 9h1005q15 0 24 -9t9 -24v-94q0 -15 -9 -24t-24 -9h-1005q-15 0 -24 9t-9 24zM657 72v147q0 15 9 24t24 9h137q15 0 24 -9t9 -24v-147q0 -15 -9 -24t-24 -9h-137q-15 0 -24 9t-9 24zM657 858v150q0 32 33 32h137q33 0 33 -32v-150q0 -15 -9 -24 t-24 -9h-137q-15 0 -24 9t-9 24z" />
<glyph unicode="&#xf8;" horiz-adv-x="1314" d="M116 12q-5 12 9 29l119 137q-107 151 -107 361q0 253 147.5 413t374.5 160q173 0 306 -100l49 57q18 18 41 18h112q22 0 27.5 -11.5t-8.5 -28.5l-123 -142q100 -146 100 -348q0 -253 -148.5 -418.5t-371.5 -165.5q-166 0 -297 101l-47 -56q-18 -18 -41 -18h-115 q-22 0 -27 12zM315 555q0 -134 52 -233l483 557q-87 75 -209 75q-144 0 -235 -108.5t-91 -290.5zM459 205q86 -70 200 -70q142 0 233 111t91 291q0 131 -47 223z" />
<glyph unicode="&#xf9;" horiz-adv-x="1181" d="M152 387l4 668q0 32 32 32h109q33 0 33 -32l4 -625q3 -285 217 -285q118 0 195.5 84t97.5 248l4 578q0 32 33 32h108q33 0 33 -32l6 -1022q0 -15 -9 -24t-24 -9h-121q-32 0 -32 33l2 129h-15q-129 -189 -335 -189q-159 0 -250.5 107t-91.5 307zM352.5 1544.5 q5.5 11.5 26.5 11.5h104q28 0 39 -22l144 -240q9 -17 2.5 -28t-25.5 -11h-45q-22 0 -41 19l-197 242q-13 17 -7.5 28.5z" />
<glyph unicode="&#xfa;" horiz-adv-x="1181" d="M152 387l4 668q0 32 32 32h109q33 0 33 -32l4 -625q3 -285 217 -285q118 0 195.5 84t97.5 248l4 578q0 32 33 32h108q33 0 33 -32l6 -1022q0 -15 -9 -24t-24 -9h-121q-32 0 -32 33l2 129h-15q-129 -189 -335 -189q-159 0 -250.5 107t-91.5 307zM525 1266q-6 11 3 28 l144 240q11 22 39 22h104q21 0 26.5 -11.5t-7.5 -28.5l-197 -242q-19 -19 -41 -19h-45q-20 0 -26 11z" />
<glyph unicode="&#xfb;" horiz-adv-x="1181" d="M152 387l4 668q0 32 32 32h109q33 0 33 -32l4 -625q3 -285 217 -285q118 0 195.5 84t97.5 248l4 578q0 32 33 32h108q33 0 33 -32l6 -1022q0 -15 -9 -24t-24 -9h-121q-32 0 -32 33l2 129h-15q-129 -189 -335 -189q-159 0 -250.5 107t-91.5 307zM306.5 1267 q-5.5 12 6.5 29l199 238q18 18 41 18h74q23 0 41 -18l200 -238q12 -17 6.5 -29t-26.5 -12h-88q-24 0 -39 21l-125 170h-16l-121 -170q-15 -21 -39 -21h-86q-22 0 -27.5 12z" />
<glyph unicode="&#xfc;" horiz-adv-x="1181" d="M152 387l4 668q0 32 32 32h109q33 0 33 -32l4 -625q3 -285 217 -285q118 0 195.5 84t97.5 248l4 578q0 32 33 32h108q33 0 33 -32l6 -1022q0 -15 -9 -24t-24 -9h-121q-32 0 -32 33l2 129h-15q-129 -189 -335 -189q-159 0 -250.5 107t-91.5 307zM371 1358v139q0 33 32 33 h95q32 0 32 -33v-139q0 -33 -32 -33h-95q-32 0 -32 33zM668 1358v139q0 33 32 33h95q32 0 32 -33v-139q0 -33 -32 -33h-95q-32 0 -32 33z" />
<glyph unicode="&#xfd;" horiz-adv-x="1075" d="M55 1051q-9 36 27 36h106q28 0 37 -26l297 -860h15l311 860q12 26 39 26h104q36 0 27 -36l-516 -1475q-12 -27 -39 -27h-123q-19 0 -26 10t-1 27l131 367zM478 1266q-6 11 3 28l144 240q11 22 39 22h104q20 0 25.5 -11.5t-7.5 -28.5l-196 -242q-19 -19 -41 -19h-45 q-20 0 -26 11z" />
<glyph unicode="&#xfe;" horiz-adv-x="1245" d="M152 -418l8 1505v408q0 15 9 24t24 9h110q15 0 24 -9t9 -24v-565h12q58 90 151 136t199 46q203 0 330 -156.5t127 -402.5q0 -257 -137 -418.5t-352 -161.5q-190 0 -318 131h-10l2 -522q0 -15 -9 -24t-24 -9h-123q-32 0 -32 33zM326 467q14 -162 104 -248t223 -86 q151 0 236.5 108.5t85.5 297.5q0 192 -89 303.5t-235 111.5q-130 0 -221 -93t-104 -257v-137z" />
<glyph unicode="&#xff;" horiz-adv-x="1075" d="M55 1051q-9 36 27 36h106q28 0 37 -26l297 -860h15l311 860q12 26 39 26h104q36 0 27 -36l-516 -1475q-12 -27 -39 -27h-123q-19 0 -26 10t-1 27l131 367zM322 1358v139q0 33 32 33h95q32 0 32 -33v-139q0 -33 -32 -33h-95q-32 0 -32 33zM618 1358v139q0 15 9 24t24 9h94 q15 0 24 -9t9 -24v-139q0 -15 -9 -24t-24 -9h-94q-15 0 -24 9t-9 24z" />
<glyph unicode="&#x152;" horiz-adv-x="1873" d="M94 743q0 163 55 302t152 236.5t234 152.5t296 55h914q15 0 24 -9t9 -24v-96q0 -15 -9 -24t-24 -9h-641l2 -465h536q15 0 24 -9t9 -24v-100q0 -15 -9 -24t-24 -9h-534l2 -532h637q15 0 24 -9t9 -24v-98q0 -15 -9 -24t-24 -9h-936q-215 0 -379 95t-251 263.5t-87 384.5z M274 756q0 -272 152 -434t401 -162h91l6 1167h-93q-253 0 -405 -151.5t-152 -419.5z" />
<glyph unicode="&#x153;" horiz-adv-x="2009" d="M90 539q0 253 147.5 413t374.5 160q133 0 242 -60t176 -167q68 107 178 166t246 59q152 0 260.5 -75.5t158.5 -200.5t44 -283q-3 -33 -35 -33h-766q1 -179 92.5 -282t247.5 -103q90 0 152.5 36t107.5 110q11 22 39 22h105q18 0 25 -10.5t1 -28.5q-61 -139 -177 -214 t-267 -75q-137 0 -246 61.5t-176 172.5q-70 -109 -180.5 -171.5t-243.5 -62.5q-219 0 -362.5 159.5t-143.5 406.5zM268 555q0 -187 98.5 -303.5t245.5 -116.5q144 0 235 111t91 291q0 190 -97.5 303.5t-246.5 113.5q-144 0 -235 -108.5t-91 -290.5zM1126 659h609 q-5 126 -83.5 209.5t-211.5 83.5q-132 0 -211.5 -81t-102.5 -212z" />
<glyph unicode="&#x178;" horiz-adv-x="1224" d="M46 1478q6 11 26 11h127q27 0 39 -23l372 -647h13l374 647q11 23 39 23h117q20 0 26 -11t-3 -28l-469 -823l4 -594q0 -15 -9 -24t-24 -9h-125q-15 0 -24 9t-9 24l4 594l-475 823q-9 17 -3 28zM393 1769v140q0 15 9 24t24 9h94q15 0 24 -9t9 -24v-140q0 -32 -33 -32h-94 q-33 0 -33 32zM690 1769v140q0 15 9 24t24 9h94q15 0 24 -9t9 -24v-140q0 -32 -33 -32h-94q-33 0 -33 32z" />
<glyph unicode="&#x2c6;" horiz-adv-x="1062" d="M247.5 1267q-5.5 12 6.5 29l199 238q18 18 41 18h73q23 0 41 -18l201 -238q12 -17 6.5 -29t-27.5 -12h-88q-23 0 -38 21l-125 170h-17l-121 -170q-15 -21 -39 -21h-86q-21 0 -26.5 12z" />
<glyph unicode="&#x2dc;" horiz-adv-x="1028" d="M231 1323q5 84 45.5 136t122.5 52q36 0 67 -14t52.5 -33.5t40 -39.5t38 -34t38.5 -14q46 0 53 70q3 33 35 33h43q15 0 23.5 -9t7.5 -24q-5 -81 -44 -135t-118 -54q-41 0 -76 21.5t-55.5 46.5t-48 46.5t-54.5 21.5q-51 0 -59 -70q-3 -33 -35 -33h-45q-15 0 -23.5 9 t-7.5 24z" />
<glyph unicode="&#x2000;" horiz-adv-x="989" />
<glyph unicode="&#x2001;" horiz-adv-x="1978" />
<glyph unicode="&#x2002;" horiz-adv-x="989" />
<glyph unicode="&#x2003;" horiz-adv-x="1978" />
<glyph unicode="&#x2004;" horiz-adv-x="659" />
<glyph unicode="&#x2005;" horiz-adv-x="494" />
<glyph unicode="&#x2006;" horiz-adv-x="329" />
<glyph unicode="&#x2007;" horiz-adv-x="329" />
<glyph unicode="&#x2008;" horiz-adv-x="247" />
<glyph unicode="&#x2009;" horiz-adv-x="395" />
<glyph unicode="&#x200a;" horiz-adv-x="109" />
<glyph unicode="&#x2010;" horiz-adv-x="1206" d="M246 532v93q0 32 33 32h649q33 0 33 -32v-93q0 -32 -33 -32h-649q-33 0 -33 32z" />
<glyph unicode="&#x2011;" horiz-adv-x="1206" d="M246 532v93q0 32 33 32h649q33 0 33 -32v-93q0 -32 -33 -32h-649q-33 0 -33 32z" />
<glyph unicode="&#x2012;" horiz-adv-x="1206" d="M246 532v93q0 32 33 32h649q33 0 33 -32v-93q0 -32 -33 -32h-649q-33 0 -33 32z" />
<glyph unicode="&#x2013;" horiz-adv-x="1468" d="M199 528v93q0 32 32 32h1006q33 0 33 -32v-93q0 -32 -33 -32h-1006q-32 0 -32 32z" />
<glyph unicode="&#x2014;" horiz-adv-x="1824" d="M199 528v93q0 32 32 32h1362q33 0 33 -32v-93q0 -32 -33 -32h-1362q-32 0 -32 32z" />
<glyph unicode="&#x2018;" horiz-adv-x="591" d="M219 995v127q0 132 31 216.5t100 156.5q21 21 45 6l8 -4q33 -17 11 -45q-36 -52 -50.5 -100t-4 -89.5t48.5 -68.5q22 -19 22 -41v-158q0 -32 -33 -32h-145q-33 0 -33 32z" />
<glyph unicode="&#x2019;" horiz-adv-x="473" d="M164 1307v157q0 15 9 24t24 9h143q15 0 24 -9t9 -24v-127q0 -134 -30.5 -218t-100.5 -154q-21 -21 -45 -9l-11 7q-30 17 -8 45q36 52 51 100t5 89.5t-48 68.5q-22 19 -22 41z" />
<glyph unicode="&#x201a;" horiz-adv-x="614" d="M246 25v157q0 15 9 24t24 9h143q15 0 24 -9t9 -24v-127q0 -134 -30.5 -217.5t-100.5 -154.5q-21 -21 -45 -9l-11 7q-30 17 -8 45q36 52 51 100t5 89.5t-48 68.5q-22 19 -22 41z" />
<glyph unicode="&#x201c;" horiz-adv-x="980" d="M219 995v127q0 134 30.5 218t100.5 155q20 20 45 8l11 -6q30 -17 8 -45q-36 -52 -51 -100t-5 -89.5t48 -68.5q22 -19 22 -41v-158q0 -32 -33 -32h-143q-33 0 -33 32zM608 995v127q0 134 30.5 218t100.5 155q20 20 45 8l11 -6q30 -17 8 -45q-36 -52 -51 -100t-5 -89.5 t48 -68.5q22 -19 22 -41v-158q0 -32 -33 -32h-143q-33 0 -33 32z" />
<glyph unicode="&#x201d;" horiz-adv-x="860" d="M162 1298v158q0 15 9 24t24 9h145q15 0 24 -9t9 -24v-129q0 -132 -31 -216.5t-100 -154.5q-20 -20 -45 -8l-11 6q-30 17 -8 45q36 52 50.5 100t4 89.5t-48.5 68.5q-22 19 -22 41zM551 1298v158q0 15 9 24t24 9h145q15 0 24 -9t9 -24v-129q0 -132 -31 -216.5t-100 -154.5 q-20 -20 -45 -8l-11 6q-30 17 -8 45q36 52 50.5 100t4 89.5t-48.5 68.5q-22 19 -22 41z" />
<glyph unicode="&#x201e;" horiz-adv-x="614" d="M246 25v157q0 15 9 24t24 9h143q15 0 24 -9t9 -24v-127q0 -134 -30.5 -217.5t-100.5 -154.5q-21 -21 -45 -9l-11 7q-30 17 -8 45q36 52 51 100t5 89.5t-48 68.5q-22 19 -22 41z" />
<glyph unicode="&#x2022;" horiz-adv-x="1081" d="M268 594q0 114 79.5 193t193.5 79t193 -79t79 -193t-79 -193t-193 -79t-193.5 79t-79.5 193z" />
<glyph unicode="&#x2026;" horiz-adv-x="1783" d="M207 74v157q0 15 9 24t24 9h143q15 0 24 -9t9 -24v-157q0 -15 -9 -24t-24 -9h-143q-15 0 -24 9t-9 24zM799 74v157q0 33 32 33h144q15 0 24 -9t9 -24v-157q0 -15 -9 -24t-24 -9h-144q-32 0 -32 33zM1391 74v157q0 33 32 33h144q32 0 32 -33v-157q0 -33 -32 -33h-144 q-32 0 -32 33z" />
<glyph unicode="&#x202f;" horiz-adv-x="395" />
<glyph unicode="&#x2039;" horiz-adv-x="800" d="M197 479v135q0 25 20 39l350 228q17 12 28 5.5t11 -26.5v-96q0 -25 -20 -39l-273 -178l273 -176q20 -14 20 -39v-96q0 -20 -11 -26.5t-28 5.5l-350 225q-20 14 -20 39z" />
<glyph unicode="&#x203a;" horiz-adv-x="800" d="M197 236v98q0 25 20 39l272 176l-272 176q-20 14 -20 39v96q0 20 11 26.5t28 -5.5l350 -226q20 -14 20 -39v-135q0 -25 -20 -39l-350 -227q-17 -12 -28 -5.5t-11 26.5z" />
<glyph unicode="&#x205f;" horiz-adv-x="494" />
<glyph unicode="&#x20ac;" horiz-adv-x="1431" d="M94 559v78q0 15 9 24t24 9h123q-2 23 -2 69q0 28 4 82h-125q-15 0 -24 9t-9 24v78q0 15 9 24t24 9h145q60 254 244.5 403.5t441.5 149.5q163 0 299 -64q28 -13 19 -41l-25 -92q-9 -31 -43 -18q-138 55 -264 55q-182 0 -312 -103t-179 -290l465 2q32 0 32 -33v-78 q0 -33 -32 -33l-488 -2q-2 -20 -2 -65q0 -28 4 -86l486 2q32 0 32 -33v-78q0 -33 -32 -33l-461 -2q53 -184 185.5 -287.5t320.5 -103.5q128 0 254 49q31 13 40 -20l19 -82q6 -28 -19 -43q-135 -66 -309 -66q-262 0 -442 150t-236 403h-143q-15 0 -24 9t-9 24z" />
<glyph unicode="&#x2122;" horiz-adv-x="1345" d="M164 1434v22q0 15 9 24t24 9h356q15 0 24 -9t9 -24v-20q0 -15 -9 -24t-24 -9h-131v-410q0 -32 -33 -32h-31q-32 0 -32 32l2 410l-131 -2q-15 0 -24 9t-9 24zM647 993l15 463q0 33 32 33h72q28 0 37 -27l108 -360h9l108 360q9 27 37 27h68q32 0 32 -33l15 -463 q1 -15 -7.5 -23.5t-23.5 -8.5h-27q-32 0 -32 32l-9 348h-6l-104 -354q-9 -26 -37 -26h-35q-28 0 -37 26l-110 354h-9l-8 -348q0 -32 -33 -32h-24q-15 0 -23.5 8.5t-7.5 23.5z" />
<glyph unicode="&#x25fc;" horiz-adv-x="1085" d="M0 0v1085h1085v-1085h-1085z" />
</font>
</defs>
</svg>
